  0
SECTION
  2
HEADER
  9
$ACADVER
  1
AC1032
  9
$ACADMAINTVER
 90
      140
  9
$DWGCODEPAGE
  3
ANSI_1252
  9
$LASTSAVEDBY
  1
theking
  9
$REQUIREDVERSIONS
160
                 0
  9
$INSBASE
 10
0.0
 20
0.0
 30
0.0
  9
$EXTMIN
 10
0.0
 20
0.0
 30
0.0
  9
$EXTMAX
 10
342.3753449205328
 20
151.8346309082502
 30
0.0
  9
$LIMMIN
 10
0.0
 20
0.0
  9
$LIMMAX
 10
12.0
 20
9.0
  9
$ORTHOMODE
 70
     0
  9
$REGENMODE
 70
     1
  9
$FILLMODE
 70
     0
  9
$QTEXTMODE
 70
     0
  9
$MIRRTEXT
 70
     0
  9
$LTSCALE
 40
1.0
  9
$ATTMODE
 70
     1
  9
$TEXTSIZE
 40
0.2
  9
$TRACEWID
 40
0.05
  9
$TEXTSTYLE
  7
Standard
  9
$CLAYER
  8
0
  9
$CELTYPE
  6
Continuous
  9
$CECOLOR
 62
   256
  9
$CELTSCALE
 40
1.0
  9
$DISPSILH
 70
     0
  9
$DIMSCALE
 40
1.0
  9
$DIMASZ
 40
0.18
  9
$DIMEXO
 40
0.0625
  9
$DIMDLI
 40
0.38
  9
$DIMRND
 40
0.0
  9
$DIMDLE
 40
0.0
  9
$DIMEXE
 40
0.18
  9
$DIMTP
 40
0.0
  9
$DIMTM
 40
0.0
  9
$DIMTXT
 40
0.18
  9
$DIMCEN
 40
0.09
  9
$DIMTSZ
 40
0.0
  9
$DIMTOL
 70
     0
  9
$DIMLIM
 70
     0
  9
$DIMTIH
 70
     1
  9
$DIMTOH
 70
     1
  9
$DIMSE1
 70
     0
  9
$DIMSE2
 70
     0
  9
$DIMTAD
 70
     0
  9
$DIMZIN
 70
     0
  9
$DIMBLK
  1

  9
$DIMASO
 70
     1
  9
$DIMSHO
 70
     1
  9
$DIMPOST
  1

  9
$DIMAPOST
  1

  9
$DIMALT
 70
     0
  9
$DIMALTD
 70
     2
  9
$DIMALTF
 40
25.4
  9
$DIMLFAC
 40
1.0
  9
$DIMTOFL
 70
     0
  9
$DIMTVP
 40
0.0
  9
$DIMTIX
 70
     0
  9
$DIMSOXD
 70
     0
  9
$DIMSAH
 70
     0
  9
$DIMBLK1
  1

  9
$DIMBLK2
  1

  9
$DIMSTYLE
  2
Standard
  9
$DIMCLRD
 70
     0
  9
$DIMCLRE
 70
     0
  9
$DIMCLRT
 70
     0
  9
$DIMTFAC
 40
1.0
  9
$DIMGAP
 40
0.09
  9
$DIMJUST
 70
     0
  9
$DIMSD1
 70
     0
  9
$DIMSD2
 70
     0
  9
$DIMTOLJ
 70
     1
  9
$DIMTZIN
 70
     0
  9
$DIMALTZ
 70
     0
  9
$DIMALTTZ
 70
     0
  9
$DIMUPT
 70
     0
  9
$DIMDEC
 70
     4
  9
$DIMTDEC
 70
     4
  9
$DIMALTU
 70
     2
  9
$DIMALTTD
 70
     2
  9
$DIMTXSTY
  7
Standard
  9
$DIMAUNIT
 70
     0
  9
$DIMADEC
 70
     0
  9
$DIMALTRND
 40
0.0
  9
$DIMAZIN
 70
     0
  9
$DIMDSEP
 70
    46
  9
$DIMATFIT
 70
     3
  9
$DIMFRAC
 70
     0
  9
$DIMLDRBLK
  1

  9
$DIMLUNIT
 70
     2
  9
$DIMLWD
 70
    -2
  9
$DIMLWE
 70
    -2
  9
$DIMTMOVE
 70
     0
  9
$DIMFXL
 40
1.0
  9
$DIMFXLON
 70
     0
  9
$DIMJOGANG
 40
0.7853981633974483
  9
$DIMTFILL
 70
     0
  9
$DIMTFILLCLR
 70
     0
  9
$DIMARCSYM
 70
     0
  9
$DIMLTYPE
  6

  9
$DIMLTEX1
  6

  9
$DIMLTEX2
  6

  9
$DIMTXTDIRECTION
 70
     0
  9
$LUNITS
 70
     2
  9
$LUPREC
 70
     4
  9
$SKETCHINC
 40
0.1
  9
$FILLETRAD
 40
2.0
  9
$AUNITS
 70
     0
  9
$AUPREC
 70
     0
  9
$MENU
  1
.
  9
$ELEVATION
 40
0.0
  9
$PELEVATION
 40
0.0
  9
$THICKNESS
 40
0.0
  9
$LIMCHECK
 70
     0
  9
$CHAMFERA
 40
0.0
  9
$CHAMFERB
 40
0.0
  9
$CHAMFERC
 40
0.0
  9
$CHAMFERD
 40
0.0
  9
$SKPOLY
 70
     0
  9
$TDCREATE
 40
2459498.407685186
  9
$TDUCREATE
 40
2459498.324351852
  9
$TDUPDATE
 40
2459498.566886574
  9
$TDUUPDATE
 40
2459498.483553240
  9
$TDINDWG
 40
0.1592013889
  9
$TDUSRTIMER
 40
0.1592013889
  9
$USRTIMER
 70
     1
  9
$ANGBASE
 50
0.0
  9
$ANGDIR
 70
     0
  9
$PDMODE
 70
     0
  9
$PDSIZE
 40
0.0
  9
$PLINEWID
 40
0.0
  9
$SPLFRAME
 70
     1
  9
$SPLINETYPE
 70
     6
  9
$SPLINESEGS
 70
     8
  9
$HANDSEED
  5
339
  9
$SURFTAB1
 70
     6
  9
$SURFTAB2
 70
     6
  9
$SURFTYPE
 70
     6
  9
$SURFU
 70
     6
  9
$SURFV
 70
     6
  9
$UCSBASE
  2

  9
$UCSNAME
  2

  9
$UCSORG
 10
0.0
 20
0.0
 30
0.0
  9
$UCSXDIR
 10
1.0
 20
0.0
 30
0.0
  9
$UCSYDIR
 10
0.0
 20
1.0
 30
0.0
  9
$UCSORTHOREF
  2

  9
$UCSORTHOVIEW
 70
     0
  9
$UCSORGTOP
 10
0.0
 20
0.0
 30
0.0
  9
$UCSORGBOTTOM
 10
0.0
 20
0.0
 30
0.0
  9
$UCSORGLEFT
 10
0.0
 20
0.0
 30
0.0
  9
$UCSORGRIGHT
 10
0.0
 20
0.0
 30
0.0
  9
$UCSORGFRONT
 10
0.0
 20
0.0
 30
0.0
  9
$UCSORGBACK
 10
0.0
 20
0.0
 30
0.0
  9
$PUCSBASE
  2

  9
$PUCSNAME
  2

  9
$PUCSORG
 10
0.0
 20
0.0
 30
0.0
  9
$PUCSXDIR
 10
1.0
 20
0.0
 30
0.0
  9
$PUCSYDIR
 10
0.0
 20
1.0
 30
0.0
  9
$PUCSORTHOREF
  2

  9
$PUCSORTHOVIEW
 70
     0
  9
$PUCSORGTOP
 10
0.0
 20
0.0
 30
0.0
  9
$PUCSORGBOTTOM
 10
0.0
 20
0.0
 30
0.0
  9
$PUCSORGLEFT
 10
0.0
 20
0.0
 30
0.0
  9
$PUCSORGRIGHT
 10
0.0
 20
0.0
 30
0.0
  9
$PUCSORGFRONT
 10
0.0
 20
0.0
 30
0.0
  9
$PUCSORGBACK
 10
0.0
 20
0.0
 30
0.0
  9
$USERI1
 70
     0
  9
$USERI2
 70
     0
  9
$USERI3
 70
     0
  9
$USERI4
 70
     0
  9
$USERI5
 70
     0
  9
$USERR1
 40
0.0
  9
$USERR2
 40
0.0
  9
$USERR3
 40
0.0
  9
$USERR4
 40
0.0
  9
$USERR5
 40
0.0
  9
$WORLDVIEW
 70
     1
  9
$SHADEDGE
 70
     3
  9
$SHADEDIF
 70
    70
  9
$TILEMODE
 70
     1
  9
$MAXACTVP
 70
    64
  9
$PINSBASE
 10
0.0
 20
0.0
 30
0.0
  9
$PLIMCHECK
 70
     0
  9
$PEXTMIN
 10
1.000000000000000E+20
 20
1.000000000000000E+20
 30
1.000000000000000E+20
  9
$PEXTMAX
 10
-1.000000000000000E+20
 20
-1.000000000000000E+20
 30
-1.000000000000000E+20
  9
$PLIMMIN
 10
0.0
 20
0.0
  9
$PLIMMAX
 10
12.0
 20
9.0
  9
$UNITMODE
 70
     0
  9
$VISRETAIN
 70
     1
  9
$PLINEGEN
 70
     0
  9
$PSLTSCALE
 70
     1
  9
$TREEDEPTH
 70
  3020
  9
$CMLSTYLE
  2
Standard
  9
$CMLJUST
 70
     0
  9
$CMLSCALE
 40
1.0
  9
$PROXYGRAPHICS
 70
     1
  9
$MEASUREMENT
 70
     0
  9
$CELWEIGHT
370
    -1
  9
$ENDCAPS
280
     0
  9
$JOINSTYLE
280
     0
  9
$LWDISPLAY
290
     0
  9
$INSUNITS
 70
     0
  9
$HYPERLINKBASE
  1

  9
$STYLESHEET
  1

  9
$XEDIT
290
     1
  9
$CEPSNTYPE
380
     0
  9
$PSTYLEMODE
290
     1
  9
$FINGERPRINTGUID
  2
{F1E8274E-6552-7B46-9792-D3E863F85B73}
  9
$VERSIONGUID
  2
{16D0A293-1CF9-5A43-8FF7-11AA999398E1}
  9
$EXTNAMES
290
     1
  9
$PSVPSCALE
 40
0.0
  9
$OLESTARTUP
290
     0
  9
$SORTENTS
280
   127
  9
$INDEXCTL
280
     0
  9
$HIDETEXT
280
     0
  9
$XCLIPFRAME
280
     2
  9
$HALOGAP
280
     0
  9
$OBSCOLOR
 70
   257
  9
$OBSLTYPE
280
     0
  9
$INTERSECTIONDISPLAY
280
     0
  9
$INTERSECTIONCOLOR
 70
   257
  9
$DIMASSOC
280
     1
  9
$PROJECTNAME
  1

  9
$CAMERADISPLAY
290
     0
  9
$LENSLENGTH
 40
50.0
  9
$CAMERAHEIGHT
 40
0.0
  9
$STEPSPERSEC
 40
2.0
  9
$STEPSIZE
 40
6.0
  9
$3DDWFPREC
 40
2.0
  9
$PSOLWIDTH
 40
0.25
  9
$PSOLHEIGHT
 40
4.0
  9
$LOFTANG1
 40
1.570796326794896
  9
$LOFTANG2
 40
1.570796326794896
  9
$LOFTMAG1
 40
0.0
  9
$LOFTMAG2
 40
0.0
  9
$LOFTPARAM
 70
     7
  9
$LOFTNORMALS
280
     1
  9
$LATITUDE
 40
37.795
  9
$LONGITUDE
 40
-122.394
  9
$NORTHDIRECTION
 40
0.0
  9
$TIMEZONE
 70
 -8000
  9
$LIGHTGLYPHDISPLAY
280
     1
  9
$TILEMODELIGHTSYNCH
280
     1
  9
$CMATERIAL
347
11
  9
$SOLIDHIST
280
     0
  9
$SHOWHIST
280
     1
  9
$DWFFRAME
280
     2
  9
$DGNFRAME
280
     0
  9
$REALWORLDSCALE
290
     1
  9
$INTERFERECOLOR
 62
     1
  9
$INTERFEREOBJVS
345
33
  9
$INTERFEREVPVS
346
30
  9
$CSHADOW
280
     0
  9
$SHADOWPLANELOCATION
 40
0.0
  0
ENDSEC
  0
SECTION
  2
CLASSES
  0
CLASS
  1
ACDBDICTIONARYWDFLT
  2
AcDbDictionaryWithDefault
  3
ObjectDBX Classes
 90
        0
 91
        1
280
     0
281
     0
  0
CLASS
  1
MATERIAL
  2
AcDbMaterial
  3
ObjectDBX Classes
 90
     1153
 91
        3
280
     0
281
     0
  0
CLASS
  1
VISUALSTYLE
  2
AcDbVisualStyle
  3
ObjectDBX Classes
 90
     4095
 91
       24
280
     0
281
     0
  0
CLASS
  1
SCALE
  2
AcDbScale
  3
ObjectDBX Classes
 90
     1153
 91
       17
280
     0
281
     0
  0
CLASS
  1
TABLESTYLE
  2
AcDbTableStyle
  3
ObjectDBX Classes
 90
     4095
 91
        1
280
     0
281
     0
  0
CLASS
  1
MLEADERSTYLE
  2
AcDbMLeaderStyle
  3
ACDB_MLEADERSTYLE_CLASS
 90
     4095
 91
        1
280
     0
281
     0
  0
CLASS
  1
ACDBSECTIONVIEWSTYLE
  2
AcDbSectionViewStyle
  3
ObjectDBX Classes
 90
     1025
 91
        1
280
     0
281
     0
  0
CLASS
  1
ACDBDETAILVIEWSTYLE
  2
AcDbDetailViewStyle
  3
ObjectDBX Classes
 90
     1025
 91
        1
280
     0
281
     0
  0
CLASS
  1
DICTIONARYVAR
  2
AcDbDictionaryVar
  3
ObjectDBX Classes
 90
        0
 91
       45
280
     0
281
     0
  0
CLASS
  1
SORTENTSTABLE
  2
AcDbSortentsTable
  3
ObjectDBX Classes
 90
        0
 91
        1
280
     0
281
     0
  0
CLASS
  1
CELLSTYLEMAP
  2
AcDbCellStyleMap
  3
ObjectDBX Classes
 90
     1152
 91
        1
280
     0
281
     0
  0
ENDSEC
  0
SECTION
  2
TABLES
  0
TABLE
  2
VPORT
  5
8
330
0
100
AcDbSymbolTable
 70
     1
  0
VPORT
  5
74
330
8
100
AcDbSymbolTableRecord
100
AcDbViewportTableRecord
  2
*Active
 70
     0
 10
0.0
 20
0.0
 11
1.0
 21
1.0
 12
179.6228076619445
 22
61.00093582382195
 13
0.0
 23
0.0
 14
1.0
 24
1.0
 15
0.0
 25
0.0
 16
0.0
 26
0.0
 36
1.0
 17
0.0
 27
0.0
 37
0.0
 40
285.6921177546386
 41
1.521097046413502
 42
50.0
 43
0.0
 44
0.0
 50
0.0
 51
0.0
 71
     0
 72
   100
 73
     1
 74
     1
 75
     0
 76
     1
 77
     0
 78
     0
281
     0
 65
     1
110
0.0
120
0.0
130
0.0
111
1.0
121
0.0
131
0.0
112
0.0
122
1.0
132
0.0
 79
     0
146
0.0
348
2F
 60
     3
 61
     5
292
     1
282
     1
141
0.0
142
0.0
 63
   250
421
  3355443
1001
ACAD_NAV_VCDISPLAY
1070
     3
  0
ENDTAB
  0
TABLE
  2
LTYPE
  5
5
330
0
100
AcDbSymbolTable
 70
     2
  0
LTYPE
  5
5A
330
5
100
AcDbSymbolTableRecord
100
AcDbLinetypeTableRecord
  2
ByBlock
 70
     0
  3

 72
    65
 73
     0
 40
0.0
  0
LTYPE
  5
5B
330
5
100
AcDbSymbolTableRecord
100
AcDbLinetypeTableRecord
  2
ByLayer
 70
     0
  3

 72
    65
 73
     0
 40
0.0
  0
LTYPE
  5
5C
330
5
100
AcDbSymbolTableRecord
100
AcDbLinetypeTableRecord
  2
Continuous
 70
     0
  3
Solid line
 72
    65
 73
     0
 40
0.0
  0
ENDTAB
  0
TABLE
  2
LAYER
  5
2
102
{ACAD_XDICTIONARY
360
28E
102
}
330
0
100
AcDbSymbolTable
 70
     1
  0
LAYER
  5
54
102
{ACAD_XDICTIONARY
360
289
102
}
330
2
100
AcDbSymbolTableRecord
100
AcDbLayerTableRecord
  2
0
 70
     0
 62
     7
  6
Continuous
370
    -3
390
F
347
21
348
0
  0
ENDTAB
  0
TABLE
  2
STYLE
  5
3
330
0
100
AcDbSymbolTable
 70
     2
  0
STYLE
  5
55
330
3
100
AcDbSymbolTableRecord
100
AcDbTextStyleTableRecord
  2
Standard
 70
     0
 40
0.0
 41
1.0
 50
0.0
 71
     0
 42
0.2
  3
txt
  4

  0
STYLE
  5
59
330
3
100
AcDbSymbolTableRecord
100
AcDbTextStyleTableRecord
  2
Annotative
 70
     0
 40
0.0
 41
1.0
 50
0.0
 71
     0
 42
0.2
  3
txt
  4

1001
AcadAnnotative
1000
AnnotativeData
1002
{
1070
     1
1070
     1
1002
}
  0
ENDTAB
  0
TABLE
  2
VIEW
  5
6
330
0
100
AcDbSymbolTable
 70
     3
  0
ENDTAB
  0
TABLE
  2
UCS
  5
7
330
0
100
AcDbSymbolTable
 70
     0
  0
ENDTAB
  0
TABLE
  2
APPID
  5
9
330
0
100
AcDbSymbolTable
 70
     5
  0
APPID
  5
56
330
9
100
AcDbSymbolTableRecord
100
AcDbRegAppTableRecord
  2
ACAD
 70
     0
  0
APPID
  5
5D
330
9
100
AcDbSymbolTableRecord
100
AcDbRegAppTableRecord
  2
AcadAnnotative
 70
     0
  0
APPID
  5
25B
330
9
100
AcDbSymbolTableRecord
100
AcDbRegAppTableRecord
  2
ACAD_NAV_VCDISPLAY
 70
     0
  0
APPID
  5
267
330
9
100
AcDbSymbolTableRecord
100
AcDbRegAppTableRecord
  2
ACAD_EXEMPT_FROM_CAD_STANDARDS
 70
     0
  0
APPID
  5
26E
330
9
100
AcDbSymbolTableRecord
100
AcDbRegAppTableRecord
  2
Acad_TC
 70
     0
  0
ENDTAB
  0
TABLE
  2
DIMSTYLE
  5
A
330
0
100
AcDbSymbolTable
 70
     3
100
AcDbDimStyleTable
 71
     1
340
57
  0
DIMSTYLE
105
57
330
A
100
AcDbSymbolTableRecord
100
AcDbDimStyleTableRecord
  2
Standard
 70
     0
340
55
  0
DIMSTYLE
105
58
330
A
100
AcDbSymbolTableRecord
100
AcDbDimStyleTableRecord
  2
Annotative
 70
     0
340
55
1001
AcadAnnotative
1000
AnnotativeData
1002
{
1070
     1
1070
     1
1002
}
  0
ENDTAB
  0
TABLE
  2
BLOCK_RECORD
  5
1
330
0
100
AcDbSymbolTable
 70
     2
  0
BLOCK_RECORD
  5
6F
102
{ACAD_XDICTIONARY
360
323
102
}
330
1
100
AcDbSymbolTableRecord
100
AcDbBlockTableRecord
  2
*Model_Space
340
72
 70
     0
280
     1
281
     0
  0
BLOCK_RECORD
  5
6B
330
1
100
AcDbSymbolTableRecord
100
AcDbBlockTableRecord
  2
*Paper_Space
340
6E
 70
     0
280
     1
281
     0
  0
ENDTAB
  0
ENDSEC
  0
SECTION
  2
BLOCKS
  0
BLOCK
  5
70
330
6F
100
AcDbEntity
  8
0
100
AcDbBlockBegin
  2
*Model_Space
 70
     0
 10
0.0
 20
0.0
 30
0.0
  3
*Model_Space
  1

  0
ENDBLK
  5
71
330
6F
100
AcDbEntity
  8
0
100
AcDbBlockEnd
  0
BLOCK
  5
6C
330
6B
100
AcDbEntity
 67
     1
  8
0
100
AcDbBlockBegin
  2
*Paper_Space
 70
     0
 10
0.0
 20
0.0
 30
0.0
  3
*Paper_Space
  1

  0
ENDBLK
  5
6D
330
6B
100
AcDbEntity
 67
     1
  8
0
100
AcDbBlockEnd
  0
ENDSEC
  0
SECTION
  2
ENTITIES
  0
LINE
  5
79
330
6F
100
AcDbEntity
  8
0
 62
     0
100
AcDbLine
 10
181.117575
 20
27.2511
 30
0.0
 11
181.117575
 21
22.5492
 31
0.0
  0
LINE
  5
7A
330
6F
100
AcDbEntity
  8
0
 62
     0
100
AcDbLine
 10
181.117575
 20
22.5492
 30
0.0
 11
179.593575
 21
22.5492
 31
0.0
  0
LINE
  5
7B
330
6F
100
AcDbEntity
  8
0
 62
     0
100
AcDbLine
 10
179.593575
 20
22.5492
 30
0.0
 11
179.593575
 21
25.7808
 31
0.0
  0
LINE
  5
7C
330
6F
100
AcDbEntity
  8
0
 62
     0
100
AcDbLine
 10
179.593575
 20
25.7808
 30
0.0
 11
172.842575
 21
25.7808
 31
0.0
  0
LINE
  5
7D
330
6F
100
AcDbEntity
  8
0
 62
     0
100
AcDbLine
 10
172.842575
 20
25.7808
 30
0.0
 11
172.842575
 21
22.5492
 31
0.0
  0
LINE
  5
7E
330
6F
100
AcDbEntity
  8
0
 62
     0
100
AcDbLine
 10
172.842575
 20
22.5492
 30
0.0
 11
172.018575
 21
22.5492
 31
0.0
  0
LINE
  5
7F
330
6F
100
AcDbEntity
  8
0
 62
     0
100
AcDbLine
 10
172.018575
 20
22.5492
 30
0.0
 11
172.018575
 21
19.75044
 31
0.0
  0
LINE
  5
80
330
6F
100
AcDbEntity
  8
0
 62
     0
100
AcDbLine
 10
172.018575
 20
19.75044
 30
0.0
 11
172.842575
 21
19.75044
 31
0.0
  0
LINE
  5
81
330
6F
100
AcDbEntity
  8
0
 62
     0
100
AcDbLine
 10
172.842575
 20
19.75044
 30
0.0
 11
172.842575
 21
13.48037
 31
0.0
  0
LINE
  5
82
330
6F
100
AcDbEntity
  8
0
 62
     0
100
AcDbLine
 10
172.842575
 20
13.48037
 30
0.0
 11
174.567575
 21
13.48037
 31
0.0
  0
LINE
  5
83
330
6F
100
AcDbEntity
  8
0
 62
     0
100
AcDbLine
 10
174.567575
 20
13.48037
 30
0.0
 11
174.567575
 21
12.28148
 31
0.0
  0
LINE
  5
84
330
6F
100
AcDbEntity
  8
0
 62
     0
100
AcDbLine
 10
174.567575
 20
12.28148
 30
0.0
 11
177.868575
 21
12.28148
 31
0.0
  0
LINE
  5
85
330
6F
100
AcDbEntity
  8
0
 62
     0
100
AcDbLine
 10
177.868575
 20
12.28148
 30
0.0
 11
177.868575
 21
13.48037
 31
0.0
  0
LINE
  5
86
330
6F
100
AcDbEntity
  8
0
 62
     0
100
AcDbLine
 10
177.868575
 20
13.48037
 30
0.0
 11
179.593575
 21
13.48037
 31
0.0
  0
LINE
  5
87
330
6F
100
AcDbEntity
  8
0
 62
     0
100
AcDbLine
 10
179.593575
 20
13.48037
 30
0.0
 11
179.593575
 21
17.95071
 31
0.0
  0
LINE
  5
88
330
6F
100
AcDbEntity
  8
0
 62
     0
100
AcDbLine
 10
179.593575
 20
17.95071
 30
0.0
 11
181.117575
 21
17.95071
 31
0.0
  0
LINE
  5
89
330
6F
100
AcDbEntity
  8
0
 62
     0
100
AcDbLine
 10
181.117575
 20
17.95071
 30
0.0
 11
181.117575
 21
13.25024
 31
0.0
  0
LINE
  5
8A
330
6F
100
AcDbEntity
  8
0
 62
     0
100
AcDbLine
 10
181.117575
 20
13.25024
 30
0.0
 11
195.118575
 21
13.25024
 31
0.0
  0
LINE
  5
8B
330
6F
100
AcDbEntity
  8
0
 62
     0
100
AcDbLine
 10
195.118575
 20
13.25024
 30
0.0
 11
195.118575
 21
17.95071
 31
0.0
  0
LINE
  5
8C
330
6F
100
AcDbEntity
  8
0
 62
     0
100
AcDbLine
 10
195.118575
 20
17.95071
 30
0.0
 11
196.642575
 21
17.95071
 31
0.0
  0
LINE
  5
8D
330
6F
100
AcDbEntity
  8
0
 62
     0
100
AcDbLine
 10
196.642575
 20
17.95071
 30
0.0
 11
196.642575
 21
13.48037
 31
0.0
  0
LINE
  5
8E
330
6F
100
AcDbEntity
  8
0
 62
     0
100
AcDbLine
 10
196.642575
 20
13.48037
 30
0.0
 11
198.367575
 21
13.48037
 31
0.0
  0
LINE
  5
8F
330
6F
100
AcDbEntity
  8
0
 62
     0
100
AcDbLine
 10
198.367575
 20
13.48037
 30
0.0
 11
198.367575
 21
12.28148
 31
0.0
  0
LINE
  5
90
330
6F
100
AcDbEntity
  8
0
 62
     0
100
AcDbLine
 10
198.367575
 20
12.28148
 30
0.0
 11
201.668575
 21
12.28148
 31
0.0
  0
LINE
  5
91
330
6F
100
AcDbEntity
  8
0
 62
     0
100
AcDbLine
 10
201.668575
 20
12.28148
 30
0.0
 11
201.668575
 21
13.48037
 31
0.0
  0
LINE
  5
92
330
6F
100
AcDbEntity
  8
0
 62
     0
100
AcDbLine
 10
201.668575
 20
13.48037
 30
0.0
 11
203.393575
 21
13.48037
 31
0.0
  0
LINE
  5
93
330
6F
100
AcDbEntity
  8
0
 62
     0
100
AcDbLine
 10
203.393575
 20
13.48037
 30
0.0
 11
203.393575
 21
19.75044
 31
0.0
  0
LINE
  5
94
330
6F
100
AcDbEntity
  8
0
 62
     0
100
AcDbLine
 10
203.393575
 20
19.75044
 30
0.0
 11
204.217575
 21
19.75044
 31
0.0
  0
LINE
  5
95
330
6F
100
AcDbEntity
  8
0
 62
     0
100
AcDbLine
 10
204.217575
 20
19.75044
 30
0.0
 11
204.217575
 21
22.5492
 31
0.0
  0
LINE
  5
96
330
6F
100
AcDbEntity
  8
0
 62
     0
100
AcDbLine
 10
204.217575
 20
22.5492
 30
0.0
 11
203.393575
 21
22.5492
 31
0.0
  0
LINE
  5
97
330
6F
100
AcDbEntity
  8
0
 62
     0
100
AcDbLine
 10
203.393575
 20
22.5492
 30
0.0
 11
203.393575
 21
25.7808
 31
0.0
  0
LINE
  5
98
330
6F
100
AcDbEntity
  8
0
 62
     0
100
AcDbLine
 10
203.393575
 20
25.7808
 30
0.0
 11
196.642575
 21
25.7808
 31
0.0
  0
LINE
  5
99
330
6F
100
AcDbEntity
  8
0
 62
     0
100
AcDbLine
 10
196.642575
 20
25.7808
 30
0.0
 11
196.642575
 21
22.5492
 31
0.0
  0
LINE
  5
9A
330
6F
100
AcDbEntity
  8
0
 62
     0
100
AcDbLine
 10
196.642575
 20
22.5492
 30
0.0
 11
195.118575
 21
22.5492
 31
0.0
  0
LINE
  5
9B
330
6F
100
AcDbEntity
  8
0
 62
     0
100
AcDbLine
 10
195.118575
 20
22.5492
 30
0.0
 11
195.118575
 21
27.2511
 31
0.0
  0
LINE
  5
9C
330
6F
100
AcDbEntity
  8
0
 62
     0
100
AcDbLine
 10
195.118575
 20
27.2511
 30
0.0
 11
181.117575
 21
27.2511
 31
0.0
  0
LINE
  5
9D
330
6F
100
AcDbEntity
  8
0
 62
     0
100
AcDbLine
 10
133.492575
 20
27.2511
 30
0.0
 11
133.492575
 21
22.5492
 31
0.0
  0
LINE
  5
9E
330
6F
100
AcDbEntity
  8
0
 62
     0
100
AcDbLine
 10
133.492575
 20
22.5492
 30
0.0
 11
131.968575
 21
22.5492
 31
0.0
  0
LINE
  5
9F
330
6F
100
AcDbEntity
  8
0
 62
     0
100
AcDbLine
 10
131.968575
 20
22.5492
 30
0.0
 11
131.968575
 21
25.7808
 31
0.0
  0
LINE
  5
A0
330
6F
100
AcDbEntity
  8
0
 62
     0
100
AcDbLine
 10
131.968575
 20
25.7808
 30
0.0
 11
125.217575
 21
25.7808
 31
0.0
  0
LINE
  5
A1
330
6F
100
AcDbEntity
  8
0
 62
     0
100
AcDbLine
 10
125.217575
 20
25.7808
 30
0.0
 11
125.217575
 21
22.5492
 31
0.0
  0
LINE
  5
A2
330
6F
100
AcDbEntity
  8
0
 62
     0
100
AcDbLine
 10
125.217575
 20
22.5492
 30
0.0
 11
124.393575
 21
22.5492
 31
0.0
  0
LINE
  5
A3
330
6F
100
AcDbEntity
  8
0
 62
     0
100
AcDbLine
 10
124.393575
 20
22.5492
 30
0.0
 11
124.393575
 21
19.75044
 31
0.0
  0
LINE
  5
A4
330
6F
100
AcDbEntity
  8
0
 62
     0
100
AcDbLine
 10
124.393575
 20
19.75044
 30
0.0
 11
125.217575
 21
19.75044
 31
0.0
  0
LINE
  5
A5
330
6F
100
AcDbEntity
  8
0
 62
     0
100
AcDbLine
 10
125.217575
 20
19.75044
 30
0.0
 11
125.217575
 21
13.48037
 31
0.0
  0
LINE
  5
A6
330
6F
100
AcDbEntity
  8
0
 62
     0
100
AcDbLine
 10
125.217575
 20
13.48037
 30
0.0
 11
126.942575
 21
13.48037
 31
0.0
  0
LINE
  5
A7
330
6F
100
AcDbEntity
  8
0
 62
     0
100
AcDbLine
 10
126.942575
 20
13.48037
 30
0.0
 11
126.942575
 21
12.28148
 31
0.0
  0
LINE
  5
A8
330
6F
100
AcDbEntity
  8
0
 62
     0
100
AcDbLine
 10
126.942575
 20
12.28148
 30
0.0
 11
130.243575
 21
12.28148
 31
0.0
  0
LINE
  5
A9
330
6F
100
AcDbEntity
  8
0
 62
     0
100
AcDbLine
 10
130.243575
 20
12.28148
 30
0.0
 11
130.243575
 21
13.48037
 31
0.0
  0
LINE
  5
AA
330
6F
100
AcDbEntity
  8
0
 62
     0
100
AcDbLine
 10
130.243575
 20
13.48037
 30
0.0
 11
131.968575
 21
13.48037
 31
0.0
  0
LINE
  5
AB
330
6F
100
AcDbEntity
  8
0
 62
     0
100
AcDbLine
 10
131.968575
 20
13.48037
 30
0.0
 11
131.968575
 21
17.95071
 31
0.0
  0
LINE
  5
AC
330
6F
100
AcDbEntity
  8
0
 62
     0
100
AcDbLine
 10
131.968575
 20
17.95071
 30
0.0
 11
133.492575
 21
17.95071
 31
0.0
  0
LINE
  5
AD
330
6F
100
AcDbEntity
  8
0
 62
     0
100
AcDbLine
 10
133.492575
 20
17.95071
 30
0.0
 11
133.492575
 21
13.25024
 31
0.0
  0
LINE
  5
AE
330
6F
100
AcDbEntity
  8
0
 62
     0
100
AcDbLine
 10
133.492575
 20
13.25024
 30
0.0
 11
147.493575
 21
13.25024
 31
0.0
  0
LINE
  5
AF
330
6F
100
AcDbEntity
  8
0
 62
     0
100
AcDbLine
 10
147.493575
 20
13.25024
 30
0.0
 11
147.493575
 21
17.95071
 31
0.0
  0
LINE
  5
B0
330
6F
100
AcDbEntity
  8
0
 62
     0
100
AcDbLine
 10
147.493575
 20
17.95071
 30
0.0
 11
149.017575
 21
17.95071
 31
0.0
  0
LINE
  5
B1
330
6F
100
AcDbEntity
  8
0
 62
     0
100
AcDbLine
 10
149.017575
 20
17.95071
 30
0.0
 11
149.017575
 21
13.48037
 31
0.0
  0
LINE
  5
B2
330
6F
100
AcDbEntity
  8
0
 62
     0
100
AcDbLine
 10
149.017575
 20
13.48037
 30
0.0
 11
150.742575
 21
13.48037
 31
0.0
  0
LINE
  5
B3
330
6F
100
AcDbEntity
  8
0
 62
     0
100
AcDbLine
 10
150.742575
 20
13.48037
 30
0.0
 11
150.742575
 21
12.28148
 31
0.0
  0
LINE
  5
B4
330
6F
100
AcDbEntity
  8
0
 62
     0
100
AcDbLine
 10
150.742575
 20
12.28148
 30
0.0
 11
154.043575
 21
12.28148
 31
0.0
  0
LINE
  5
B5
330
6F
100
AcDbEntity
  8
0
 62
     0
100
AcDbLine
 10
154.043575
 20
12.28148
 30
0.0
 11
154.043575
 21
13.48037
 31
0.0
  0
LINE
  5
B6
330
6F
100
AcDbEntity
  8
0
 62
     0
100
AcDbLine
 10
154.043575
 20
13.48037
 30
0.0
 11
155.768575
 21
13.48037
 31
0.0
  0
LINE
  5
B7
330
6F
100
AcDbEntity
  8
0
 62
     0
100
AcDbLine
 10
155.768575
 20
13.48037
 30
0.0
 11
155.768575
 21
19.75044
 31
0.0
  0
LINE
  5
B8
330
6F
100
AcDbEntity
  8
0
 62
     0
100
AcDbLine
 10
155.768575
 20
19.75044
 30
0.0
 11
156.592575
 21
19.75044
 31
0.0
  0
LINE
  5
B9
330
6F
100
AcDbEntity
  8
0
 62
     0
100
AcDbLine
 10
156.592575
 20
19.75044
 30
0.0
 11
156.592575
 21
22.5492
 31
0.0
  0
LINE
  5
BA
330
6F
100
AcDbEntity
  8
0
 62
     0
100
AcDbLine
 10
156.592575
 20
22.5492
 30
0.0
 11
155.768575
 21
22.5492
 31
0.0
  0
LINE
  5
BB
330
6F
100
AcDbEntity
  8
0
 62
     0
100
AcDbLine
 10
155.768575
 20
22.5492
 30
0.0
 11
155.768575
 21
25.7808
 31
0.0
  0
LINE
  5
BC
330
6F
100
AcDbEntity
  8
0
 62
     0
100
AcDbLine
 10
155.768575
 20
25.7808
 30
0.0
 11
149.017575
 21
25.7808
 31
0.0
  0
LINE
  5
BD
330
6F
100
AcDbEntity
  8
0
 62
     0
100
AcDbLine
 10
149.017575
 20
25.7808
 30
0.0
 11
149.017575
 21
22.5492
 31
0.0
  0
LINE
  5
BE
330
6F
100
AcDbEntity
  8
0
 62
     0
100
AcDbLine
 10
149.017575
 20
22.5492
 30
0.0
 11
147.493575
 21
22.5492
 31
0.0
  0
LINE
  5
BF
330
6F
100
AcDbEntity
  8
0
 62
     0
100
AcDbLine
 10
147.493575
 20
22.5492
 30
0.0
 11
147.493575
 21
27.2511
 31
0.0
  0
LINE
  5
C0
330
6F
100
AcDbEntity
  8
0
 62
     0
100
AcDbLine
 10
147.493575
 20
27.2511
 30
0.0
 11
133.492575
 21
27.2511
 31
0.0
  0
LINE
  5
C1
330
6F
100
AcDbEntity
  8
0
 62
     0
100
AcDbLine
 10
321.6125750000001
 20
27.2511
 30
0.0
 11
335.612575
 21
27.2511
 31
0.0
  0
LINE
  5
C2
330
6F
100
AcDbEntity
  8
0
 62
     0
100
AcDbLine
 10
335.612575
 20
27.2511
 30
0.0
 11
335.612575
 21
13.25024
 31
0.0
  0
LINE
  5
C3
330
6F
100
AcDbEntity
  8
0
 62
     0
100
AcDbLine
 10
335.612575
 20
13.25024
 30
0.0
 11
321.6125750000001
 21
13.25024
 31
0.0
  0
LINE
  5
C4
330
6F
100
AcDbEntity
  8
0
 62
     0
100
AcDbLine
 10
321.6125750000001
 20
13.25024
 30
0.0
 11
321.6125750000001
 21
27.2511
 31
0.0
  0
LINE
  5
C5
330
6F
100
AcDbEntity
  8
0
 62
     0
100
AcDbLine
 10
302.5625750000001
 20
27.2511
 30
0.0
 11
316.562575
 21
27.2511
 31
0.0
  0
LINE
  5
C6
330
6F
100
AcDbEntity
  8
0
 62
     0
100
AcDbLine
 10
316.562575
 20
27.2511
 30
0.0
 11
316.562575
 21
13.25024
 31
0.0
  0
LINE
  5
C7
330
6F
100
AcDbEntity
  8
0
 62
     0
100
AcDbLine
 10
316.562575
 20
13.25024
 30
0.0
 11
302.5625750000001
 21
13.25024
 31
0.0
  0
LINE
  5
C8
330
6F
100
AcDbEntity
  8
0
 62
     0
100
AcDbLine
 10
302.5625750000001
 20
13.25024
 30
0.0
 11
302.5625750000001
 21
27.2511
 31
0.0
  0
LINE
  5
C9
330
6F
100
AcDbEntity
  8
0
 62
     0
100
AcDbLine
 10
283.512575
 20
27.2511
 30
0.0
 11
297.512575
 21
27.2511
 31
0.0
  0
LINE
  5
CA
330
6F
100
AcDbEntity
  8
0
 62
     0
100
AcDbLine
 10
297.512575
 20
27.2511
 30
0.0
 11
297.512575
 21
13.25024
 31
0.0
  0
LINE
  5
CB
330
6F
100
AcDbEntity
  8
0
 62
     0
100
AcDbLine
 10
297.512575
 20
13.25024
 30
0.0
 11
283.512575
 21
13.25024
 31
0.0
  0
LINE
  5
CC
330
6F
100
AcDbEntity
  8
0
 62
     0
100
AcDbLine
 10
283.512575
 20
13.25024
 30
0.0
 11
283.512575
 21
27.2511
 31
0.0
  0
LINE
  5
CD
330
6F
100
AcDbEntity
  8
0
 62
     0
100
AcDbLine
 10
235.887575
 20
27.2511
 30
0.0
 11
249.887575
 21
27.2511
 31
0.0
  0
LINE
  5
CE
330
6F
100
AcDbEntity
  8
0
 62
     0
100
AcDbLine
 10
249.887575
 20
27.2511
 30
0.0
 11
249.887575
 21
13.25024
 31
0.0
  0
LINE
  5
CF
330
6F
100
AcDbEntity
  8
0
 62
     0
100
AcDbLine
 10
249.887575
 20
13.25024
 30
0.0
 11
235.887575
 21
13.25024
 31
0.0
  0
LINE
  5
D0
330
6F
100
AcDbEntity
  8
0
 62
     0
100
AcDbLine
 10
235.887575
 20
13.25024
 30
0.0
 11
235.887575
 21
27.2511
 31
0.0
  0
LINE
  5
D1
330
6F
100
AcDbEntity
  8
0
 62
     0
100
AcDbLine
 10
214.456575
 20
27.2511
 30
0.0
 11
228.455575
 21
27.2511
 31
0.0
  0
LINE
  5
D2
330
6F
100
AcDbEntity
  8
0
 62
     0
100
AcDbLine
 10
228.455575
 20
27.2511
 30
0.0
 11
228.455575
 21
13.25024
 31
0.0
  0
LINE
  5
D3
330
6F
100
AcDbEntity
  8
0
 62
     0
100
AcDbLine
 10
228.455575
 20
13.25024
 30
0.0
 11
214.456575
 21
13.25024
 31
0.0
  0
LINE
  5
D4
330
6F
100
AcDbEntity
  8
0
 62
     0
100
AcDbLine
 10
214.456575
 20
13.25024
 30
0.0
 11
214.456575
 21
27.2511
 31
0.0
  0
LINE
  5
D5
330
6F
100
AcDbEntity
  8
0
 62
     0
100
AcDbLine
 10
95.39267500000001
 20
27.2511
 30
0.0
 11
109.393375
 21
27.2511
 31
0.0
  0
LINE
  5
D6
330
6F
100
AcDbEntity
  8
0
 62
     0
100
AcDbLine
 10
109.393375
 20
27.2511
 30
0.0
 11
109.393375
 21
13.25024
 31
0.0
  0
LINE
  5
D7
330
6F
100
AcDbEntity
  8
0
 62
     0
100
AcDbLine
 10
109.393375
 20
13.25024
 30
0.0
 11
95.39267500000001
 21
13.25024
 31
0.0
  0
LINE
  5
D8
330
6F
100
AcDbEntity
  8
0
 62
     0
100
AcDbLine
 10
95.39267500000001
 20
13.25024
 30
0.0
 11
95.39267500000001
 21
27.2511
 31
0.0
  0
LINE
  5
D9
330
6F
100
AcDbEntity
  8
0
 62
     0
100
AcDbLine
 10
73.962775
 20
27.2511
 30
0.0
 11
87.96207499999999
 21
27.2511
 31
0.0
  0
LINE
  5
DA
330
6F
100
AcDbEntity
  8
0
 62
     0
100
AcDbLine
 10
87.96207499999999
 20
27.2511
 30
0.0
 11
87.96207499999999
 21
13.25024
 31
0.0
  0
LINE
  5
DB
330
6F
100
AcDbEntity
  8
0
 62
     0
100
AcDbLine
 10
87.96207499999999
 20
13.25024
 30
0.0
 11
73.962775
 21
13.25024
 31
0.0
  0
LINE
  5
DC
330
6F
100
AcDbEntity
  8
0
 62
     0
100
AcDbLine
 10
73.962775
 20
13.25024
 30
0.0
 11
73.962775
 21
27.2511
 31
0.0
  0
LINE
  5
DD
330
6F
100
AcDbEntity
  8
0
 62
     0
100
AcDbLine
 10
54.91277500000001
 20
27.2511
 30
0.0
 11
68.912075
 21
27.2511
 31
0.0
  0
LINE
  5
DE
330
6F
100
AcDbEntity
  8
0
 62
     0
100
AcDbLine
 10
68.912075
 20
27.2511
 30
0.0
 11
68.912075
 21
13.25024
 31
0.0
  0
LINE
  5
DF
330
6F
100
AcDbEntity
  8
0
 62
     0
100
AcDbLine
 10
68.912075
 20
13.25024
 30
0.0
 11
54.91277500000001
 21
13.25024
 31
0.0
  0
LINE
  5
E0
330
6F
100
AcDbEntity
  8
0
 62
     0
100
AcDbLine
 10
54.91277500000001
 20
13.25024
 30
0.0
 11
54.91277500000001
 21
27.2511
 31
0.0
  0
LINE
  5
E1
330
6F
100
AcDbEntity
  8
0
 62
     0
100
AcDbLine
 10
35.86277500000001
 20
27.2511
 30
0.0
 11
49.862075
 21
27.2511
 31
0.0
  0
LINE
  5
E2
330
6F
100
AcDbEntity
  8
0
 62
     0
100
AcDbLine
 10
49.862075
 20
27.2511
 30
0.0
 11
49.862075
 21
13.25024
 31
0.0
  0
LINE
  5
E3
330
6F
100
AcDbEntity
  8
0
 62
     0
100
AcDbLine
 10
49.862075
 20
13.25024
 30
0.0
 11
35.86277500000001
 21
13.25024
 31
0.0
  0
LINE
  5
E4
330
6F
100
AcDbEntity
  8
0
 62
     0
100
AcDbLine
 10
35.86277500000001
 20
13.25024
 30
0.0
 11
35.86277500000001
 21
27.2511
 31
0.0
  0
LINE
  5
E5
330
6F
100
AcDbEntity
  8
0
 62
     0
100
AcDbLine
 10
302.5625750000001
 20
46.29959999999999
 30
0.0
 11
316.562575
 21
46.29959999999999
 31
0.0
  0
LINE
  5
E6
330
6F
100
AcDbEntity
  8
0
 62
     0
100
AcDbLine
 10
316.562575
 20
46.29959999999999
 30
0.0
 11
316.562575
 21
32.30020000000001
 31
0.0
  0
LINE
  5
E7
330
6F
100
AcDbEntity
  8
0
 62
     0
100
AcDbLine
 10
316.562575
 20
32.30020000000001
 30
0.0
 11
302.5625750000001
 21
32.30020000000001
 31
0.0
  0
LINE
  5
E8
330
6F
100
AcDbEntity
  8
0
 62
     0
100
AcDbLine
 10
302.5625750000001
 20
32.30020000000001
 30
0.0
 11
302.5625750000001
 21
46.29959999999999
 31
0.0
  0
LINE
  5
E9
330
6F
100
AcDbEntity
  8
0
 62
     0
100
AcDbLine
 10
276.367575
 20
46.29959999999999
 30
0.0
 11
290.368575
 21
46.29959999999999
 31
0.0
  0
LINE
  5
EA
330
6F
100
AcDbEntity
  8
0
 62
     0
100
AcDbLine
 10
290.368575
 20
46.29959999999999
 30
0.0
 11
290.368575
 21
32.30020000000001
 31
0.0
  0
LINE
  5
EB
330
6F
100
AcDbEntity
  8
0
 62
     0
100
AcDbLine
 10
290.368575
 20
32.30020000000001
 30
0.0
 11
276.367575
 21
32.30020000000001
 31
0.0
  0
LINE
  5
EC
330
6F
100
AcDbEntity
  8
0
 62
     0
100
AcDbLine
 10
276.367575
 20
32.30020000000001
 30
0.0
 11
276.367575
 21
46.29959999999999
 31
0.0
  0
LINE
  5
ED
330
6F
100
AcDbEntity
  8
0
 62
     0
100
AcDbLine
 10
250.175575
 20
46.29959999999999
 30
0.0
 11
264.1745750000001
 21
46.29959999999999
 31
0.0
  0
LINE
  5
EE
330
6F
100
AcDbEntity
  8
0
 62
     0
100
AcDbLine
 10
264.1745750000001
 20
46.29959999999999
 30
0.0
 11
264.1745750000001
 21
32.30020000000001
 31
0.0
  0
LINE
  5
EF
330
6F
100
AcDbEntity
  8
0
 62
     0
100
AcDbLine
 10
264.1745750000001
 20
32.30020000000001
 30
0.0
 11
250.175575
 21
32.30020000000001
 31
0.0
  0
LINE
  5
F0
330
6F
100
AcDbEntity
  8
0
 62
     0
100
AcDbLine
 10
250.175575
 20
32.30020000000001
 30
0.0
 11
250.175575
 21
46.29959999999999
 31
0.0
  0
LINE
  5
F1
330
6F
100
AcDbEntity
  8
0
 62
     0
100
AcDbLine
 10
231.125575
 20
46.29959999999999
 30
0.0
 11
245.124575
 21
46.29959999999999
 31
0.0
  0
LINE
  5
F2
330
6F
100
AcDbEntity
  8
0
 62
     0
100
AcDbLine
 10
245.124575
 20
46.29959999999999
 30
0.0
 11
245.124575
 21
32.30020000000001
 31
0.0
  0
LINE
  5
F3
330
6F
100
AcDbEntity
  8
0
 62
     0
100
AcDbLine
 10
245.124575
 20
32.30020000000001
 30
0.0
 11
231.125575
 21
32.30020000000001
 31
0.0
  0
LINE
  5
F4
330
6F
100
AcDbEntity
  8
0
 62
     0
100
AcDbLine
 10
231.125575
 20
32.30020000000001
 30
0.0
 11
231.125575
 21
46.29959999999999
 31
0.0
  0
LINE
  5
F5
330
6F
100
AcDbEntity
  8
0
 62
     0
100
AcDbLine
 10
212.075575
 20
46.29959999999999
 30
0.0
 11
226.074575
 21
46.29959999999999
 31
0.0
  0
LINE
  5
F6
330
6F
100
AcDbEntity
  8
0
 62
     0
100
AcDbLine
 10
226.074575
 20
46.29959999999999
 30
0.0
 11
226.074575
 21
32.30020000000001
 31
0.0
  0
LINE
  5
F7
330
6F
100
AcDbEntity
  8
0
 62
     0
100
AcDbLine
 10
226.074575
 20
32.30020000000001
 30
0.0
 11
212.075575
 21
32.30020000000001
 31
0.0
  0
LINE
  5
F8
330
6F
100
AcDbEntity
  8
0
 62
     0
100
AcDbLine
 10
212.075575
 20
32.30020000000001
 30
0.0
 11
212.075575
 21
46.29959999999999
 31
0.0
  0
LINE
  5
F9
330
6F
100
AcDbEntity
  8
0
 62
     0
100
AcDbLine
 10
193.025575
 20
46.29959999999999
 30
0.0
 11
207.024575
 21
46.29959999999999
 31
0.0
  0
LINE
  5
FA
330
6F
100
AcDbEntity
  8
0
 62
     0
100
AcDbLine
 10
207.024575
 20
46.29959999999999
 30
0.0
 11
207.024575
 21
32.30020000000001
 31
0.0
  0
LINE
  5
FB
330
6F
100
AcDbEntity
  8
0
 62
     0
100
AcDbLine
 10
207.024575
 20
32.30020000000001
 30
0.0
 11
193.025575
 21
32.30020000000001
 31
0.0
  0
LINE
  5
FC
330
6F
100
AcDbEntity
  8
0
 62
     0
100
AcDbLine
 10
193.025575
 20
32.30020000000001
 30
0.0
 11
193.025575
 21
46.29959999999999
 31
0.0
  0
LINE
  5
FD
330
6F
100
AcDbEntity
  8
0
 62
     0
100
AcDbLine
 10
173.975575
 20
46.29959999999999
 30
0.0
 11
187.974575
 21
46.29959999999999
 31
0.0
  0
LINE
  5
FE
330
6F
100
AcDbEntity
  8
0
 62
     0
100
AcDbLine
 10
187.974575
 20
46.29959999999999
 30
0.0
 11
187.974575
 21
32.30020000000001
 31
0.0
  0
LINE
  5
FF
330
6F
100
AcDbEntity
  8
0
 62
     0
100
AcDbLine
 10
187.974575
 20
32.30020000000001
 30
0.0
 11
173.975575
 21
32.30020000000001
 31
0.0
  0
LINE
  5
100
330
6F
100
AcDbEntity
  8
0
 62
     0
100
AcDbLine
 10
173.975575
 20
32.30020000000001
 30
0.0
 11
173.975575
 21
46.29959999999999
 31
0.0
  0
LINE
  5
101
330
6F
100
AcDbEntity
  8
0
 62
     0
100
AcDbLine
 10
154.925575
 20
46.29959999999999
 30
0.0
 11
168.924575
 21
46.29959999999999
 31
0.0
  0
LINE
  5
102
330
6F
100
AcDbEntity
  8
0
 62
     0
100
AcDbLine
 10
168.924575
 20
46.29959999999999
 30
0.0
 11
168.924575
 21
32.30020000000001
 31
0.0
  0
LINE
  5
103
330
6F
100
AcDbEntity
  8
0
 62
     0
100
AcDbLine
 10
168.924575
 20
32.30020000000001
 30
0.0
 11
154.925575
 21
32.30020000000001
 31
0.0
  0
LINE
  5
104
330
6F
100
AcDbEntity
  8
0
 62
     0
100
AcDbLine
 10
154.925575
 20
32.30020000000001
 30
0.0
 11
154.925575
 21
46.29959999999999
 31
0.0
  0
LINE
  5
105
330
6F
100
AcDbEntity
  8
0
 62
     0
100
AcDbLine
 10
135.875575
 20
46.29959999999999
 30
0.0
 11
149.874575
 21
46.29959999999999
 31
0.0
  0
LINE
  5
106
330
6F
100
AcDbEntity
  8
0
 62
     0
100
AcDbLine
 10
149.874575
 20
46.29959999999999
 30
0.0
 11
149.874575
 21
32.30020000000001
 31
0.0
  0
LINE
  5
107
330
6F
100
AcDbEntity
  8
0
 62
     0
100
AcDbLine
 10
149.874575
 20
32.30020000000001
 30
0.0
 11
135.875575
 21
32.30020000000001
 31
0.0
  0
LINE
  5
108
330
6F
100
AcDbEntity
  8
0
 62
     0
100
AcDbLine
 10
135.875575
 20
32.30020000000001
 30
0.0
 11
135.875575
 21
46.29959999999999
 31
0.0
  0
LINE
  5
109
330
6F
100
AcDbEntity
  8
0
 62
     0
100
AcDbLine
 10
116.825575
 20
46.29959999999999
 30
0.0
 11
130.824575
 21
46.29959999999999
 31
0.0
  0
LINE
  5
10A
330
6F
100
AcDbEntity
  8
0
 62
     0
100
AcDbLine
 10
130.824575
 20
46.29959999999999
 30
0.0
 11
130.824575
 21
32.30020000000001
 31
0.0
  0
LINE
  5
10B
330
6F
100
AcDbEntity
  8
0
 62
     0
100
AcDbLine
 10
130.824575
 20
32.30020000000001
 30
0.0
 11
116.825575
 21
32.30020000000001
 31
0.0
  0
LINE
  5
10C
330
6F
100
AcDbEntity
  8
0
 62
     0
100
AcDbLine
 10
116.825575
 20
32.30020000000001
 30
0.0
 11
116.825575
 21
46.29959999999999
 31
0.0
  0
LINE
  5
10D
330
6F
100
AcDbEntity
  8
0
 62
     0
100
AcDbLine
 10
97.77527500000001
 20
46.29959999999999
 30
0.0
 11
111.774575
 21
46.29959999999999
 31
0.0
  0
LINE
  5
10E
330
6F
100
AcDbEntity
  8
0
 62
     0
100
AcDbLine
 10
111.774575
 20
46.29959999999999
 30
0.0
 11
111.774575
 21
32.30020000000001
 31
0.0
  0
LINE
  5
10F
330
6F
100
AcDbEntity
  8
0
 62
     0
100
AcDbLine
 10
111.774575
 20
32.30020000000001
 30
0.0
 11
97.77527500000001
 21
32.30020000000001
 31
0.0
  0
LINE
  5
110
330
6F
100
AcDbEntity
  8
0
 62
     0
100
AcDbLine
 10
97.77527500000001
 20
32.30020000000001
 30
0.0
 11
97.77527500000001
 21
46.29959999999999
 31
0.0
  0
LINE
  5
111
330
6F
100
AcDbEntity
  8
0
 62
     0
100
AcDbLine
 10
78.72527500000001
 20
46.29959999999999
 30
0.0
 11
92.72457499999999
 21
46.29959999999999
 31
0.0
  0
LINE
  5
112
330
6F
100
AcDbEntity
  8
0
 62
     0
100
AcDbLine
 10
92.72457499999999
 20
46.29959999999999
 30
0.0
 11
92.72457499999999
 21
32.30020000000001
 31
0.0
  0
LINE
  5
113
330
6F
100
AcDbEntity
  8
0
 62
     0
100
AcDbLine
 10
92.72457499999999
 20
32.30020000000001
 30
0.0
 11
78.72527500000001
 21
32.30020000000001
 31
0.0
  0
LINE
  5
114
330
6F
100
AcDbEntity
  8
0
 62
     0
100
AcDbLine
 10
78.72527500000001
 20
32.30020000000001
 30
0.0
 11
78.72527500000001
 21
46.29959999999999
 31
0.0
  0
LINE
  5
115
330
6F
100
AcDbEntity
  8
0
 62
     0
100
AcDbLine
 10
59.67527500000001
 20
46.29959999999999
 30
0.0
 11
73.674575
 21
46.29959999999999
 31
0.0
  0
LINE
  5
116
330
6F
100
AcDbEntity
  8
0
 62
     0
100
AcDbLine
 10
73.674575
 20
46.29959999999999
 30
0.0
 11
73.674575
 21
32.30020000000001
 31
0.0
  0
LINE
  5
117
330
6F
100
AcDbEntity
  8
0
 62
     0
100
AcDbLine
 10
73.674575
 20
32.30020000000001
 30
0.0
 11
59.67527500000001
 21
32.30020000000001
 31
0.0
  0
LINE
  5
118
330
6F
100
AcDbEntity
  8
0
 62
     0
100
AcDbLine
 10
59.67527500000001
 20
32.30020000000001
 30
0.0
 11
59.67527500000001
 21
46.29959999999999
 31
0.0
  0
LINE
  5
119
330
6F
100
AcDbEntity
  8
0
 62
     0
100
AcDbLine
 10
38.242575
 20
46.29959999999999
 30
0.0
 11
52.24337500000001
 21
46.29959999999999
 31
0.0
  0
LINE
  5
11A
330
6F
100
AcDbEntity
  8
0
 62
     0
100
AcDbLine
 10
52.24337500000001
 20
46.29959999999999
 30
0.0
 11
52.24337500000001
 21
32.30020000000001
 31
0.0
  0
LINE
  5
11B
330
6F
100
AcDbEntity
  8
0
 62
     0
100
AcDbLine
 10
52.24337500000001
 20
32.30020000000001
 30
0.0
 11
38.242575
 21
32.30020000000001
 31
0.0
  0
LINE
  5
11C
330
6F
100
AcDbEntity
  8
0
 62
     0
100
AcDbLine
 10
38.242575
 20
32.30020000000001
 30
0.0
 11
38.242575
 21
46.29959999999999
 31
0.0
  0
LINE
  5
11D
330
6F
100
AcDbEntity
  8
0
 62
     0
100
AcDbLine
 10
12.05022500000001
 20
46.29959999999999
 30
0.0
 11
26.04977500000001
 21
46.29959999999999
 31
0.0
  0
LINE
  5
11E
330
6F
100
AcDbEntity
  8
0
 62
     0
100
AcDbLine
 10
26.04977500000001
 20
46.29959999999999
 30
0.0
 11
26.04977500000001
 21
32.30020000000001
 31
0.0
  0
LINE
  5
11F
330
6F
100
AcDbEntity
  8
0
 62
     0
100
AcDbLine
 10
26.04977500000001
 20
32.30020000000001
 30
0.0
 11
12.05022500000001
 21
32.30020000000001
 31
0.0
  0
LINE
  5
120
330
6F
100
AcDbEntity
  8
0
 62
     0
100
AcDbLine
 10
12.05022500000001
 20
32.30020000000001
 30
0.0
 11
12.05022500000001
 21
46.29959999999999
 31
0.0
  0
LINE
  5
121
330
6F
100
AcDbEntity
  8
0
 62
     0
100
AcDbLine
 10
326.375575
 20
65.3497
 30
0.0
 11
340.3745750000001
 21
65.3497
 31
0.0
  0
LINE
  5
122
330
6F
100
AcDbEntity
  8
0
 62
     0
100
AcDbLine
 10
340.3745750000001
 20
65.3497
 30
0.0
 11
340.3745750000001
 21
51.3504
 31
0.0
  0
LINE
  5
123
330
6F
100
AcDbEntity
  8
0
 62
     0
100
AcDbLine
 10
340.3745750000001
 20
51.3504
 30
0.0
 11
326.375575
 21
51.3504
 31
0.0
  0
LINE
  5
124
330
6F
100
AcDbEntity
  8
0
 62
     0
100
AcDbLine
 10
326.375575
 20
51.3504
 30
0.0
 11
326.375575
 21
65.3497
 31
0.0
  0
LINE
  5
125
330
6F
100
AcDbEntity
  8
0
 62
     0
100
AcDbLine
 10
278.750575
 20
65.3497
 30
0.0
 11
292.7495750000001
 21
65.3497
 31
0.0
  0
LINE
  5
126
330
6F
100
AcDbEntity
  8
0
 62
     0
100
AcDbLine
 10
292.7495750000001
 20
65.3497
 30
0.0
 11
292.7495750000001
 21
51.3504
 31
0.0
  0
LINE
  5
127
330
6F
100
AcDbEntity
  8
0
 62
     0
100
AcDbLine
 10
292.7495750000001
 20
51.3504
 30
0.0
 11
278.750575
 21
51.3504
 31
0.0
  0
LINE
  5
128
330
6F
100
AcDbEntity
  8
0
 62
     0
100
AcDbLine
 10
278.750575
 20
51.3504
 30
0.0
 11
278.750575
 21
65.3497
 31
0.0
  0
LINE
  5
129
330
6F
100
AcDbEntity
  8
0
 62
     0
100
AcDbLine
 10
259.700575
 20
65.3497
 30
0.0
 11
273.6995750000001
 21
65.3497
 31
0.0
  0
LINE
  5
12A
330
6F
100
AcDbEntity
  8
0
 62
     0
100
AcDbLine
 10
273.6995750000001
 20
65.3497
 30
0.0
 11
273.6995750000001
 21
51.3504
 31
0.0
  0
LINE
  5
12B
330
6F
100
AcDbEntity
  8
0
 62
     0
100
AcDbLine
 10
273.6995750000001
 20
51.3504
 30
0.0
 11
259.700575
 21
51.3504
 31
0.0
  0
LINE
  5
12C
330
6F
100
AcDbEntity
  8
0
 62
     0
100
AcDbLine
 10
259.700575
 20
51.3504
 30
0.0
 11
259.700575
 21
65.3497
 31
0.0
  0
LINE
  5
12D
330
6F
100
AcDbEntity
  8
0
 62
     0
100
AcDbLine
 10
240.650575
 20
65.3497
 30
0.0
 11
254.649575
 21
65.3497
 31
0.0
  0
LINE
  5
12E
330
6F
100
AcDbEntity
  8
0
 62
     0
100
AcDbLine
 10
254.649575
 20
65.3497
 30
0.0
 11
254.649575
 21
51.3504
 31
0.0
  0
LINE
  5
12F
330
6F
100
AcDbEntity
  8
0
 62
     0
100
AcDbLine
 10
254.649575
 20
51.3504
 30
0.0
 11
240.650575
 21
51.3504
 31
0.0
  0
LINE
  5
130
330
6F
100
AcDbEntity
  8
0
 62
     0
100
AcDbLine
 10
240.650575
 20
51.3504
 30
0.0
 11
240.650575
 21
65.3497
 31
0.0
  0
LINE
  5
131
330
6F
100
AcDbEntity
  8
0
 62
     0
100
AcDbLine
 10
221.600575
 20
65.3497
 30
0.0
 11
235.599575
 21
65.3497
 31
0.0
  0
LINE
  5
132
330
6F
100
AcDbEntity
  8
0
 62
     0
100
AcDbLine
 10
235.599575
 20
65.3497
 30
0.0
 11
235.599575
 21
51.3504
 31
0.0
  0
LINE
  5
133
330
6F
100
AcDbEntity
  8
0
 62
     0
100
AcDbLine
 10
235.599575
 20
51.3504
 30
0.0
 11
221.600575
 21
51.3504
 31
0.0
  0
LINE
  5
134
330
6F
100
AcDbEntity
  8
0
 62
     0
100
AcDbLine
 10
221.600575
 20
51.3504
 30
0.0
 11
221.600575
 21
65.3497
 31
0.0
  0
LINE
  5
135
330
6F
100
AcDbEntity
  8
0
 62
     0
100
AcDbLine
 10
202.550575
 20
65.3497
 30
0.0
 11
216.549575
 21
65.3497
 31
0.0
  0
LINE
  5
136
330
6F
100
AcDbEntity
  8
0
 62
     0
100
AcDbLine
 10
216.549575
 20
65.3497
 30
0.0
 11
216.549575
 21
51.3504
 31
0.0
  0
LINE
  5
137
330
6F
100
AcDbEntity
  8
0
 62
     0
100
AcDbLine
 10
216.549575
 20
51.3504
 30
0.0
 11
202.550575
 21
51.3504
 31
0.0
  0
LINE
  5
138
330
6F
100
AcDbEntity
  8
0
 62
     0
100
AcDbLine
 10
202.550575
 20
51.3504
 30
0.0
 11
202.550575
 21
65.3497
 31
0.0
  0
LINE
  5
139
330
6F
100
AcDbEntity
  8
0
 62
     0
100
AcDbLine
 10
183.500575
 20
65.3497
 30
0.0
 11
197.499575
 21
65.3497
 31
0.0
  0
LINE
  5
13A
330
6F
100
AcDbEntity
  8
0
 62
     0
100
AcDbLine
 10
197.499575
 20
65.3497
 30
0.0
 11
197.499575
 21
51.3504
 31
0.0
  0
LINE
  5
13B
330
6F
100
AcDbEntity
  8
0
 62
     0
100
AcDbLine
 10
197.499575
 20
51.3504
 30
0.0
 11
183.500575
 21
51.3504
 31
0.0
  0
LINE
  5
13C
330
6F
100
AcDbEntity
  8
0
 62
     0
100
AcDbLine
 10
183.500575
 20
51.3504
 30
0.0
 11
183.500575
 21
65.3497
 31
0.0
  0
LINE
  5
13D
330
6F
100
AcDbEntity
  8
0
 62
     0
100
AcDbLine
 10
164.450575
 20
65.3497
 30
0.0
 11
178.449575
 21
65.3497
 31
0.0
  0
LINE
  5
13E
330
6F
100
AcDbEntity
  8
0
 62
     0
100
AcDbLine
 10
178.449575
 20
65.3497
 30
0.0
 11
178.449575
 21
51.3504
 31
0.0
  0
LINE
  5
13F
330
6F
100
AcDbEntity
  8
0
 62
     0
100
AcDbLine
 10
178.449575
 20
51.3504
 30
0.0
 11
164.450575
 21
51.3504
 31
0.0
  0
LINE
  5
140
330
6F
100
AcDbEntity
  8
0
 62
     0
100
AcDbLine
 10
164.450575
 20
51.3504
 30
0.0
 11
164.450575
 21
65.3497
 31
0.0
  0
LINE
  5
141
330
6F
100
AcDbEntity
  8
0
 62
     0
100
AcDbLine
 10
145.400575
 20
65.3497
 30
0.0
 11
159.399575
 21
65.3497
 31
0.0
  0
LINE
  5
142
330
6F
100
AcDbEntity
  8
0
 62
     0
100
AcDbLine
 10
159.399575
 20
65.3497
 30
0.0
 11
159.399575
 21
51.3504
 31
0.0
  0
LINE
  5
143
330
6F
100
AcDbEntity
  8
0
 62
     0
100
AcDbLine
 10
159.399575
 20
51.3504
 30
0.0
 11
145.400575
 21
51.3504
 31
0.0
  0
LINE
  5
144
330
6F
100
AcDbEntity
  8
0
 62
     0
100
AcDbLine
 10
145.400575
 20
51.3504
 30
0.0
 11
145.400575
 21
65.3497
 31
0.0
  0
LINE
  5
145
330
6F
100
AcDbEntity
  8
0
 62
     0
100
AcDbLine
 10
126.350575
 20
65.3497
 30
0.0
 11
140.349575
 21
65.3497
 31
0.0
  0
LINE
  5
146
330
6F
100
AcDbEntity
  8
0
 62
     0
100
AcDbLine
 10
140.349575
 20
65.3497
 30
0.0
 11
140.349575
 21
51.3504
 31
0.0
  0
LINE
  5
147
330
6F
100
AcDbEntity
  8
0
 62
     0
100
AcDbLine
 10
140.349575
 20
51.3504
 30
0.0
 11
126.350575
 21
51.3504
 31
0.0
  0
LINE
  5
148
330
6F
100
AcDbEntity
  8
0
 62
     0
100
AcDbLine
 10
126.350575
 20
51.3504
 30
0.0
 11
126.350575
 21
65.3497
 31
0.0
  0
LINE
  5
149
330
6F
100
AcDbEntity
  8
0
 62
     0
100
AcDbLine
 10
107.300275
 20
65.3497
 30
0.0
 11
121.299575
 21
65.3497
 31
0.0
  0
LINE
  5
14A
330
6F
100
AcDbEntity
  8
0
 62
     0
100
AcDbLine
 10
121.299575
 20
65.3497
 30
0.0
 11
121.299575
 21
51.3504
 31
0.0
  0
LINE
  5
14B
330
6F
100
AcDbEntity
  8
0
 62
     0
100
AcDbLine
 10
121.299575
 20
51.3504
 30
0.0
 11
107.300275
 21
51.3504
 31
0.0
  0
LINE
  5
14C
330
6F
100
AcDbEntity
  8
0
 62
     0
100
AcDbLine
 10
107.300275
 20
51.3504
 30
0.0
 11
107.300275
 21
65.3497
 31
0.0
  0
LINE
  5
14D
330
6F
100
AcDbEntity
  8
0
 62
     0
100
AcDbLine
 10
88.250275
 20
65.3497
 30
0.0
 11
102.249575
 21
65.3497
 31
0.0
  0
LINE
  5
14E
330
6F
100
AcDbEntity
  8
0
 62
     0
100
AcDbLine
 10
102.249575
 20
65.3497
 30
0.0
 11
102.249575
 21
51.3504
 31
0.0
  0
LINE
  5
14F
330
6F
100
AcDbEntity
  8
0
 62
     0
100
AcDbLine
 10
102.249575
 20
51.3504
 30
0.0
 11
88.250275
 21
51.3504
 31
0.0
  0
LINE
  5
150
330
6F
100
AcDbEntity
  8
0
 62
     0
100
AcDbLine
 10
88.250275
 20
51.3504
 30
0.0
 11
88.250275
 21
65.3497
 31
0.0
  0
LINE
  5
151
330
6F
100
AcDbEntity
  8
0
 62
     0
100
AcDbLine
 10
69.200275
 20
65.3497
 30
0.0
 11
83.19957499999999
 21
65.3497
 31
0.0
  0
LINE
  5
152
330
6F
100
AcDbEntity
  8
0
 62
     0
100
AcDbLine
 10
83.19957499999999
 20
65.3497
 30
0.0
 11
83.19957499999999
 21
51.3504
 31
0.0
  0
LINE
  5
153
330
6F
100
AcDbEntity
  8
0
 62
     0
100
AcDbLine
 10
83.19957499999999
 20
51.3504
 30
0.0
 11
69.200275
 21
51.3504
 31
0.0
  0
LINE
  5
154
330
6F
100
AcDbEntity
  8
0
 62
     0
100
AcDbLine
 10
69.200275
 20
51.3504
 30
0.0
 11
69.200275
 21
65.3497
 31
0.0
  0
LINE
  5
155
330
6F
100
AcDbEntity
  8
0
 62
     0
100
AcDbLine
 10
43.00647500000001
 20
65.3497
 30
0.0
 11
57.00587500000001
 21
65.3497
 31
0.0
  0
LINE
  5
156
330
6F
100
AcDbEntity
  8
0
 62
     0
100
AcDbLine
 10
57.00587500000001
 20
65.3497
 30
0.0
 11
57.00587500000001
 21
51.3504
 31
0.0
  0
LINE
  5
157
330
6F
100
AcDbEntity
  8
0
 62
     0
100
AcDbLine
 10
57.00587500000001
 20
51.3504
 30
0.0
 11
43.00647500000001
 21
51.3504
 31
0.0
  0
LINE
  5
158
330
6F
100
AcDbEntity
  8
0
 62
     0
100
AcDbLine
 10
43.00647500000001
 20
51.3504
 30
0.0
 11
43.00647500000001
 21
65.3497
 31
0.0
  0
LINE
  5
159
330
6F
100
AcDbEntity
  8
0
 62
     0
100
AcDbLine
 10
12.05022500000001
 20
65.3497
 30
0.0
 11
26.04977500000001
 21
65.3497
 31
0.0
  0
LINE
  5
15A
330
6F
100
AcDbEntity
  8
0
 62
     0
100
AcDbLine
 10
26.04977500000001
 20
65.3497
 30
0.0
 11
26.04977500000001
 21
51.3504
 31
0.0
  0
LINE
  5
15B
330
6F
100
AcDbEntity
  8
0
 62
     0
100
AcDbLine
 10
26.04977500000001
 20
51.3504
 30
0.0
 11
12.05022500000001
 21
51.3504
 31
0.0
  0
LINE
  5
15C
330
6F
100
AcDbEntity
  8
0
 62
     0
100
AcDbLine
 10
12.05022500000001
 20
51.3504
 30
0.0
 11
12.05022500000001
 21
65.3497
 31
0.0
  0
LINE
  5
15D
330
6F
100
AcDbEntity
  8
0
 62
     0
100
AcDbLine
 10
306.681575
 20
83.97530000000001
 30
0.0
 11
306.681575
 21
83.1498
 31
0.0
  0
LINE
  5
15E
330
6F
100
AcDbEntity
  8
0
 62
     0
100
AcDbLine
 10
306.681575
 20
83.1498
 30
0.0
 11
300.411575
 21
83.1498
 31
0.0
  0
LINE
  5
15F
330
6F
100
AcDbEntity
  8
0
 62
     0
100
AcDbLine
 10
300.411575
 20
83.1498
 30
0.0
 11
300.411575
 21
81.42610000000001
 31
0.0
  0
LINE
  5
160
330
6F
100
AcDbEntity
  8
0
 62
     0
100
AcDbLine
 10
300.411575
 20
81.42610000000001
 30
0.0
 11
299.211575
 21
81.42610000000001
 31
0.0
  0
LINE
  5
161
330
6F
100
AcDbEntity
  8
0
 62
     0
100
AcDbLine
 10
299.211575
 20
81.42610000000001
 30
0.0
 11
299.211575
 21
78.1255
 31
0.0
  0
LINE
  5
162
330
6F
100
AcDbEntity
  8
0
 62
     0
100
AcDbLine
 10
299.211575
 20
78.1255
 30
0.0
 11
300.411575
 21
78.1255
 31
0.0
  0
LINE
  5
163
330
6F
100
AcDbEntity
  8
0
 62
     0
100
AcDbLine
 10
300.411575
 20
78.1255
 30
0.0
 11
300.411575
 21
76.4001
 31
0.0
  0
LINE
  5
164
330
6F
100
AcDbEntity
  8
0
 62
     0
100
AcDbLine
 10
300.411575
 20
76.4001
 30
0.0
 11
304.880575
 21
76.4001
 31
0.0
  0
LINE
  5
165
330
6F
100
AcDbEntity
  8
0
 62
     0
100
AcDbLine
 10
304.880575
 20
76.4001
 30
0.0
 11
304.880575
 21
74.8747
 31
0.0
  0
LINE
  5
166
330
6F
100
AcDbEntity
  8
0
 62
     0
100
AcDbLine
 10
304.880575
 20
74.8747
 30
0.0
 11
300.181575
 21
74.8747
 31
0.0
  0
LINE
  5
167
330
6F
100
AcDbEntity
  8
0
 62
     0
100
AcDbLine
 10
300.181575
 20
74.8747
 30
0.0
 11
300.181575
 21
60.8754
 31
0.0
  0
LINE
  5
168
330
6F
100
AcDbEntity
  8
0
 62
     0
100
AcDbLine
 10
300.181575
 20
60.8754
 30
0.0
 11
304.880575
 21
60.8754
 31
0.0
  0
LINE
  5
169
330
6F
100
AcDbEntity
  8
0
 62
     0
100
AcDbLine
 10
304.880575
 20
60.8754
 30
0.0
 11
304.880575
 21
59.3496
 31
0.0
  0
LINE
  5
16A
330
6F
100
AcDbEntity
  8
0
 62
     0
100
AcDbLine
 10
304.880575
 20
59.3496
 30
0.0
 11
300.411575
 21
59.3496
 31
0.0
  0
LINE
  5
16B
330
6F
100
AcDbEntity
  8
0
 62
     0
100
AcDbLine
 10
300.411575
 20
59.3496
 30
0.0
 11
300.411575
 21
57.6245
 31
0.0
  0
LINE
  5
16C
330
6F
100
AcDbEntity
  8
0
 62
     0
100
AcDbLine
 10
300.411575
 20
57.6245
 30
0.0
 11
299.211575
 21
57.6245
 31
0.0
  0
LINE
  5
16D
330
6F
100
AcDbEntity
  8
0
 62
     0
100
AcDbLine
 10
299.211575
 20
57.6245
 30
0.0
 11
299.211575
 21
54.32529999999999
 31
0.0
  0
LINE
  5
16E
330
6F
100
AcDbEntity
  8
0
 62
     0
100
AcDbLine
 10
299.211575
 20
54.32529999999999
 30
0.0
 11
300.411575
 21
54.32529999999999
 31
0.0
  0
LINE
  5
16F
330
6F
100
AcDbEntity
  8
0
 62
     0
100
AcDbLine
 10
300.411575
 20
54.32529999999999
 30
0.0
 11
300.411575
 21
52.6003
 31
0.0
  0
LINE
  5
170
330
6F
100
AcDbEntity
  8
0
 62
     0
100
AcDbLine
 10
300.411575
 20
52.6003
 30
0.0
 11
306.681575
 21
52.6003
 31
0.0
  0
LINE
  5
171
330
6F
100
AcDbEntity
  8
0
 62
     0
100
AcDbLine
 10
306.681575
 20
52.6003
 30
0.0
 11
306.681575
 21
51.7748
 31
0.0
  0
LINE
  5
172
330
6F
100
AcDbEntity
  8
0
 62
     0
100
AcDbLine
 10
306.681575
 20
51.7748
 30
0.0
 11
309.480575
 21
51.7748
 31
0.0
  0
LINE
  5
173
330
6F
100
AcDbEntity
  8
0
 62
     0
100
AcDbLine
 10
309.480575
 20
51.7748
 30
0.0
 11
309.480575
 21
52.6003
 31
0.0
  0
LINE
  5
174
330
6F
100
AcDbEntity
  8
0
 62
     0
100
AcDbLine
 10
309.480575
 20
52.6003
 30
0.0
 11
312.710575
 21
52.6003
 31
0.0
  0
LINE
  5
175
330
6F
100
AcDbEntity
  8
0
 62
     0
100
AcDbLine
 10
312.710575
 20
52.6003
 30
0.0
 11
312.710575
 21
59.3496
 31
0.0
  0
LINE
  5
176
330
6F
100
AcDbEntity
  8
0
 62
     0
100
AcDbLine
 10
312.710575
 20
59.3496
 30
0.0
 11
309.480575
 21
59.3496
 31
0.0
  0
LINE
  5
177
330
6F
100
AcDbEntity
  8
0
 62
     0
100
AcDbLine
 10
309.480575
 20
59.3496
 30
0.0
 11
309.480575
 21
60.8754
 31
0.0
  0
LINE
  5
178
330
6F
100
AcDbEntity
  8
0
 62
     0
100
AcDbLine
 10
309.480575
 20
60.8754
 30
0.0
 11
314.180575
 21
60.8754
 31
0.0
  0
LINE
  5
179
330
6F
100
AcDbEntity
  8
0
 62
     0
100
AcDbLine
 10
314.180575
 20
60.8754
 30
0.0
 11
314.180575
 21
74.8747
 31
0.0
  0
LINE
  5
17A
330
6F
100
AcDbEntity
  8
0
 62
     0
100
AcDbLine
 10
314.180575
 20
74.8747
 30
0.0
 11
309.480575
 21
74.8747
 31
0.0
  0
LINE
  5
17B
330
6F
100
AcDbEntity
  8
0
 62
     0
100
AcDbLine
 10
309.480575
 20
74.8747
 30
0.0
 11
309.480575
 21
76.4001
 31
0.0
  0
LINE
  5
17C
330
6F
100
AcDbEntity
  8
0
 62
     0
100
AcDbLine
 10
309.480575
 20
76.4001
 30
0.0
 11
312.710575
 21
76.4001
 31
0.0
  0
LINE
  5
17D
330
6F
100
AcDbEntity
  8
0
 62
     0
100
AcDbLine
 10
312.710575
 20
76.4001
 30
0.0
 11
312.710575
 21
83.1498
 31
0.0
  0
LINE
  5
17E
330
6F
100
AcDbEntity
  8
0
 62
     0
100
AcDbLine
 10
312.710575
 20
83.1498
 30
0.0
 11
309.480575
 21
83.1498
 31
0.0
  0
LINE
  5
17F
330
6F
100
AcDbEntity
  8
0
 62
     0
100
AcDbLine
 10
309.480575
 20
83.1498
 30
0.0
 11
309.480575
 21
83.97530000000001
 31
0.0
  0
LINE
  5
180
330
6F
100
AcDbEntity
  8
0
 62
     0
100
AcDbLine
 10
309.480575
 20
83.97530000000001
 30
0.0
 11
306.681575
 21
83.97530000000001
 31
0.0
  0
LINE
  5
181
330
6F
100
AcDbEntity
  8
0
 62
     0
100
AcDbLine
 10
326.375575
 20
84.3997
 30
0.0
 11
340.3745750000001
 21
84.3997
 31
0.0
  0
LINE
  5
182
330
6F
100
AcDbEntity
  8
0
 62
     0
100
AcDbLine
 10
340.3745750000001
 20
84.3997
 30
0.0
 11
340.3745750000001
 21
70.40039999999999
 31
0.0
  0
LINE
  5
183
330
6F
100
AcDbEntity
  8
0
 62
     0
100
AcDbLine
 10
340.3745750000001
 20
70.40039999999999
 30
0.0
 11
326.375575
 21
70.40039999999999
 31
0.0
  0
LINE
  5
184
330
6F
100
AcDbEntity
  8
0
 62
     0
100
AcDbLine
 10
326.375575
 20
70.40039999999999
 30
0.0
 11
326.375575
 21
84.3997
 31
0.0
  0
LINE
  5
185
330
6F
100
AcDbEntity
  8
0
 62
     0
100
AcDbLine
 10
273.987575
 20
84.3997
 30
0.0
 11
287.987575
 21
84.3997
 31
0.0
  0
LINE
  5
186
330
6F
100
AcDbEntity
  8
0
 62
     0
100
AcDbLine
 10
287.987575
 20
84.3997
 30
0.0
 11
287.987575
 21
70.40039999999999
 31
0.0
  0
LINE
  5
187
330
6F
100
AcDbEntity
  8
0
 62
     0
100
AcDbLine
 10
287.987575
 20
70.40039999999999
 30
0.0
 11
273.987575
 21
70.40039999999999
 31
0.0
  0
LINE
  5
188
330
6F
100
AcDbEntity
  8
0
 62
     0
100
AcDbLine
 10
273.987575
 20
70.40039999999999
 30
0.0
 11
273.987575
 21
84.3997
 31
0.0
  0
LINE
  5
189
330
6F
100
AcDbEntity
  8
0
 62
     0
100
AcDbLine
 10
254.937575
 20
84.3997
 30
0.0
 11
268.937575
 21
84.3997
 31
0.0
  0
LINE
  5
18A
330
6F
100
AcDbEntity
  8
0
 62
     0
100
AcDbLine
 10
268.937575
 20
84.3997
 30
0.0
 11
268.937575
 21
70.40039999999999
 31
0.0
  0
LINE
  5
18B
330
6F
100
AcDbEntity
  8
0
 62
     0
100
AcDbLine
 10
268.937575
 20
70.40039999999999
 30
0.0
 11
254.937575
 21
70.40039999999999
 31
0.0
  0
LINE
  5
18C
330
6F
100
AcDbEntity
  8
0
 62
     0
100
AcDbLine
 10
254.937575
 20
70.40039999999999
 30
0.0
 11
254.937575
 21
84.3997
 31
0.0
  0
LINE
  5
18D
330
6F
100
AcDbEntity
  8
0
 62
     0
100
AcDbLine
 10
235.887575
 20
84.3997
 30
0.0
 11
249.887575
 21
84.3997
 31
0.0
  0
LINE
  5
18E
330
6F
100
AcDbEntity
  8
0
 62
     0
100
AcDbLine
 10
249.887575
 20
84.3997
 30
0.0
 11
249.887575
 21
70.40039999999999
 31
0.0
  0
LINE
  5
18F
330
6F
100
AcDbEntity
  8
0
 62
     0
100
AcDbLine
 10
249.887575
 20
70.40039999999999
 30
0.0
 11
235.887575
 21
70.40039999999999
 31
0.0
  0
LINE
  5
190
330
6F
100
AcDbEntity
  8
0
 62
     0
100
AcDbLine
 10
235.887575
 20
70.40039999999999
 30
0.0
 11
235.887575
 21
84.3997
 31
0.0
  0
LINE
  5
191
330
6F
100
AcDbEntity
  8
0
 62
     0
100
AcDbLine
 10
216.837575
 20
84.3997
 30
0.0
 11
230.837575
 21
84.3997
 31
0.0
  0
LINE
  5
192
330
6F
100
AcDbEntity
  8
0
 62
     0
100
AcDbLine
 10
230.837575
 20
84.3997
 30
0.0
 11
230.837575
 21
70.40039999999999
 31
0.0
  0
LINE
  5
193
330
6F
100
AcDbEntity
  8
0
 62
     0
100
AcDbLine
 10
230.837575
 20
70.40039999999999
 30
0.0
 11
216.837575
 21
70.40039999999999
 31
0.0
  0
LINE
  5
194
330
6F
100
AcDbEntity
  8
0
 62
     0
100
AcDbLine
 10
216.837575
 20
70.40039999999999
 30
0.0
 11
216.837575
 21
84.3997
 31
0.0
  0
LINE
  5
195
330
6F
100
AcDbEntity
  8
0
 62
     0
100
AcDbLine
 10
197.787575
 20
84.3997
 30
0.0
 11
211.787575
 21
84.3997
 31
0.0
  0
LINE
  5
196
330
6F
100
AcDbEntity
  8
0
 62
     0
100
AcDbLine
 10
211.787575
 20
84.3997
 30
0.0
 11
211.787575
 21
70.40039999999999
 31
0.0
  0
LINE
  5
197
330
6F
100
AcDbEntity
  8
0
 62
     0
100
AcDbLine
 10
211.787575
 20
70.40039999999999
 30
0.0
 11
197.787575
 21
70.40039999999999
 31
0.0
  0
LINE
  5
198
330
6F
100
AcDbEntity
  8
0
 62
     0
100
AcDbLine
 10
197.787575
 20
70.40039999999999
 30
0.0
 11
197.787575
 21
84.3997
 31
0.0
  0
LINE
  5
199
330
6F
100
AcDbEntity
  8
0
 62
     0
100
AcDbLine
 10
178.737575
 20
84.3997
 30
0.0
 11
192.737575
 21
84.3997
 31
0.0
  0
LINE
  5
19A
330
6F
100
AcDbEntity
  8
0
 62
     0
100
AcDbLine
 10
192.737575
 20
84.3997
 30
0.0
 11
192.737575
 21
70.40039999999999
 31
0.0
  0
LINE
  5
19B
330
6F
100
AcDbEntity
  8
0
 62
     0
100
AcDbLine
 10
192.737575
 20
70.40039999999999
 30
0.0
 11
178.737575
 21
70.40039999999999
 31
0.0
  0
LINE
  5
19C
330
6F
100
AcDbEntity
  8
0
 62
     0
100
AcDbLine
 10
178.737575
 20
70.40039999999999
 30
0.0
 11
178.737575
 21
84.3997
 31
0.0
  0
LINE
  5
19D
330
6F
100
AcDbEntity
  8
0
 62
     0
100
AcDbLine
 10
159.687575
 20
84.3997
 30
0.0
 11
173.687575
 21
84.3997
 31
0.0
  0
LINE
  5
19E
330
6F
100
AcDbEntity
  8
0
 62
     0
100
AcDbLine
 10
173.687575
 20
84.3997
 30
0.0
 11
173.687575
 21
70.40039999999999
 31
0.0
  0
LINE
  5
19F
330
6F
100
AcDbEntity
  8
0
 62
     0
100
AcDbLine
 10
173.687575
 20
70.40039999999999
 30
0.0
 11
159.687575
 21
70.40039999999999
 31
0.0
  0
LINE
  5
1A0
330
6F
100
AcDbEntity
  8
0
 62
     0
100
AcDbLine
 10
159.687575
 20
70.40039999999999
 30
0.0
 11
159.687575
 21
84.3997
 31
0.0
  0
LINE
  5
1A1
330
6F
100
AcDbEntity
  8
0
 62
     0
100
AcDbLine
 10
140.637575
 20
84.3997
 30
0.0
 11
154.637575
 21
84.3997
 31
0.0
  0
LINE
  5
1A2
330
6F
100
AcDbEntity
  8
0
 62
     0
100
AcDbLine
 10
154.637575
 20
84.3997
 30
0.0
 11
154.637575
 21
70.40039999999999
 31
0.0
  0
LINE
  5
1A3
330
6F
100
AcDbEntity
  8
0
 62
     0
100
AcDbLine
 10
154.637575
 20
70.40039999999999
 30
0.0
 11
140.637575
 21
70.40039999999999
 31
0.0
  0
LINE
  5
1A4
330
6F
100
AcDbEntity
  8
0
 62
     0
100
AcDbLine
 10
140.637575
 20
70.40039999999999
 30
0.0
 11
140.637575
 21
84.3997
 31
0.0
  0
LINE
  5
1A5
330
6F
100
AcDbEntity
  8
0
 62
     0
100
AcDbLine
 10
121.587575
 20
84.3997
 30
0.0
 11
135.587575
 21
84.3997
 31
0.0
  0
LINE
  5
1A6
330
6F
100
AcDbEntity
  8
0
 62
     0
100
AcDbLine
 10
135.587575
 20
84.3997
 30
0.0
 11
135.587575
 21
70.40039999999999
 31
0.0
  0
LINE
  5
1A7
330
6F
100
AcDbEntity
  8
0
 62
     0
100
AcDbLine
 10
135.587575
 20
70.40039999999999
 30
0.0
 11
121.587575
 21
70.40039999999999
 31
0.0
  0
LINE
  5
1A8
330
6F
100
AcDbEntity
  8
0
 62
     0
100
AcDbLine
 10
121.587575
 20
70.40039999999999
 30
0.0
 11
121.587575
 21
84.3997
 31
0.0
  0
LINE
  5
1A9
330
6F
100
AcDbEntity
  8
0
 62
     0
100
AcDbLine
 10
102.537775
 20
84.3997
 30
0.0
 11
116.537575
 21
84.3997
 31
0.0
  0
LINE
  5
1AA
330
6F
100
AcDbEntity
  8
0
 62
     0
100
AcDbLine
 10
116.537575
 20
84.3997
 30
0.0
 11
116.537575
 21
70.40039999999999
 31
0.0
  0
LINE
  5
1AB
330
6F
100
AcDbEntity
  8
0
 62
     0
100
AcDbLine
 10
116.537575
 20
70.40039999999999
 30
0.0
 11
102.537775
 21
70.40039999999999
 31
0.0
  0
LINE
  5
1AC
330
6F
100
AcDbEntity
  8
0
 62
     0
100
AcDbLine
 10
102.537775
 20
70.40039999999999
 30
0.0
 11
102.537775
 21
84.3997
 31
0.0
  0
LINE
  5
1AD
330
6F
100
AcDbEntity
  8
0
 62
     0
100
AcDbLine
 10
83.487775
 20
84.3997
 30
0.0
 11
97.48707500000001
 21
84.3997
 31
0.0
  0
LINE
  5
1AE
330
6F
100
AcDbEntity
  8
0
 62
     0
100
AcDbLine
 10
97.48707500000001
 20
84.3997
 30
0.0
 11
97.48707500000001
 21
70.40039999999999
 31
0.0
  0
LINE
  5
1AF
330
6F
100
AcDbEntity
  8
0
 62
     0
100
AcDbLine
 10
97.48707500000001
 20
70.40039999999999
 30
0.0
 11
83.487775
 21
70.40039999999999
 31
0.0
  0
LINE
  5
1B0
330
6F
100
AcDbEntity
  8
0
 62
     0
100
AcDbLine
 10
83.487775
 20
70.40039999999999
 30
0.0
 11
83.487775
 21
84.3997
 31
0.0
  0
LINE
  5
1B1
330
6F
100
AcDbEntity
  8
0
 62
     0
100
AcDbLine
 10
64.437775
 20
84.3997
 30
0.0
 11
78.437075
 21
84.3997
 31
0.0
  0
LINE
  5
1B2
330
6F
100
AcDbEntity
  8
0
 62
     0
100
AcDbLine
 10
78.437075
 20
84.3997
 30
0.0
 11
78.437075
 21
70.40039999999999
 31
0.0
  0
LINE
  5
1B3
330
6F
100
AcDbEntity
  8
0
 62
     0
100
AcDbLine
 10
78.437075
 20
70.40039999999999
 30
0.0
 11
64.437775
 21
70.40039999999999
 31
0.0
  0
LINE
  5
1B4
330
6F
100
AcDbEntity
  8
0
 62
     0
100
AcDbLine
 10
64.437775
 20
70.40039999999999
 30
0.0
 11
64.437775
 21
84.3997
 31
0.0
  0
LINE
  5
1B5
330
6F
100
AcDbEntity
  8
0
 62
     0
100
AcDbLine
 10
40.625275
 20
84.3997
 30
0.0
 11
54.62457500000001
 21
84.3997
 31
0.0
  0
LINE
  5
1B6
330
6F
100
AcDbEntity
  8
0
 62
     0
100
AcDbLine
 10
54.62457500000001
 20
84.3997
 30
0.0
 11
54.62457500000001
 21
70.40039999999999
 31
0.0
  0
LINE
  5
1B7
330
6F
100
AcDbEntity
  8
0
 62
     0
100
AcDbLine
 10
54.62457500000001
 20
70.40039999999999
 30
0.0
 11
40.625275
 21
70.40039999999999
 31
0.0
  0
LINE
  5
1B8
330
6F
100
AcDbEntity
  8
0
 62
     0
100
AcDbLine
 10
40.625275
 20
70.40039999999999
 30
0.0
 11
40.625275
 21
84.3997
 31
0.0
  0
LINE
  5
1B9
330
6F
100
AcDbEntity
  8
0
 62
     0
100
AcDbLine
 10
12.05022500000001
 20
84.3997
 30
0.0
 11
26.04977500000001
 21
84.3997
 31
0.0
  0
LINE
  5
1BA
330
6F
100
AcDbEntity
  8
0
 62
     0
100
AcDbLine
 10
26.04977500000001
 20
84.3997
 30
0.0
 11
26.04977500000001
 21
70.40039999999999
 31
0.0
  0
LINE
  5
1BB
330
6F
100
AcDbEntity
  8
0
 62
     0
100
AcDbLine
 10
26.04977500000001
 20
70.40039999999999
 30
0.0
 11
12.05022500000001
 21
70.40039999999999
 31
0.0
  0
LINE
  5
1BC
330
6F
100
AcDbEntity
  8
0
 62
     0
100
AcDbLine
 10
12.05022500000001
 20
70.40039999999999
 30
0.0
 11
12.05022500000001
 21
84.3997
 31
0.0
  0
LINE
  5
1BD
330
6F
100
AcDbEntity
  8
0
 62
     0
100
AcDbLine
 10
293.0375750000001
 20
103.4497
 30
0.0
 11
293.0375750000001
 21
98.74920000000001
 31
0.0
  0
LINE
  5
1BE
330
6F
100
AcDbEntity
  8
0
 62
     0
100
AcDbLine
 10
293.0375750000001
 20
98.74920000000001
 30
0.0
 11
291.5125750000001
 21
98.74920000000001
 31
0.0
  0
LINE
  5
1BF
330
6F
100
AcDbEntity
  8
0
 62
     0
100
AcDbLine
 10
291.5125750000001
 20
98.74920000000001
 30
0.0
 11
291.5125750000001
 21
101.9793
 31
0.0
  0
LINE
  5
1C0
330
6F
100
AcDbEntity
  8
0
 62
     0
100
AcDbLine
 10
291.5125750000001
 20
101.9793
 30
0.0
 11
284.762575
 21
101.9793
 31
0.0
  0
LINE
  5
1C1
330
6F
100
AcDbEntity
  8
0
 62
     0
100
AcDbLine
 10
284.762575
 20
101.9793
 30
0.0
 11
284.762575
 21
98.74920000000001
 31
0.0
  0
LINE
  5
1C2
330
6F
100
AcDbEntity
  8
0
 62
     0
100
AcDbLine
 10
284.762575
 20
98.74920000000001
 30
0.0
 11
283.937575
 21
98.74920000000001
 31
0.0
  0
LINE
  5
1C3
330
6F
100
AcDbEntity
  8
0
 62
     0
100
AcDbLine
 10
283.937575
 20
98.74920000000001
 30
0.0
 11
283.937575
 21
95.95029999999999
 31
0.0
  0
LINE
  5
1C4
330
6F
100
AcDbEntity
  8
0
 62
     0
100
AcDbLine
 10
283.937575
 20
95.95029999999999
 30
0.0
 11
284.762575
 21
95.95029999999999
 31
0.0
  0
LINE
  5
1C5
330
6F
100
AcDbEntity
  8
0
 62
     0
100
AcDbLine
 10
284.762575
 20
95.95029999999999
 30
0.0
 11
284.762575
 21
89.6804
 31
0.0
  0
LINE
  5
1C6
330
6F
100
AcDbEntity
  8
0
 62
     0
100
AcDbLine
 10
284.762575
 20
89.6804
 30
0.0
 11
286.486575
 21
89.6804
 31
0.0
  0
LINE
  5
1C7
330
6F
100
AcDbEntity
  8
0
 62
     0
100
AcDbLine
 10
286.486575
 20
89.6804
 30
0.0
 11
286.486575
 21
88.48019999999999
 31
0.0
  0
LINE
  5
1C8
330
6F
100
AcDbEntity
  8
0
 62
     0
100
AcDbLine
 10
286.486575
 20
88.48019999999999
 30
0.0
 11
289.786575
 21
88.48019999999999
 31
0.0
  0
LINE
  5
1C9
330
6F
100
AcDbEntity
  8
0
 62
     0
100
AcDbLine
 10
289.786575
 20
88.48019999999999
 30
0.0
 11
289.786575
 21
89.6804
 31
0.0
  0
LINE
  5
1CA
330
6F
100
AcDbEntity
  8
0
 62
     0
100
AcDbLine
 10
289.786575
 20
89.6804
 30
0.0
 11
291.5125750000001
 21
89.6804
 31
0.0
  0
LINE
  5
1CB
330
6F
100
AcDbEntity
  8
0
 62
     0
100
AcDbLine
 10
291.5125750000001
 20
89.6804
 30
0.0
 11
291.5125750000001
 21
94.14939999999999
 31
0.0
  0
LINE
  5
1CC
330
6F
100
AcDbEntity
  8
0
 62
     0
100
AcDbLine
 10
291.5125750000001
 20
94.14939999999999
 30
0.0
 11
293.0375750000001
 21
94.14939999999999
 31
0.0
  0
LINE
  5
1CD
330
6F
100
AcDbEntity
  8
0
 62
     0
100
AcDbLine
 10
293.0375750000001
 20
94.14939999999999
 30
0.0
 11
293.0375750000001
 21
89.4504
 31
0.0
  0
LINE
  5
1CE
330
6F
100
AcDbEntity
  8
0
 62
     0
100
AcDbLine
 10
293.0375750000001
 20
89.4504
 30
0.0
 11
307.0375750000001
 21
89.4504
 31
0.0
  0
LINE
  5
1CF
330
6F
100
AcDbEntity
  8
0
 62
     0
100
AcDbLine
 10
307.0375750000001
 20
89.4504
 30
0.0
 11
307.0375750000001
 21
94.14939999999999
 31
0.0
  0
LINE
  5
1D0
330
6F
100
AcDbEntity
  8
0
 62
     0
100
AcDbLine
 10
307.0375750000001
 20
94.14939999999999
 30
0.0
 11
308.5625750000001
 21
94.14939999999999
 31
0.0
  0
LINE
  5
1D1
330
6F
100
AcDbEntity
  8
0
 62
     0
100
AcDbLine
 10
308.5625750000001
 20
94.14939999999999
 30
0.0
 11
308.5625750000001
 21
89.6804
 31
0.0
  0
LINE
  5
1D2
330
6F
100
AcDbEntity
  8
0
 62
     0
100
AcDbLine
 10
308.5625750000001
 20
89.6804
 30
0.0
 11
310.286575
 21
89.6804
 31
0.0
  0
LINE
  5
1D3
330
6F
100
AcDbEntity
  8
0
 62
     0
100
AcDbLine
 10
310.286575
 20
89.6804
 30
0.0
 11
310.286575
 21
88.48019999999999
 31
0.0
  0
LINE
  5
1D4
330
6F
100
AcDbEntity
  8
0
 62
     0
100
AcDbLine
 10
310.286575
 20
88.48019999999999
 30
0.0
 11
313.587575
 21
88.48019999999999
 31
0.0
  0
LINE
  5
1D5
330
6F
100
AcDbEntity
  8
0
 62
     0
100
AcDbLine
 10
313.587575
 20
88.48019999999999
 30
0.0
 11
313.587575
 21
89.6804
 31
0.0
  0
LINE
  5
1D6
330
6F
100
AcDbEntity
  8
0
 62
     0
100
AcDbLine
 10
313.587575
 20
89.6804
 30
0.0
 11
315.312575
 21
89.6804
 31
0.0
  0
LINE
  5
1D7
330
6F
100
AcDbEntity
  8
0
 62
     0
100
AcDbLine
 10
315.312575
 20
89.6804
 30
0.0
 11
315.312575
 21
95.95029999999999
 31
0.0
  0
LINE
  5
1D8
330
6F
100
AcDbEntity
  8
0
 62
     0
100
AcDbLine
 10
315.312575
 20
95.95029999999999
 30
0.0
 11
316.136575
 21
95.95029999999999
 31
0.0
  0
LINE
  5
1D9
330
6F
100
AcDbEntity
  8
0
 62
     0
100
AcDbLine
 10
316.136575
 20
95.95029999999999
 30
0.0
 11
316.136575
 21
98.74920000000001
 31
0.0
  0
LINE
  5
1DA
330
6F
100
AcDbEntity
  8
0
 62
     0
100
AcDbLine
 10
316.136575
 20
98.74920000000001
 30
0.0
 11
315.312575
 21
98.74920000000001
 31
0.0
  0
LINE
  5
1DB
330
6F
100
AcDbEntity
  8
0
 62
     0
100
AcDbLine
 10
315.312575
 20
98.74920000000001
 30
0.0
 11
315.312575
 21
101.9793
 31
0.0
  0
LINE
  5
1DC
330
6F
100
AcDbEntity
  8
0
 62
     0
100
AcDbLine
 10
315.312575
 20
101.9793
 30
0.0
 11
308.5625750000001
 21
101.9793
 31
0.0
  0
LINE
  5
1DD
330
6F
100
AcDbEntity
  8
0
 62
     0
100
AcDbLine
 10
308.5625750000001
 20
101.9793
 30
0.0
 11
308.5625750000001
 21
98.74920000000001
 31
0.0
  0
LINE
  5
1DE
330
6F
100
AcDbEntity
  8
0
 62
     0
100
AcDbLine
 10
308.5625750000001
 20
98.74920000000001
 30
0.0
 11
307.0375750000001
 21
98.74920000000001
 31
0.0
  0
LINE
  5
1DF
330
6F
100
AcDbEntity
  8
0
 62
     0
100
AcDbLine
 10
307.0375750000001
 20
98.74920000000001
 30
0.0
 11
307.0375750000001
 21
103.4497
 31
0.0
  0
LINE
  5
1E0
330
6F
100
AcDbEntity
  8
0
 62
     0
100
AcDbLine
 10
307.0375750000001
 20
103.4497
 30
0.0
 11
293.0375750000001
 21
103.4497
 31
0.0
  0
LINE
  5
1E1
330
6F
100
AcDbEntity
  8
0
 62
     0
100
AcDbLine
 10
326.375575
 20
103.4497
 30
0.0
 11
340.3745750000001
 21
103.4497
 31
0.0
  0
LINE
  5
1E2
330
6F
100
AcDbEntity
  8
0
 62
     0
100
AcDbLine
 10
340.3745750000001
 20
103.4497
 30
0.0
 11
340.3745750000001
 21
89.4504
 31
0.0
  0
LINE
  5
1E3
330
6F
100
AcDbEntity
  8
0
 62
     0
100
AcDbLine
 10
340.3745750000001
 20
89.4504
 30
0.0
 11
326.375575
 21
89.4504
 31
0.0
  0
LINE
  5
1E4
330
6F
100
AcDbEntity
  8
0
 62
     0
100
AcDbLine
 10
326.375575
 20
89.4504
 30
0.0
 11
326.375575
 21
103.4497
 31
0.0
  0
LINE
  5
1E5
330
6F
100
AcDbEntity
  8
0
 62
     0
100
AcDbLine
 10
264.462575
 20
103.4497
 30
0.0
 11
278.462575
 21
103.4497
 31
0.0
  0
LINE
  5
1E6
330
6F
100
AcDbEntity
  8
0
 62
     0
100
AcDbLine
 10
278.462575
 20
103.4497
 30
0.0
 11
278.462575
 21
89.4504
 31
0.0
  0
LINE
  5
1E7
330
6F
100
AcDbEntity
  8
0
 62
     0
100
AcDbLine
 10
278.462575
 20
89.4504
 30
0.0
 11
264.462575
 21
89.4504
 31
0.0
  0
LINE
  5
1E8
330
6F
100
AcDbEntity
  8
0
 62
     0
100
AcDbLine
 10
264.462575
 20
89.4504
 30
0.0
 11
264.462575
 21
103.4497
 31
0.0
  0
LINE
  5
1E9
330
6F
100
AcDbEntity
  8
0
 62
     0
100
AcDbLine
 10
245.412575
 20
103.4497
 30
0.0
 11
259.412575
 21
103.4497
 31
0.0
  0
LINE
  5
1EA
330
6F
100
AcDbEntity
  8
0
 62
     0
100
AcDbLine
 10
259.412575
 20
103.4497
 30
0.0
 11
259.412575
 21
89.4504
 31
0.0
  0
LINE
  5
1EB
330
6F
100
AcDbEntity
  8
0
 62
     0
100
AcDbLine
 10
259.412575
 20
89.4504
 30
0.0
 11
245.412575
 21
89.4504
 31
0.0
  0
LINE
  5
1EC
330
6F
100
AcDbEntity
  8
0
 62
     0
100
AcDbLine
 10
245.412575
 20
89.4504
 30
0.0
 11
245.412575
 21
103.4497
 31
0.0
  0
LINE
  5
1ED
330
6F
100
AcDbEntity
  8
0
 62
     0
100
AcDbLine
 10
226.362575
 20
103.4497
 30
0.0
 11
240.362575
 21
103.4497
 31
0.0
  0
LINE
  5
1EE
330
6F
100
AcDbEntity
  8
0
 62
     0
100
AcDbLine
 10
240.362575
 20
103.4497
 30
0.0
 11
240.362575
 21
89.4504
 31
0.0
  0
LINE
  5
1EF
330
6F
100
AcDbEntity
  8
0
 62
     0
100
AcDbLine
 10
240.362575
 20
89.4504
 30
0.0
 11
226.362575
 21
89.4504
 31
0.0
  0
LINE
  5
1F0
330
6F
100
AcDbEntity
  8
0
 62
     0
100
AcDbLine
 10
226.362575
 20
89.4504
 30
0.0
 11
226.362575
 21
103.4497
 31
0.0
  0
LINE
  5
1F1
330
6F
100
AcDbEntity
  8
0
 62
     0
100
AcDbLine
 10
207.312575
 20
103.4497
 30
0.0
 11
221.312575
 21
103.4497
 31
0.0
  0
LINE
  5
1F2
330
6F
100
AcDbEntity
  8
0
 62
     0
100
AcDbLine
 10
221.312575
 20
103.4497
 30
0.0
 11
221.312575
 21
89.4504
 31
0.0
  0
LINE
  5
1F3
330
6F
100
AcDbEntity
  8
0
 62
     0
100
AcDbLine
 10
221.312575
 20
89.4504
 30
0.0
 11
207.312575
 21
89.4504
 31
0.0
  0
LINE
  5
1F4
330
6F
100
AcDbEntity
  8
0
 62
     0
100
AcDbLine
 10
207.312575
 20
89.4504
 30
0.0
 11
207.312575
 21
103.4497
 31
0.0
  0
LINE
  5
1F5
330
6F
100
AcDbEntity
  8
0
 62
     0
100
AcDbLine
 10
188.262575
 20
103.4497
 30
0.0
 11
202.262575
 21
103.4497
 31
0.0
  0
LINE
  5
1F6
330
6F
100
AcDbEntity
  8
0
 62
     0
100
AcDbLine
 10
202.262575
 20
103.4497
 30
0.0
 11
202.262575
 21
89.4504
 31
0.0
  0
LINE
  5
1F7
330
6F
100
AcDbEntity
  8
0
 62
     0
100
AcDbLine
 10
202.262575
 20
89.4504
 30
0.0
 11
188.262575
 21
89.4504
 31
0.0
  0
LINE
  5
1F8
330
6F
100
AcDbEntity
  8
0
 62
     0
100
AcDbLine
 10
188.262575
 20
89.4504
 30
0.0
 11
188.262575
 21
103.4497
 31
0.0
  0
LINE
  5
1F9
330
6F
100
AcDbEntity
  8
0
 62
     0
100
AcDbLine
 10
169.212575
 20
103.4497
 30
0.0
 11
183.212575
 21
103.4497
 31
0.0
  0
LINE
  5
1FA
330
6F
100
AcDbEntity
  8
0
 62
     0
100
AcDbLine
 10
183.212575
 20
103.4497
 30
0.0
 11
183.212575
 21
89.4504
 31
0.0
  0
LINE
  5
1FB
330
6F
100
AcDbEntity
  8
0
 62
     0
100
AcDbLine
 10
183.212575
 20
89.4504
 30
0.0
 11
169.212575
 21
89.4504
 31
0.0
  0
LINE
  5
1FC
330
6F
100
AcDbEntity
  8
0
 62
     0
100
AcDbLine
 10
169.212575
 20
89.4504
 30
0.0
 11
169.212575
 21
103.4497
 31
0.0
  0
LINE
  5
1FD
330
6F
100
AcDbEntity
  8
0
 62
     0
100
AcDbLine
 10
150.162575
 20
103.4497
 30
0.0
 11
164.162575
 21
103.4497
 31
0.0
  0
LINE
  5
1FE
330
6F
100
AcDbEntity
  8
0
 62
     0
100
AcDbLine
 10
164.162575
 20
103.4497
 30
0.0
 11
164.162575
 21
89.4504
 31
0.0
  0
LINE
  5
1FF
330
6F
100
AcDbEntity
  8
0
 62
     0
100
AcDbLine
 10
164.162575
 20
89.4504
 30
0.0
 11
150.162575
 21
89.4504
 31
0.0
  0
LINE
  5
200
330
6F
100
AcDbEntity
  8
0
 62
     0
100
AcDbLine
 10
150.162575
 20
89.4504
 30
0.0
 11
150.162575
 21
103.4497
 31
0.0
  0
LINE
  5
201
330
6F
100
AcDbEntity
  8
0
 62
     0
100
AcDbLine
 10
131.112575
 20
103.4497
 30
0.0
 11
145.112575
 21
103.4497
 31
0.0
  0
LINE
  5
202
330
6F
100
AcDbEntity
  8
0
 62
     0
100
AcDbLine
 10
145.112575
 20
103.4497
 30
0.0
 11
145.112575
 21
89.4504
 31
0.0
  0
LINE
  5
203
330
6F
100
AcDbEntity
  8
0
 62
     0
100
AcDbLine
 10
145.112575
 20
89.4504
 30
0.0
 11
131.112575
 21
89.4504
 31
0.0
  0
LINE
  5
204
330
6F
100
AcDbEntity
  8
0
 62
     0
100
AcDbLine
 10
131.112575
 20
89.4504
 30
0.0
 11
131.112575
 21
103.4497
 31
0.0
  0
LINE
  5
205
330
6F
100
AcDbEntity
  8
0
 62
     0
100
AcDbLine
 10
112.062575
 20
103.4497
 30
0.0
 11
126.062575
 21
103.4497
 31
0.0
  0
LINE
  5
206
330
6F
100
AcDbEntity
  8
0
 62
     0
100
AcDbLine
 10
126.062575
 20
103.4497
 30
0.0
 11
126.062575
 21
89.4504
 31
0.0
  0
LINE
  5
207
330
6F
100
AcDbEntity
  8
0
 62
     0
100
AcDbLine
 10
126.062575
 20
89.4504
 30
0.0
 11
112.062575
 21
89.4504
 31
0.0
  0
LINE
  5
208
330
6F
100
AcDbEntity
  8
0
 62
     0
100
AcDbLine
 10
112.062575
 20
89.4504
 30
0.0
 11
112.062575
 21
103.4497
 31
0.0
  0
LINE
  5
209
330
6F
100
AcDbEntity
  8
0
 62
     0
100
AcDbLine
 10
93.01277500000001
 20
103.4497
 30
0.0
 11
107.012075
 21
103.4497
 31
0.0
  0
LINE
  5
20A
330
6F
100
AcDbEntity
  8
0
 62
     0
100
AcDbLine
 10
107.012075
 20
103.4497
 30
0.0
 11
107.012075
 21
89.4504
 31
0.0
  0
LINE
  5
20B
330
6F
100
AcDbEntity
  8
0
 62
     0
100
AcDbLine
 10
107.012075
 20
89.4504
 30
0.0
 11
93.01277500000001
 21
89.4504
 31
0.0
  0
LINE
  5
20C
330
6F
100
AcDbEntity
  8
0
 62
     0
100
AcDbLine
 10
93.01277500000001
 20
89.4504
 30
0.0
 11
93.01277500000001
 21
103.4497
 31
0.0
  0
LINE
  5
20D
330
6F
100
AcDbEntity
  8
0
 62
     0
100
AcDbLine
 10
73.962775
 20
103.4497
 30
0.0
 11
87.96207499999999
 21
103.4497
 31
0.0
  0
LINE
  5
20E
330
6F
100
AcDbEntity
  8
0
 62
     0
100
AcDbLine
 10
87.96207499999999
 20
103.4497
 30
0.0
 11
87.96207499999999
 21
89.4504
 31
0.0
  0
LINE
  5
20F
330
6F
100
AcDbEntity
  8
0
 62
     0
100
AcDbLine
 10
87.96207499999999
 20
89.4504
 30
0.0
 11
73.962775
 21
89.4504
 31
0.0
  0
LINE
  5
210
330
6F
100
AcDbEntity
  8
0
 62
     0
100
AcDbLine
 10
73.962775
 20
89.4504
 30
0.0
 11
73.962775
 21
103.4497
 31
0.0
  0
LINE
  5
211
330
6F
100
AcDbEntity
  8
0
 62
     0
100
AcDbLine
 10
54.91277500000001
 20
103.4497
 30
0.0
 11
68.912075
 21
103.4497
 31
0.0
  0
LINE
  5
212
330
6F
100
AcDbEntity
  8
0
 62
     0
100
AcDbLine
 10
68.912075
 20
103.4497
 30
0.0
 11
68.912075
 21
89.4504
 31
0.0
  0
LINE
  5
213
330
6F
100
AcDbEntity
  8
0
 62
     0
100
AcDbLine
 10
68.912075
 20
89.4504
 30
0.0
 11
54.91277500000001
 21
89.4504
 31
0.0
  0
LINE
  5
214
330
6F
100
AcDbEntity
  8
0
 62
     0
100
AcDbLine
 10
54.91277500000001
 20
89.4504
 30
0.0
 11
54.91277500000001
 21
103.4497
 31
0.0
  0
LINE
  5
215
330
6F
100
AcDbEntity
  8
0
 62
     0
100
AcDbLine
 10
35.86277500000001
 20
103.4497
 30
0.0
 11
49.862075
 21
103.4497
 31
0.0
  0
LINE
  5
216
330
6F
100
AcDbEntity
  8
0
 62
     0
100
AcDbLine
 10
49.862075
 20
103.4497
 30
0.0
 11
49.862075
 21
89.4504
 31
0.0
  0
LINE
  5
217
330
6F
100
AcDbEntity
  8
0
 62
     0
100
AcDbLine
 10
49.862075
 20
89.4504
 30
0.0
 11
35.86277500000001
 21
89.4504
 31
0.0
  0
LINE
  5
218
330
6F
100
AcDbEntity
  8
0
 62
     0
100
AcDbLine
 10
35.86277500000001
 20
89.4504
 30
0.0
 11
35.86277500000001
 21
103.4497
 31
0.0
  0
LINE
  5
219
330
6F
100
AcDbEntity
  8
0
 62
     0
100
AcDbLine
 10
12.05022500000001
 20
103.4497
 30
0.0
 11
26.04977500000001
 21
103.4497
 31
0.0
  0
LINE
  5
21A
330
6F
100
AcDbEntity
  8
0
 62
     0
100
AcDbLine
 10
26.04977500000001
 20
103.4497
 30
0.0
 11
26.04977500000001
 21
89.4504
 31
0.0
  0
LINE
  5
21B
330
6F
100
AcDbEntity
  8
0
 62
     0
100
AcDbLine
 10
26.04977500000001
 20
89.4504
 30
0.0
 11
12.05022500000001
 21
89.4504
 31
0.0
  0
LINE
  5
21C
330
6F
100
AcDbEntity
  8
0
 62
     0
100
AcDbLine
 10
12.05022500000001
 20
89.4504
 30
0.0
 11
12.05022500000001
 21
103.4497
 31
0.0
  0
LINE
  5
21D
330
6F
100
AcDbEntity
  8
0
 62
     0
100
AcDbLine
 10
326.375575
 20
122.4996
 30
0.0
 11
340.3745750000001
 21
122.4996
 31
0.0
  0
LINE
  5
21E
330
6F
100
AcDbEntity
  8
0
 62
     0
100
AcDbLine
 10
340.3745750000001
 20
122.4996
 30
0.0
 11
340.3745750000001
 21
108.5004
 31
0.0
  0
LINE
  5
21F
330
6F
100
AcDbEntity
  8
0
 62
     0
100
AcDbLine
 10
340.3745750000001
 20
108.5004
 30
0.0
 11
326.375575
 21
108.5004
 31
0.0
  0
LINE
  5
220
330
6F
100
AcDbEntity
  8
0
 62
     0
100
AcDbLine
 10
326.375575
 20
108.5004
 30
0.0
 11
326.375575
 21
122.4996
 31
0.0
  0
LINE
  5
221
330
6F
100
AcDbEntity
  8
0
 62
     0
100
AcDbLine
 10
302.5625750000001
 20
122.4996
 30
0.0
 11
316.562575
 21
122.4996
 31
0.0
  0
LINE
  5
222
330
6F
100
AcDbEntity
  8
0
 62
     0
100
AcDbLine
 10
316.562575
 20
122.4996
 30
0.0
 11
316.562575
 21
108.5004
 31
0.0
  0
LINE
  5
223
330
6F
100
AcDbEntity
  8
0
 62
     0
100
AcDbLine
 10
316.562575
 20
108.5004
 30
0.0
 11
302.5625750000001
 21
108.5004
 31
0.0
  0
LINE
  5
224
330
6F
100
AcDbEntity
  8
0
 62
     0
100
AcDbLine
 10
302.5625750000001
 20
108.5004
 30
0.0
 11
302.5625750000001
 21
122.4996
 31
0.0
  0
LINE
  5
225
330
6F
100
AcDbEntity
  8
0
 62
     0
100
AcDbLine
 10
283.512575
 20
122.4996
 30
0.0
 11
297.512575
 21
122.4996
 31
0.0
  0
LINE
  5
226
330
6F
100
AcDbEntity
  8
0
 62
     0
100
AcDbLine
 10
297.512575
 20
122.4996
 30
0.0
 11
297.512575
 21
108.5004
 31
0.0
  0
LINE
  5
227
330
6F
100
AcDbEntity
  8
0
 62
     0
100
AcDbLine
 10
297.512575
 20
108.5004
 30
0.0
 11
283.512575
 21
108.5004
 31
0.0
  0
LINE
  5
228
330
6F
100
AcDbEntity
  8
0
 62
     0
100
AcDbLine
 10
283.512575
 20
108.5004
 30
0.0
 11
283.512575
 21
122.4996
 31
0.0
  0
LINE
  5
229
330
6F
100
AcDbEntity
  8
0
 62
     0
100
AcDbLine
 10
264.462575
 20
122.4996
 30
0.0
 11
278.462575
 21
122.4996
 31
0.0
  0
LINE
  5
22A
330
6F
100
AcDbEntity
  8
0
 62
     0
100
AcDbLine
 10
278.462575
 20
122.4996
 30
0.0
 11
278.462575
 21
108.5004
 31
0.0
  0
LINE
  5
22B
330
6F
100
AcDbEntity
  8
0
 62
     0
100
AcDbLine
 10
278.462575
 20
108.5004
 30
0.0
 11
264.462575
 21
108.5004
 31
0.0
  0
LINE
  5
22C
330
6F
100
AcDbEntity
  8
0
 62
     0
100
AcDbLine
 10
264.462575
 20
108.5004
 30
0.0
 11
264.462575
 21
122.4996
 31
0.0
  0
LINE
  5
22D
330
6F
100
AcDbEntity
  8
0
 62
     0
100
AcDbLine
 10
245.412575
 20
122.4996
 30
0.0
 11
259.412575
 21
122.4996
 31
0.0
  0
LINE
  5
22E
330
6F
100
AcDbEntity
  8
0
 62
     0
100
AcDbLine
 10
259.412575
 20
122.4996
 30
0.0
 11
259.412575
 21
108.5004
 31
0.0
  0
LINE
  5
22F
330
6F
100
AcDbEntity
  8
0
 62
     0
100
AcDbLine
 10
259.412575
 20
108.5004
 30
0.0
 11
245.412575
 21
108.5004
 31
0.0
  0
LINE
  5
230
330
6F
100
AcDbEntity
  8
0
 62
     0
100
AcDbLine
 10
245.412575
 20
108.5004
 30
0.0
 11
245.412575
 21
122.4996
 31
0.0
  0
LINE
  5
231
330
6F
100
AcDbEntity
  8
0
 62
     0
100
AcDbLine
 10
212.075575
 20
122.4996
 30
0.0
 11
226.074575
 21
122.4996
 31
0.0
  0
LINE
  5
232
330
6F
100
AcDbEntity
  8
0
 62
     0
100
AcDbLine
 10
226.074575
 20
122.4996
 30
0.0
 11
226.074575
 21
108.5004
 31
0.0
  0
LINE
  5
233
330
6F
100
AcDbEntity
  8
0
 62
     0
100
AcDbLine
 10
226.074575
 20
108.5004
 30
0.0
 11
212.075575
 21
108.5004
 31
0.0
  0
LINE
  5
234
330
6F
100
AcDbEntity
  8
0
 62
     0
100
AcDbLine
 10
212.075575
 20
108.5004
 30
0.0
 11
212.075575
 21
122.4996
 31
0.0
  0
LINE
  5
235
330
6F
100
AcDbEntity
  8
0
 62
     0
100
AcDbLine
 10
193.025575
 20
122.4996
 30
0.0
 11
207.024575
 21
122.4996
 31
0.0
  0
LINE
  5
236
330
6F
100
AcDbEntity
  8
0
 62
     0
100
AcDbLine
 10
207.024575
 20
122.4996
 30
0.0
 11
207.024575
 21
108.5004
 31
0.0
  0
LINE
  5
237
330
6F
100
AcDbEntity
  8
0
 62
     0
100
AcDbLine
 10
207.024575
 20
108.5004
 30
0.0
 11
193.025575
 21
108.5004
 31
0.0
  0
LINE
  5
238
330
6F
100
AcDbEntity
  8
0
 62
     0
100
AcDbLine
 10
193.025575
 20
108.5004
 30
0.0
 11
193.025575
 21
122.4996
 31
0.0
  0
LINE
  5
239
330
6F
100
AcDbEntity
  8
0
 62
     0
100
AcDbLine
 10
173.975575
 20
122.4996
 30
0.0
 11
187.974575
 21
122.4996
 31
0.0
  0
LINE
  5
23A
330
6F
100
AcDbEntity
  8
0
 62
     0
100
AcDbLine
 10
187.974575
 20
122.4996
 30
0.0
 11
187.974575
 21
108.5004
 31
0.0
  0
LINE
  5
23B
330
6F
100
AcDbEntity
  8
0
 62
     0
100
AcDbLine
 10
187.974575
 20
108.5004
 30
0.0
 11
173.975575
 21
108.5004
 31
0.0
  0
LINE
  5
23C
330
6F
100
AcDbEntity
  8
0
 62
     0
100
AcDbLine
 10
173.975575
 20
108.5004
 30
0.0
 11
173.975575
 21
122.4996
 31
0.0
  0
LINE
  5
23D
330
6F
100
AcDbEntity
  8
0
 62
     0
100
AcDbLine
 10
154.923575
 20
122.4996
 30
0.0
 11
168.924575
 21
122.4996
 31
0.0
  0
LINE
  5
23E
330
6F
100
AcDbEntity
  8
0
 62
     0
100
AcDbLine
 10
168.924575
 20
122.4996
 30
0.0
 11
168.924575
 21
108.5004
 31
0.0
  0
LINE
  5
23F
330
6F
100
AcDbEntity
  8
0
 62
     0
100
AcDbLine
 10
168.924575
 20
108.5004
 30
0.0
 11
154.923575
 21
108.5004
 31
0.0
  0
LINE
  5
240
330
6F
100
AcDbEntity
  8
0
 62
     0
100
AcDbLine
 10
154.923575
 20
108.5004
 30
0.0
 11
154.923575
 21
122.4996
 31
0.0
  0
LINE
  5
241
330
6F
100
AcDbEntity
  8
0
 62
     0
100
AcDbLine
 10
121.587575
 20
122.4996
 30
0.0
 11
135.587575
 21
122.4996
 31
0.0
  0
LINE
  5
242
330
6F
100
AcDbEntity
  8
0
 62
     0
100
AcDbLine
 10
135.587575
 20
122.4996
 30
0.0
 11
135.587575
 21
108.5004
 31
0.0
  0
LINE
  5
243
330
6F
100
AcDbEntity
  8
0
 62
     0
100
AcDbLine
 10
135.587575
 20
108.5004
 30
0.0
 11
121.587575
 21
108.5004
 31
0.0
  0
LINE
  5
244
330
6F
100
AcDbEntity
  8
0
 62
     0
100
AcDbLine
 10
121.587575
 20
108.5004
 30
0.0
 11
121.587575
 21
122.4996
 31
0.0
  0
LINE
  5
245
330
6F
100
AcDbEntity
  8
0
 62
     0
100
AcDbLine
 10
102.537775
 20
122.4996
 30
0.0
 11
116.537575
 21
122.4996
 31
0.0
  0
LINE
  5
246
330
6F
100
AcDbEntity
  8
0
 62
     0
100
AcDbLine
 10
116.537575
 20
122.4996
 30
0.0
 11
116.537575
 21
108.5004
 31
0.0
  0
LINE
  5
247
330
6F
100
AcDbEntity
  8
0
 62
     0
100
AcDbLine
 10
116.537575
 20
108.5004
 30
0.0
 11
102.537775
 21
108.5004
 31
0.0
  0
LINE
  5
248
330
6F
100
AcDbEntity
  8
0
 62
     0
100
AcDbLine
 10
102.537775
 20
108.5004
 30
0.0
 11
102.537775
 21
122.4996
 31
0.0
  0
LINE
  5
249
330
6F
100
AcDbEntity
  8
0
 62
     0
100
AcDbLine
 10
83.487775
 20
122.4996
 30
0.0
 11
97.48707500000001
 21
122.4996
 31
0.0
  0
LINE
  5
24A
330
6F
100
AcDbEntity
  8
0
 62
     0
100
AcDbLine
 10
97.48707500000001
 20
122.4996
 30
0.0
 11
97.48707500000001
 21
108.5004
 31
0.0
  0
LINE
  5
24B
330
6F
100
AcDbEntity
  8
0
 62
     0
100
AcDbLine
 10
97.48707500000001
 20
108.5004
 30
0.0
 11
83.487775
 21
108.5004
 31
0.0
  0
LINE
  5
24C
330
6F
100
AcDbEntity
  8
0
 62
     0
100
AcDbLine
 10
83.487775
 20
108.5004
 30
0.0
 11
83.487775
 21
122.4996
 31
0.0
  0
LINE
  5
24D
330
6F
100
AcDbEntity
  8
0
 62
     0
100
AcDbLine
 10
64.437775
 20
122.4996
 30
0.0
 11
78.437075
 21
122.4996
 31
0.0
  0
LINE
  5
24E
330
6F
100
AcDbEntity
  8
0
 62
     0
100
AcDbLine
 10
78.437075
 20
122.4996
 30
0.0
 11
78.437075
 21
108.5004
 31
0.0
  0
LINE
  5
24F
330
6F
100
AcDbEntity
  8
0
 62
     0
100
AcDbLine
 10
78.437075
 20
108.5004
 30
0.0
 11
64.437775
 21
108.5004
 31
0.0
  0
LINE
  5
250
330
6F
100
AcDbEntity
  8
0
 62
     0
100
AcDbLine
 10
64.437775
 20
108.5004
 30
0.0
 11
64.437775
 21
122.4996
 31
0.0
  0
LINE
  5
251
330
6F
100
AcDbEntity
  8
0
 62
     0
100
AcDbLine
 10
35.86277500000001
 20
122.4996
 30
0.0
 11
49.862075
 21
122.4996
 31
0.0
  0
LINE
  5
252
330
6F
100
AcDbEntity
  8
0
 62
     0
100
AcDbLine
 10
49.862075
 20
122.4996
 30
0.0
 11
49.862075
 21
108.5004
 31
0.0
  0
LINE
  5
253
330
6F
100
AcDbEntity
  8
0
 62
     0
100
AcDbLine
 10
49.862075
 20
108.5004
 30
0.0
 11
35.86277500000001
 21
108.5004
 31
0.0
  0
LINE
  5
254
330
6F
100
AcDbEntity
  8
0
 62
     0
100
AcDbLine
 10
35.86277500000001
 20
108.5004
 30
0.0
 11
35.86277500000001
 21
122.4996
 31
0.0
  0
LINE
  5
255
330
6F
100
AcDbEntity
  8
0
 62
     0
100
AcDbLine
 10
12.05022500000001
 20
122.4996
 30
0.0
 11
26.04977500000001
 21
122.4996
 31
0.0
  0
LINE
  5
256
330
6F
100
AcDbEntity
  8
0
 62
     0
100
AcDbLine
 10
26.04977500000001
 20
122.4996
 30
0.0
 11
26.04977500000001
 21
108.5004
 31
0.0
  0
LINE
  5
257
330
6F
100
AcDbEntity
  8
0
 62
     0
100
AcDbLine
 10
26.04977500000001
 20
108.5004
 30
0.0
 11
12.05022500000001
 21
108.5004
 31
0.0
  0
LINE
  5
258
330
6F
100
AcDbEntity
  8
0
 62
     0
100
AcDbLine
 10
12.05022500000001
 20
108.5004
 30
0.0
 11
12.05022500000001
 21
122.4996
 31
0.0
  0
POINT
  5
266
330
6F
100
AcDbEntity
  8
0
  6
Continuous
100
AcDbPoint
 10
0.0
 20
0.0
 30
0.0
  0
POINT
  5
279
330
6F
100
AcDbEntity
  8
0
  6
Continuous
100
AcDbPoint
 10
0.0
 20
0.0
 30
0.0
  0
LINE
  5
287
330
6F
100
AcDbEntity
  8
0
  6
Continuous
100
AcDbLine
 10
26.04977500000001
 20
108.5004
 30
0.0
 11
12.05022500000001
 21
108.5004
 31
0.0
  0
CIRCLE
  5
29E
330
6F
100
AcDbEntity
  8
0
  6
Continuous
100
AcDbCircle
 10
19.05000000000001
 20
115.5
 30
0.0
 40
2.0
  0
CIRCLE
  5
2B7
330
6F
100
AcDbEntity
  8
0
  6
Continuous
100
AcDbCircle
 10
42.86255000000002
 20
115.5
 30
0.0
 40
2.0
  0
CIRCLE
  5
2B8
330
6F
100
AcDbEntity
  8
0
  6
Continuous
100
AcDbCircle
 10
71.43755000000002
 20
115.5
 30
0.0
 40
2.0
  0
CIRCLE
  5
2B9
330
6F
100
AcDbEntity
  8
0
  6
Continuous
100
AcDbCircle
 10
90.48754999999999
 20
115.5
 30
0.0
 40
2.0
  0
CIRCLE
  5
2BA
330
6F
100
AcDbEntity
  8
0
  6
Continuous
100
AcDbCircle
 10
109.53755
 20
115.5
 30
0.0
 40
2.0
  0
CIRCLE
  5
2BB
330
6F
100
AcDbEntity
  8
0
  6
Continuous
100
AcDbCircle
 10
128.58735
 20
115.5
 30
0.0
 40
2.0
  0
CIRCLE
  5
2BC
330
6F
100
AcDbEntity
  8
0
  6
Continuous
100
AcDbCircle
 10
161.92335
 20
115.5
 30
0.0
 40
2.0
  0
CIRCLE
  5
2BD
330
6F
100
AcDbEntity
  8
0
  6
Continuous
100
AcDbCircle
 10
180.97535
 20
115.5
 30
0.0
 40
2.0
  0
CIRCLE
  5
2BE
330
6F
100
AcDbEntity
  8
0
  6
Continuous
100
AcDbCircle
 10
200.02535
 20
115.5
 30
0.0
 40
2.0
  0
CIRCLE
  5
2BF
330
6F
100
AcDbEntity
  8
0
  6
Continuous
100
AcDbCircle
 10
219.07535
 20
115.5
 30
0.0
 40
2.0
  0
CIRCLE
  5
2C0
330
6F
100
AcDbEntity
  8
0
  6
Continuous
100
AcDbCircle
 10
252.41235
 20
115.5
 30
0.0
 40
2.0
  0
CIRCLE
  5
2C1
330
6F
100
AcDbEntity
  8
0
  6
Continuous
100
AcDbCircle
 10
271.46235
 20
115.5
 30
0.0
 40
2.0
  0
CIRCLE
  5
2C2
330
6F
100
AcDbEntity
  8
0
  6
Continuous
100
AcDbCircle
 10
290.51235
 20
115.5
 30
0.0
 40
2.0
  0
CIRCLE
  5
2C3
330
6F
100
AcDbEntity
  8
0
  6
Continuous
100
AcDbCircle
 10
309.56235
 20
115.5
 30
0.0
 40
2.0
  0
CIRCLE
  5
2C4
330
6F
100
AcDbEntity
  8
0
  6
Continuous
100
AcDbCircle
 10
333.37535
 20
115.5
 30
0.0
 40
2.0
  0
CIRCLE
  5
2C5
330
6F
100
AcDbEntity
  8
0
  6
Continuous
100
AcDbCircle
 10
333.37535
 20
96.44999999999999
 30
0.0
 40
2.0
  0
CIRCLE
  5
2C6
330
6F
100
AcDbEntity
  8
0
  6
Continuous
100
AcDbCircle
 10
300.0373500000001
 20
96.44999999999999
 30
0.0
 40
2.0
  0
CIRCLE
  5
2C7
330
6F
100
AcDbEntity
  8
0
  6
Continuous
100
AcDbCircle
 10
333.37535
 20
77.39999999999998
 30
0.0
 40
2.0
  0
CIRCLE
  5
2C8
330
6F
100
AcDbEntity
  8
0
  6
Continuous
100
AcDbCircle
 10
333.37535
 20
58.34999999999999
 30
0.0
 40
2.0
  0
CIRCLE
  5
2C9
330
6F
100
AcDbEntity
  8
0
  6
Continuous
100
AcDbCircle
 10
307.18135
 20
67.87499999999998
 30
0.0
 40
2.0
  0
CIRCLE
  5
2CA
330
6F
100
AcDbEntity
  8
0
  6
Continuous
100
AcDbCircle
 10
271.46235
 20
96.44999999999999
 30
0.0
 40
2.0
  0
CIRCLE
  5
2CB
330
6F
100
AcDbEntity
  8
0
  6
Continuous
100
AcDbCircle
 10
252.41235
 20
96.44999999999999
 30
0.0
 40
2.0
  0
CIRCLE
  5
2CC
330
6F
100
AcDbEntity
  8
0
  6
Continuous
100
AcDbCircle
 10
233.36235
 20
96.44999999999999
 30
0.0
 40
2.0
  0
CIRCLE
  5
2CD
330
6F
100
AcDbEntity
  8
0
  6
Continuous
100
AcDbCircle
 10
214.31235
 20
96.44999999999999
 30
0.0
 40
2.0
  0
CIRCLE
  5
2CE
330
6F
100
AcDbEntity
  8
0
  6
Continuous
100
AcDbCircle
 10
195.26235
 20
96.44999999999999
 30
0.0
 40
2.0
  0
CIRCLE
  5
2CF
330
6F
100
AcDbEntity
  8
0
  6
Continuous
100
AcDbCircle
 10
176.21235
 20
96.44999999999999
 30
0.0
 40
2.0
  0
CIRCLE
  5
2D0
330
6F
100
AcDbEntity
  8
0
  6
Continuous
100
AcDbCircle
 10
157.16235
 20
96.44999999999999
 30
0.0
 40
2.0
  0
CIRCLE
  5
2D1
330
6F
100
AcDbEntity
  8
0
  6
Continuous
100
AcDbCircle
 10
138.11235
 20
96.44999999999999
 30
0.0
 40
2.0
  0
CIRCLE
  5
2D2
330
6F
100
AcDbEntity
  8
0
  6
Continuous
100
AcDbCircle
 10
119.06235
 20
96.44999999999999
 30
0.0
 40
2.0
  0
CIRCLE
  5
2D3
330
6F
100
AcDbEntity
  8
0
  6
Continuous
100
AcDbCircle
 10
100.01255
 20
96.44999999999999
 30
0.0
 40
2.0
  0
CIRCLE
  5
2D4
330
6F
100
AcDbEntity
  8
0
  6
Continuous
100
AcDbCircle
 10
80.96255000000002
 20
96.44999999999999
 30
0.0
 40
2.0
  0
CIRCLE
  5
2D5
330
6F
100
AcDbEntity
  8
0
  6
Continuous
100
AcDbCircle
 10
61.91255000000001
 20
96.44999999999999
 30
0.0
 40
2.0
  0
CIRCLE
  5
2D6
330
6F
100
AcDbEntity
  8
0
  6
Continuous
100
AcDbCircle
 10
42.86255000000002
 20
96.44999999999999
 30
0.0
 40
2.0
  0
CIRCLE
  5
2D7
330
6F
100
AcDbEntity
  8
0
  6
Continuous
100
AcDbCircle
 10
19.05000000000001
 20
96.44999999999999
 30
0.0
 40
2.0
  0
CIRCLE
  5
2D8
330
6F
100
AcDbEntity
  8
0
  6
Continuous
100
AcDbCircle
 10
19.05000000000001
 20
77.39999999999998
 30
0.0
 40
2.0
  0
CIRCLE
  5
2D9
330
6F
100
AcDbEntity
  8
0
  6
Continuous
100
AcDbCircle
 10
47.62505000000001
 20
77.39999999999998
 30
0.0
 40
2.0
  0
CIRCLE
  5
2DA
330
6F
100
AcDbEntity
  8
0
  6
Continuous
100
AcDbCircle
 10
71.43755000000002
 20
77.39999999999998
 30
0.0
 40
2.0
  0
CIRCLE
  5
2DB
330
6F
100
AcDbEntity
  8
0
  6
Continuous
100
AcDbCircle
 10
90.48754999999999
 20
77.39999999999998
 30
0.0
 40
2.0
  0
CIRCLE
  5
2DC
330
6F
100
AcDbEntity
  8
0
  6
Continuous
100
AcDbCircle
 10
109.53755
 20
77.39999999999998
 30
0.0
 40
2.0
  0
CIRCLE
  5
2DD
330
6F
100
AcDbEntity
  8
0
  6
Continuous
100
AcDbCircle
 10
128.58735
 20
77.39999999999998
 30
0.0
 40
2.0
  0
CIRCLE
  5
2DE
330
6F
100
AcDbEntity
  8
0
  6
Continuous
100
AcDbCircle
 10
147.63735
 20
77.39999999999998
 30
0.0
 40
2.0
  0
CIRCLE
  5
2DF
330
6F
100
AcDbEntity
  8
0
  6
Continuous
100
AcDbCircle
 10
166.68735
 20
77.39999999999998
 30
0.0
 40
2.0
  0
CIRCLE
  5
2E0
330
6F
100
AcDbEntity
  8
0
  6
Continuous
100
AcDbCircle
 10
185.73735
 20
77.39999999999998
 30
0.0
 40
2.0
  0
CIRCLE
  5
2E1
330
6F
100
AcDbEntity
  8
0
  6
Continuous
100
AcDbCircle
 10
204.78735
 20
77.39999999999998
 30
0.0
 40
2.0
  0
CIRCLE
  5
2E2
330
6F
100
AcDbEntity
  8
0
  6
Continuous
100
AcDbCircle
 10
223.83735
 20
77.39999999999998
 30
0.0
 40
2.0
  0
CIRCLE
  5
2E3
330
6F
100
AcDbEntity
  8
0
  6
Continuous
100
AcDbCircle
 10
242.88735
 20
77.39999999999998
 30
0.0
 40
2.0
  0
CIRCLE
  5
2E4
330
6F
100
AcDbEntity
  8
0
  6
Continuous
100
AcDbCircle
 10
261.93735
 20
77.39999999999998
 30
0.0
 40
2.0
  0
CIRCLE
  5
2E5
330
6F
100
AcDbEntity
  8
0
  6
Continuous
100
AcDbCircle
 10
280.9873500000001
 20
77.39999999999998
 30
0.0
 40
2.0
  0
CIRCLE
  5
2E6
330
6F
100
AcDbEntity
  8
0
  6
Continuous
100
AcDbCircle
 10
285.75035
 20
58.34999999999999
 30
0.0
 40
2.0
  0
CIRCLE
  5
2E7
330
6F
100
AcDbEntity
  8
0
  6
Continuous
100
AcDbCircle
 10
266.70035
 20
58.34999999999999
 30
0.0
 40
2.0
  0
CIRCLE
  5
2E8
330
6F
100
AcDbEntity
  8
0
  6
Continuous
100
AcDbCircle
 10
247.65035
 20
58.34999999999999
 30
0.0
 40
2.0
  0
CIRCLE
  5
2E9
330
6F
100
AcDbEntity
  8
0
  6
Continuous
100
AcDbCircle
 10
228.60035
 20
58.34999999999999
 30
0.0
 40
2.0
  0
CIRCLE
  5
2EA
330
6F
100
AcDbEntity
  8
0
  6
Continuous
100
AcDbCircle
 10
209.55035
 20
58.34999999999999
 30
0.0
 40
2.0
  0
CIRCLE
  5
2EB
330
6F
100
AcDbEntity
  8
0
  6
Continuous
100
AcDbCircle
 10
190.50035
 20
58.34999999999999
 30
0.0
 40
2.0
  0
CIRCLE
  5
2EC
330
6F
100
AcDbEntity
  8
0
  6
Continuous
100
AcDbCircle
 10
171.45035
 20
58.34999999999999
 30
0.0
 40
2.0
  0
CIRCLE
  5
2ED
330
6F
100
AcDbEntity
  8
0
  6
Continuous
100
AcDbCircle
 10
152.40035
 20
58.34999999999999
 30
0.0
 40
2.0
  0
CIRCLE
  5
2EE
330
6F
100
AcDbEntity
  8
0
  6
Continuous
100
AcDbCircle
 10
133.35035
 20
58.34999999999999
 30
0.0
 40
2.0
  0
CIRCLE
  5
2EF
330
6F
100
AcDbEntity
  8
0
  6
Continuous
100
AcDbCircle
 10
114.30005
 20
58.34999999999999
 30
0.0
 40
2.0
  0
CIRCLE
  5
2F0
330
6F
100
AcDbEntity
  8
0
  6
Continuous
100
AcDbCircle
 10
95.25005000000001
 20
58.34999999999999
 30
0.0
 40
2.0
  0
CIRCLE
  5
2F1
330
6F
100
AcDbEntity
  8
0
  6
Continuous
100
AcDbCircle
 10
76.20005
 20
58.34999999999999
 30
0.0
 40
2.0
  0
CIRCLE
  5
2F2
330
6F
100
AcDbEntity
  8
0
  6
Continuous
100
AcDbCircle
 10
50.00625000000002
 20
58.34999999999999
 30
0.0
 40
2.0
  0
CIRCLE
  5
2F3
330
6F
100
AcDbEntity
  8
0
  6
Continuous
100
AcDbCircle
 10
19.05000000000001
 20
58.34999999999999
 30
0.0
 40
2.0
  0
CIRCLE
  5
2F4
330
6F
100
AcDbEntity
  8
0
  6
Continuous
100
AcDbCircle
 10
19.05000000000001
 20
39.29979999999999
 30
0.0
 40
2.0
  0
CIRCLE
  5
2F5
330
6F
100
AcDbEntity
  8
0
  6
Continuous
100
AcDbCircle
 10
45.24235
 20
39.29979999999999
 30
0.0
 40
2.0
  0
CIRCLE
  5
2F6
330
6F
100
AcDbEntity
  8
0
  6
Continuous
100
AcDbCircle
 10
66.67505000000002
 20
39.29979999999999
 30
0.0
 40
2.0
  0
CIRCLE
  5
2F7
330
6F
100
AcDbEntity
  8
0
  6
Continuous
100
AcDbCircle
 10
85.72505000000001
 20
39.29979999999999
 30
0.0
 40
2.0
  0
CIRCLE
  5
2F8
330
6F
100
AcDbEntity
  8
0
  6
Continuous
100
AcDbCircle
 10
104.77505
 20
39.29979999999999
 30
0.0
 40
2.0
  0
CIRCLE
  5
2F9
330
6F
100
AcDbEntity
  8
0
  6
Continuous
100
AcDbCircle
 10
123.82535
 20
39.29979999999999
 30
0.0
 40
2.0
  0
CIRCLE
  5
2FA
330
6F
100
AcDbEntity
  8
0
  6
Continuous
100
AcDbCircle
 10
142.87535
 20
39.29979999999999
 30
0.0
 40
2.0
  0
CIRCLE
  5
2FB
330
6F
100
AcDbEntity
  8
0
  6
Continuous
100
AcDbCircle
 10
161.92535
 20
39.29979999999999
 30
0.0
 40
2.0
  0
CIRCLE
  5
2FC
330
6F
100
AcDbEntity
  8
0
  6
Continuous
100
AcDbCircle
 10
180.97535
 20
39.29979999999999
 30
0.0
 40
2.0
  0
CIRCLE
  5
2FD
330
6F
100
AcDbEntity
  8
0
  6
Continuous
100
AcDbCircle
 10
200.02535
 20
39.29979999999999
 30
0.0
 40
2.0
  0
CIRCLE
  5
2FE
330
6F
100
AcDbEntity
  8
0
  6
Continuous
100
AcDbCircle
 10
219.07535
 20
39.29979999999999
 30
0.0
 40
2.0
  0
CIRCLE
  5
2FF
330
6F
100
AcDbEntity
  8
0
  6
Continuous
100
AcDbCircle
 10
238.12535
 20
39.29979999999999
 30
0.0
 40
2.0
  0
CIRCLE
  5
300
330
6F
100
AcDbEntity
  8
0
  6
Continuous
100
AcDbCircle
 10
257.17535
 20
39.29979999999999
 30
0.0
 40
2.0
  0
CIRCLE
  5
301
330
6F
100
AcDbEntity
  8
0
  6
Continuous
100
AcDbCircle
 10
283.3673500000001
 20
39.29979999999999
 30
0.0
 40
2.0
  0
CIRCLE
  5
302
330
6F
100
AcDbEntity
  8
0
  6
Continuous
100
AcDbCircle
 10
309.56235
 20
39.29979999999999
 30
0.0
 40
2.0
  0
CIRCLE
  5
303
330
6F
100
AcDbEntity
  8
0
  6
Continuous
100
AcDbCircle
 10
328.61235
 20
20.24983999999999
 30
0.0
 40
2.0
  0
CIRCLE
  5
304
330
6F
100
AcDbEntity
  8
0
  6
Continuous
100
AcDbCircle
 10
309.56235
 20
20.24983999999999
 30
0.0
 40
2.0
  0
CIRCLE
  5
305
330
6F
100
AcDbEntity
  8
0
  6
Continuous
100
AcDbCircle
 10
290.51235
 20
20.24983999999999
 30
0.0
 40
2.0
  0
CIRCLE
  5
306
330
6F
100
AcDbEntity
  8
0
  6
Continuous
100
AcDbCircle
 10
242.88735
 20
20.24983999999999
 30
0.0
 40
2.0
  0
CIRCLE
  5
307
330
6F
100
AcDbEntity
  8
0
  6
Continuous
100
AcDbCircle
 10
221.45635
 20
20.24983999999999
 30
0.0
 40
2.0
  0
CIRCLE
  5
308
330
6F
100
AcDbEntity
  8
0
  6
Continuous
100
AcDbCircle
 10
188.11735
 20
20.24983999999999
 30
0.0
 40
2.0
  0
CIRCLE
  5
309
330
6F
100
AcDbEntity
  8
0
  6
Continuous
100
AcDbCircle
 10
140.49235
 20
20.24983999999999
 30
0.0
 40
2.0
  0
CIRCLE
  5
30A
330
6F
100
AcDbEntity
  8
0
  6
Continuous
100
AcDbCircle
 10
102.39245
 20
20.24983999999999
 30
0.0
 40
2.0
  0
CIRCLE
  5
30B
330
6F
100
AcDbEntity
  8
0
  6
Continuous
100
AcDbCircle
 10
80.96255000000002
 20
20.24983999999999
 30
0.0
 40
2.0
  0
CIRCLE
  5
30C
330
6F
100
AcDbEntity
  8
0
  6
Continuous
100
AcDbCircle
 10
61.91255000000001
 20
20.24983999999999
 30
0.0
 40
2.0
  0
CIRCLE
  5
30D
330
6F
100
AcDbEntity
  8
0
  6
Continuous
100
AcDbCircle
 10
42.86255000000002
 20
20.24983999999999
 30
0.0
 40
2.0
  0
LINE
  5
310
330
6F
100
AcDbEntity
  8
0
  6
Continuous
100
AcDbLine
 10
333.37535
 20
58.34999999999999
 30
0.0
 11
342.3753449205327
 21
58.35956192373623
 31
0.0
  0
LINE
  5
311
330
6F
100
AcDbEntity
  8
0
  6
Continuous
100
AcDbLine
 10
140.49235
 20
20.24983999999999
 30
0.0
 11
140.49235
 21
11.24983999999999
 31
0.0
  0
LINE
  5
312
330
6F
100
AcDbEntity
  8
0
  6
Continuous
100
AcDbLine
 10
10.05000000000001
 20
115.5
 30
0.0
 11
10.05000000000001
 21
122.5
 31
0.0
  0
LINE
  5
313
330
6F
100
AcDbEntity
  8
0
  6
Continuous
100
AcDbLine
 10
12.05000000000001
 20
124.5
 30
0.0
 11
340.3753449205328
 21
124.5
 31
0.0
  0
LINE
  5
314
330
6F
100
AcDbEntity
  8
0
  6
Continuous
100
AcDbLine
 10
342.3753449205328
 20
122.5
 30
0.0
 11
342.3753449205328
 21
13.24983999999999
 31
0.0
  0
LINE
  5
315
330
6F
100
AcDbEntity
  8
0
  6
Continuous
100
AcDbLine
 10
340.3753449205328
 20
11.24983999999999
 30
0.0
 11
12.04999999999995
 21
11.24984000000003
 31
0.0
  0
LINE
  5
316
330
6F
100
AcDbEntity
  8
0
  6
Continuous
100
AcDbLine
 10
10.05000000000001
 20
13.24984000000003
 30
0.0
 11
10.05000000000003
 21
115.5
 31
0.0
  0
LINE
  5
31A
330
6F
100
AcDbEntity
  8
0
  6
Continuous
100
AcDbLine
 10
30.95627500000002
 20
126.5
 30
0.0
 11
35.95627500000002
 21
126.5
 31
0.0
  0
LINE
  5
31C
330
6F
100
AcDbEntity
  8
0
  6
Continuous
100
AcDbLine
 10
25.95627500000002
 20
126.5
 30
0.0
 11
25.95627500000002
 21
124.5
 31
0.0
  0
LINE
  5
31D
330
6F
100
AcDbEntity
  8
0
  6
Continuous
100
AcDbLine
 10
30.95627500000002
 20
126.5
 30
0.0
 11
25.95627500000002
 21
126.5
 31
0.0
  0
LINE
  5
31E
330
6F
100
AcDbEntity
  8
0
  6
Continuous
100
AcDbLine
 10
35.95627500000002
 20
126.5
 30
0.0
 11
35.95627500000002
 21
124.5
 31
0.0
  0
LINE
  5
31F
330
6F
100
AcDbEntity
  8
0
  6
Continuous
100
AcDbLine
 10
30.95627500000002
 20
126.5
 30
0.0
 11
30.95627500000002
 21
128.9
 31
0.0
  0
LINE
  5
320
330
6F
100
AcDbEntity
  8
0
  6
Continuous
100
AcDbLine
 10
30.95627500000002
 20
128.9
 30
0.0
 11
33.95627500000002
 21
128.9
 31
0.0
  0
LINE
  5
321
330
6F
100
AcDbEntity
  8
0
  6
Continuous
100
AcDbLine
 10
30.95627500000002
 20
128.9
 30
0.0
 11
27.95627500000002
 21
128.9
 31
0.0
  0
ARC
  5
322
330
6F
100
AcDbEntity
  8
0
  6
Continuous
100
AcDbCircle
 10
340.3753449205328
 20
122.5
 30
0.0
 40
2.0
100
AcDbArc
 50
0.0
 51
90.0
  0
ARC
  5
325
330
6F
100
AcDbEntity
  8
0
  6
Continuous
100
AcDbCircle
 10
340.3753449205328
 20
13.24983999999999
 30
0.0
 40
2.0
100
AcDbArc
 50
270.0
 51
0.0
  0
ARC
  5
326
330
6F
100
AcDbEntity
  8
0
  6
Continuous
100
AcDbCircle
 10
12.05000000000001
 20
13.24984000000003
 30
0.0
 40
2.0
100
AcDbArc
 50
180.0
 51
270.0
  0
ARC
  5
327
330
6F
100
AcDbEntity
  8
0
  6
Continuous
100
AcDbCircle
 10
12.05000000000001
 20
122.5
 30
0.0
 40
2.0
100
AcDbArc
 50
90.0
 51
180.0
  0
ENDSEC
  0
SECTION
  2
OBJECTS
  0
DICTIONARY
  5
C
330
0
100
AcDbDictionary
281
     1
  3
ACAD_CIP_PREVIOUS_PRODUCT_INFO
350
25A
  3
ACAD_COLOR
350
62
  3
ACAD_DETAILVIEWSTYLE
350
69
  3
ACAD_GROUP
350
D
  3
ACAD_LAYOUT
350
61
  3
ACAD_MATERIAL
350
10
  3
ACAD_MLEADERSTYLE
350
65
  3
ACAD_MLINESTYLE
350
5E
  3
ACAD_PLOTSETTINGS
350
60
  3
ACAD_PLOTSTYLENAME
350
E
  3
ACAD_SCALELIST
350
42
  3
ACAD_SECTIONVIEWSTYLE
350
67
  3
ACAD_TABLESTYLE
350
63
  3
ACAD_VISUALSTYLE
350
29
  3
ACDB_RECOMPOSE_DATA
350
338
  3
AcDbVariableDictionary
350
29F
  0
DICTIONARY
  5
28E
330
2
100
AcDbDictionary
280
     1
281
     1
  3
ACAD_LAYERSTATES
360
28F
  0
DICTIONARY
  5
289
330
54
100
AcDbDictionary
280
     1
281
     1
  3
ADSK_XREC_LAYER_RECONCILED
360
28A
  0
DICTIONARY
  5
323
330
6F
100
AcDbDictionary
280
     1
281
     1
  3
ACAD_SORTENTS
360
324
  0
XRECORD
  5
25A
102
{ACAD_REACTORS
330
C
102
}
330
C
100
AcDbXrecord
280
     1
300
ACDMAC
300
2022
300

  0
DICTIONARY
  5
62
102
{ACAD_REACTORS
330
C
102
}
330
C
100
AcDbDictionary
281
     1
  0
DICTIONARY
  5
69
102
{ACAD_REACTORS
330
C
102
}
330
C
100
AcDbDictionary
281
     1
  3
Imperial24
350
6A
  0
DICTIONARY
  5
D
102
{ACAD_REACTORS
330
C
102
}
330
C
100
AcDbDictionary
281
     1
  0
DICTIONARY
  5
61
102
{ACAD_REACTORS
330
C
102
}
330
C
100
AcDbDictionary
281
     1
  3
Layout1
350
6E
  3
Model
350
72
  0
DICTIONARY
  5
10
102
{ACAD_REACTORS
330
C
102
}
330
C
100
AcDbDictionary
281
     1
  3
ByBlock
350
19
  3
ByLayer
350
11
  3
Global
350
21
  0
DICTIONARY
  5
65
102
{ACAD_REACTORS
330
C
102
}
330
C
100
AcDbDictionary
281
     1
  3
Standard
350
66
  0
DICTIONARY
  5
5E
102
{ACAD_REACTORS
330
C
102
}
330
C
100
AcDbDictionary
281
     1
  3
Standard
350
5F
  0
DICTIONARY
  5
60
102
{ACAD_REACTORS
330
C
102
}
330
C
100
AcDbDictionary
281
     1
  0
ACDBDICTIONARYWDFLT
  5
E
102
{ACAD_REACTORS
330
C
102
}
330
C
100
AcDbDictionary
281
     1
  3
Normal
350
F
100
AcDbDictionaryWithDefault
340
F
  0
DICTIONARY
  5
42
102
{ACAD_REACTORS
330
C
102
}
330
C
100
AcDbDictionary
281
     1
  3
A0
350
43
  3
A1
350
44
  3
A2
350
45
  3
A3
350
46
  3
A4
350
47
  3
A5
350
48
  3
A6
350
49
  3
A7
350
4A
  3
A8
350
4B
  3
A9
350
4C
  3
B0
350
4D
  3
B1
350
4E
  3
B2
350
4F
  3
B3
350
50
  3
B4
350
51
  3
B5
350
52
  3
B6
350
53
  0
DICTIONARY
  5
67
102
{ACAD_REACTORS
330
C
102
}
330
C
100
AcDbDictionary
281
     1
  3
Imperial24
350
68
  0
DICTIONARY
  5
63
102
{ACAD_REACTORS
330
C
102
}
330
C
100
AcDbDictionary
281
     1
  3
Standard
350
64
  0
DICTIONARY
  5
29
102
{ACAD_REACTORS
330
C
102
}
330
C
100
AcDbDictionary
281
     1
  3
2dWireframe
350
2F
  3
Basic
350
2E
  3
Brighten
350
35
  3
ColorChange
350
39
  3
Conceptual
350
32
  3
Dim
350
34
  3
EdgeColorOff
350
41
  3
Facepattern
350
38
  3
Flat
350
2A
  3
FlatWithEdges
350
2B
  3
Gouraud
350
2C
  3
GouraudWithEdges
350
2D
  3
Hidden
350
31
  3
JitterOff
350
3F
  3
Linepattern
350
37
  3
OverhangOff
350
40
  3
Realistic
350
33
  3
Shaded
350
3E
  3
Shaded with edges
350
3D
  3
Shades of Gray
350
3A
  3
Sketchy
350
3B
  3
Thicken
350
36
  3
Wireframe
350
30
  3
X-Ray
350
3C
  0
XRECORD
  5
338
102
{ACAD_REACTORS
330
C
102
}
330
C
100
AcDbXrecord
280
     1
 90
        1
330
64
  0
DICTIONARY
  5
29F
102
{ACAD_REACTORS
330
C
102
}
330
C
100
AcDbDictionary
281
     1
  3
CANNOSCALE
350
2A5
  3
CMLEADERSTYLE
350
2A1
  3
CTABLESTYLE
350
2A0
  3
CVIEWDETAILSTYLE
350
2A2
  3
CVIEWSECTIONSTYLE
350
2A3
  3
LAYEREVAL
350
2A7
  3
LAYERNOTIFY
350
2A8
  3
LIGHTINGUNITS
350
2A6
  3
MSLTSCALE
350
2A4
  0
DICTIONARY
  5
28F
102
{ACAD_REACTORS
330
28E
102
}
330
28E
100
AcDbDictionary
281
     1
  0
XRECORD
  5
28A
102
{ACAD_REACTORS
330
289
102
}
330
289
100
AcDbXrecord
280
     1
290
     1
  0
SORTENTSTABLE
  5
324
102
{ACAD_REACTORS
330
323
102
}
330
323
100
AcDbSortentsTable
330
6F
331
314
  5
315
331
315
  5
31A
331
316
  5
31D
331
31A
  5
31F
331
31C
  5
320
331
31D
  5
321
331
31E
  5
322
331
31F
  5
325
331
320
  5
326
331
321
  5
327
331
322
  5
316
331
325
  5
31C
331
326
  5
31E
331
327
  5
314
  0
ACDBDETAILVIEWSTYLE
  5
6A
102
{ACAD_REACTORS
330
69
102
}
330
69
100
AcDbModelDocViewStyle
 70
     0
  3
Imperial24
290
     0
300
Imperial24
 90
        0
100
AcDbDetailViewStyle
 70
     0
 71
     0
 90
        3
 71
     1
340
55
 62
   256
 40
0.24
340
0
 62
   256
 40
0.24
300

 40
0.36
280
     3
 71
     2
340
5C
 90
       25
 62
   256
 71
     3
340
55
 62
   256
 40
0.24
 90
        1
 40
0.75
 90
        1
300
%<\AcVar ViewType \f "%tc1">% %<\AcVar ViewDetailId>%\PSCALE %<\AcVar ViewScale \f "%sn">%
 71
     4
340
5C
 90
       25
 62
   256
340
5C
 90
       25
 62
   256
280
     0
  0
LAYOUT
  5
6E
102
{ACAD_REACTORS
330
61
102
}
330
61
100
AcDbPlotSettings
  1

  2

  4

  6

 40
0.0
 41
0.0
 42
0.0
 43
0.0
 44
0.0
 45
0.0
 46
0.0
 47
0.0
 48
0.0
 49
0.0
140
0.0
141
0.0
142
1.0
143
1.0
 70
   688
 72
     0
 73
     0
 74
     5
  7

 75
    16
147
1.0
 76
     0
 77
     2
 78
   300
148
0.0
149
0.0
100
AcDbLayout
  1
Layout1
 70
     1
 71
     1
 10
0.0
 20
0.0
 11
12.0
 21
9.0
 12
0.0
 22
0.0
 32
0.0
 14
1.000000000000000E+20
 24
1.000000000000000E+20
 34
1.000000000000000E+20
 15
-1.000000000000000E+20
 25
-1.000000000000000E+20
 35
-1.000000000000000E+20
146
0.0
 13
0.0
 23
0.0
 33
0.0
 16
1.0
 26
0.0
 36
0.0
 17
0.0
 27
1.0
 37
0.0
 76
     0
330
6B
  0
LAYOUT
  5
72
102
{ACAD_REACTORS
330
61
102
}
330
61
100
AcDbPlotSettings
  1

  2

  4

  6

 40
0.0
 41
0.0
 42
0.0
 43
0.0
 44
0.0
 45
0.0
 46
0.0
 47
0.0
 48
0.0
 49
0.0
140
0.0
141
0.0
142
1.0
143
1.0
 70
  1712
 72
     0
 73
     0
 74
     0
  7

 75
     0
147
1.0
 76
     0
 77
     2
 78
   300
148
0.0
149
0.0
100
AcDbLayout
  1
Model
 70
     1
 71
     0
 10
0.0
 20
0.0
 11
12.0
 21
9.0
 12
0.0
 22
0.0
 32
0.0
 14
0.0
 24
0.0
 34
0.0
 15
0.0
 25
0.0
 35
0.0
146
0.0
 13
0.0
 23
0.0
 33
0.0
 16
1.0
 26
0.0
 36
0.0
 17
0.0
 27
1.0
 37
0.0
 76
     0
330
6F
331
74
  0
MATERIAL
  5
19
102
{ACAD_XDICTIONARY
360
1A
102
}
102
{ACAD_REACTORS
330
10
102
}
330
10
100
AcDbMaterial
  1
ByBlock
 72
     0
 43
0.0208333333333333
 43
0.0
 43
0.0
 43
0.0
 43
0.0
 43
0.0208333333333333
 43
0.0
 43
0.0
 43
0.0
 43
0.0
 43
1.0
 43
0.0
 43
0.0
 43
0.0
 43
0.0
 43
1.0
 77
     0
 47
0.0208333333333333
 47
0.0
 47
0.0
 47
0.0
 47
0.0
 47
0.0208333333333333
 47
0.0
 47
0.0
 47
0.0
 47
0.0
 47
1.0
 47
0.0
 47
0.0
 47
0.0
 47
0.0
 47
1.0
171
     0
 49
0.0208333333333333
 49
0.0
 49
0.0
 49
0.0
 49
0.0
 49
0.0208333333333333
 49
0.0
 49
0.0
 49
0.0
 49
0.0
 49
1.0
 49
0.0
 49
0.0
 49
0.0
 49
0.0
 49
1.0
175
     0
142
0.0208333333333333
142
0.0
142
0.0
142
0.0
142
0.0
142
0.0208333333333333
142
0.0
142
0.0
142
0.0
142
0.0
142
1.0
142
0.0
142
0.0
142
0.0
142
0.0
142
1.0
179
     0
144
0.0208333333333333
144
0.0
144
0.0
144
0.0
144
0.0
144
0.0208333333333333
144
0.0
144
0.0
144
0.0
144
0.0
144
1.0
144
0.0
144
0.0
144
0.0
144
0.0
144
1.0
147
0.0208333333333333
147
0.0
147
0.0
147
0.0
147
0.0
147
0.0208333333333333
147
0.0
147
0.0
147
0.0
147
0.0
147
1.0
147
0.0
147
0.0
147
0.0
147
0.0
147
1.0
  0
MATERIAL
  5
11
102
{ACAD_XDICTIONARY
360
12
102
}
102
{ACAD_REACTORS
330
10
102
}
330
10
100
AcDbMaterial
  1
ByLayer
 72
     0
 43
0.0208333333333333
 43
0.0
 43
0.0
 43
0.0
 43
0.0
 43
0.0208333333333333
 43
0.0
 43
0.0
 43
0.0
 43
0.0
 43
1.0
 43
0.0
 43
0.0
 43
0.0
 43
0.0
 43
1.0
 77
     0
 47
0.0208333333333333
 47
0.0
 47
0.0
 47
0.0
 47
0.0
 47
0.0208333333333333
 47
0.0
 47
0.0
 47
0.0
 47
0.0
 47
1.0
 47
0.0
 47
0.0
 47
0.0
 47
0.0
 47
1.0
171
     0
 49
0.0208333333333333
 49
0.0
 49
0.0
 49
0.0
 49
0.0
 49
0.0208333333333333
 49
0.0
 49
0.0
 49
0.0
 49
0.0
 49
1.0
 49
0.0
 49
0.0
 49
0.0
 49
0.0
 49
1.0
175
     0
142
0.0208333333333333
142
0.0
142
0.0
142
0.0
142
0.0
142
0.0208333333333333
142
0.0
142
0.0
142
0.0
142
0.0
142
1.0
142
0.0
142
0.0
142
0.0
142
0.0
142
1.0
179
     0
144
0.0208333333333333
144
0.0
144
0.0
144
0.0
144
0.0
144
0.0208333333333333
144
0.0
144
0.0
144
0.0
144
0.0
144
1.0
144
0.0
144
0.0
144
0.0
144
0.0
144
1.0
147
0.0208333333333333
147
0.0
147
0.0
147
0.0
147
0.0
147
0.0208333333333333
147
0.0
147
0.0
147
0.0
147
0.0
147
1.0
147
0.0
147
0.0
147
0.0
147
0.0
147
1.0
  0
MATERIAL
  5
21
102
{ACAD_XDICTIONARY
360
22
102
}
102
{ACAD_REACTORS
330
10
102
}
330
10
100
AcDbMaterial
  1
Global
 72
     0
 43
0.0208333333333333
 43
0.0
 43
0.0
 43
0.0
 43
0.0
 43
0.0208333333333333
 43
0.0
 43
0.0
 43
0.0
 43
0.0
 43
1.0
 43
0.0
 43
0.0
 43
0.0
 43
0.0
 43
1.0
 77
     0
 47
0.0208333333333333
 47
0.0
 47
0.0
 47
0.0
 47
0.0
 47
0.0208333333333333
 47
0.0
 47
0.0
 47
0.0
 47
0.0
 47
1.0
 47
0.0
 47
0.0
 47
0.0
 47
0.0
 47
1.0
171
     0
 49
0.0208333333333333
 49
0.0
 49
0.0
 49
0.0
 49
0.0
 49
0.0208333333333333
 49
0.0
 49
0.0
 49
0.0
 49
0.0
 49
1.0
 49
0.0
 49
0.0
 49
0.0
 49
0.0
 49
1.0
175
     0
142
0.0208333333333333
142
0.0
142
0.0
142
0.0
142
0.0
142
0.0208333333333333
142
0.0
142
0.0
142
0.0
142
0.0
142
1.0
142
0.0
142
0.0
142
0.0
142
0.0
142
1.0
179
     0
144
0.0208333333333333
144
0.0
144
0.0
144
0.0
144
0.0
144
0.0208333333333333
144
0.0
144
0.0
144
0.0
144
0.0
144
1.0
144
0.0
144
0.0
144
0.0
144
0.0
144
1.0
147
0.0208333333333333
147
0.0
147
0.0
147
0.0
147
0.0
147
0.0208333333333333
147
0.0
147
0.0
147
0.0
147
0.0
147
1.0
147
0.0
147
0.0
147
0.0
147
0.0
147
1.0
  0
MLEADERSTYLE
  5
66
102
{ACAD_REACTORS
330
65
102
}
330
65
100
AcDbMLeaderStyle
179
     2
170
     2
171
     1
172
     0
 90
        2
 40
0.0
 41
0.0
173
     1
 91
-1056964608
340
5A
 92
       -2
290
     1
 42
0.09
291
     1
 43
0.36
  3
Standard
 44
0.18
300

342
55
174
     1
178
     6
175
     1
176
     0
 93
-1056964608
 45
0.18
292
     0
297
     0
 46
0.18
 94
-1056964608
 47
1.0
 49
1.0
140
1.0
293
     1
141
0.0
294
     1
177
     0
142
1.0
295
     0
296
     0
143
0.125
271
     0
272
     9
273
     9
298
     0
  0
MLINESTYLE
  5
5F
102
{ACAD_REACTORS
330
5E
102
}
330
5E
100
AcDbMlineStyle
  2
STANDARD
 70
     0
  3

 62
   256
 51
90.0
 52
90.0
 71
     2
 49
0.5
 62
   256
  6
BYLAYER
 49
-0.5
 62
   256
  6
BYLAYER
  0
ACDBPLACEHOLDER
  5
F
102
{ACAD_REACTORS
330
E
102
}
330
E
  0
SCALE
  5
43
102
{ACAD_REACTORS
330
42
102
}
330
42
100
AcDbScale
 70
     0
300
1:1
140
1.0
141
1.0
290
     1
  0
SCALE
  5
44
102
{ACAD_REACTORS
330
42
102
}
330
42
100
AcDbScale
 70
     0
300
1/128" = 1'-0"
140
0.0078125
141
12.0
290
     0
  0
SCALE
  5
45
102
{ACAD_REACTORS
330
42
102
}
330
42
100
AcDbScale
 70
     0
300
1/64" = 1'-0"
140
0.015625
141
12.0
290
     0
  0
SCALE
  5
46
102
{ACAD_REACTORS
330
42
102
}
330
42
100
AcDbScale
 70
     0
300
1/32" = 1'-0"
140
0.03125
141
12.0
290
     0
  0
SCALE
  5
47
102
{ACAD_REACTORS
330
42
102
}
330
42
100
AcDbScale
 70
     0
300
1/16" = 1'-0"
140
0.0625
141
12.0
290
     0
  0
SCALE
  5
48
102
{ACAD_REACTORS
330
42
102
}
330
42
100
AcDbScale
 70
     0
300
3/32" = 1'-0"
140
0.09375
141
12.0
290
     0
  0
SCALE
  5
49
102
{ACAD_REACTORS
330
42
102
}
330
42
100
AcDbScale
 70
     0
300
1/8" = 1'-0"
140
0.125
141
12.0
290
     0
  0
SCALE
  5
4A
102
{ACAD_REACTORS
330
42
102
}
330
42
100
AcDbScale
 70
     0
300
3/16" = 1'-0"
140
0.1875
141
12.0
290
     0
  0
SCALE
  5
4B
102
{ACAD_REACTORS
330
42
102
}
330
42
100
AcDbScale
 70
     0
300
1/4" = 1'-0"
140
0.25
141
12.0
290
     0
  0
SCALE
  5
4C
102
{ACAD_REACTORS
330
42
102
}
330
42
100
AcDbScale
 70
     0
300
3/8" = 1'-0"
140
0.375
141
12.0
290
     0
  0
SCALE
  5
4D
102
{ACAD_REACTORS
330
42
102
}
330
42
100
AcDbScale
 70
     0
300
1/2" = 1'-0"
140
0.5
141
12.0
290
     0
  0
SCALE
  5
4E
102
{ACAD_REACTORS
330
42
102
}
330
42
100
AcDbScale
 70
     0
300
3/4" = 1'-0"
140
0.75
141
12.0
290
     0
  0
SCALE
  5
4F
102
{ACAD_REACTORS
330
42
102
}
330
42
100
AcDbScale
 70
     0
300
1" = 1'-0"
140
1.0
141
12.0
290
     0
  0
SCALE
  5
50
102
{ACAD_REACTORS
330
42
102
}
330
42
100
AcDbScale
 70
     0
300
1-1/2" = 1'-0"
140
1.5
141
12.0
290
     0
  0
SCALE
  5
51
102
{ACAD_REACTORS
330
42
102
}
330
42
100
AcDbScale
 70
     0
300
3" = 1'-0"
140
3.0
141
12.0
290
     0
  0
SCALE
  5
52
102
{ACAD_REACTORS
330
42
102
}
330
42
100
AcDbScale
 70
     0
300
6" = 1'-0"
140
6.0
141
12.0
290
     0
  0
SCALE
  5
53
102
{ACAD_REACTORS
330
42
102
}
330
42
100
AcDbScale
 70
     0
300
1'-0" = 1'-0"
140
12.0
141
12.0
290
     0
  0
ACDBSECTIONVIEWSTYLE
  5
68
102
{ACAD_REACTORS
330
67
102
}
330
67
100
AcDbModelDocViewStyle
 70
     0
  3
Imperial24
290
     0
300
Imperial24
 90
        0
100
AcDbSectionViewStyle
 70
     0
 71
     0
 90
       78
 71
     1
340
55
 62
   256
 40
0.24
340
0
340
0
 62
   256
 40
0.24
300
I, O, Q, S, X, Z
 40
0.48
 90
        3
 40
0.18
 90
        1
 71
     2
340
5C
 90
       25
 62
   256
340
5C
 90
       50
 62
   256
 40
0.24
 40
0.0
 40
0.24
 71
     3
340
55
 62
   256
 40
0.24
 90
        1
 40
0.75
 90
        1
300
%<\AcVar ViewType \f "%tc1">% %<\AcVar ViewSectionStartId>%-%<\AcVar ViewSectionEndId>%\PSCALE %<\AcVar ViewScale \f "%sn">%
 71
     4
 62
   256
 62
   257
300
ANSI31
 40
1.0
 90
        0
290
     0
290
     0
 90
        6
 40
0.0
 40
1.570796326794896
 40
0.2617993877991494
 40
1.308996938995747
 40
-0.2617993877991494
 40
1.832595714594046
  0
TABLESTYLE
  5
64
102
{ACAD_XDICTIONARY
360
336
102
}
102
{ACAD_REACTORS
330
63
102
}
330
63
100
AcDbTableStyle
280
     0
  3
Standard
 70
     0
 71
     0
 40
0.06
 41
0.06
280
     0
281
     0
  7
Standard
140
0.18
170
     2
 62
     0
 63
     7
283
     0
 90
      512
 91
        0
  1

274
    -2
284
     1
 64
     0
275
    -2
285
     1
 65
     0
276
    -2
286
     1
 66
     0
277
    -2
287
     1
 67
     0
278
    -2
288
     1
 68
     0
279
    -2
289
     1
 69
     0
  7
Standard
140
0.25
170
     5
 62
     0
 63
     7
283
     0
 90
      512
 91
        0
  1

274
    -2
284
     1
 64
     0
275
    -2
285
     1
 65
     0
276
    -2
286
     1
 66
     0
277
    -2
287
     1
 67
     0
278
    -2
288
     1
 68
     0
279
    -2
289
     1
 69
     0
  7
Standard
140
0.18
170
     5
 62
     0
 63
     7
283
     0
 90
      512
 91
        0
  1

274
    -2
284
     1
 64
     0
275
    -2
285
     1
 65
     0
276
    -2
286
     1
 66
     0
277
    -2
287
     1
 67
     0
278
    -2
288
     1
 68
     0
279
    -2
289
     1
 69
     0
  0
VISUALSTYLE
  5
2F
102
{ACAD_REACTORS
330
29
102
}
330
29
100
AcDbVisualStyle
  2
2dWireframe
 70
     4
177
     3
291
     0
 70
    58
 90
        0
176
     1
 90
        2
176
     1
 90
        0
176
     1
 90
        0
176
     1
 40
0.6
176
     1
 40
30.0
176
     1
 62
     7
420
 16777215
176
     1
 90
        1
176
     1
 90
        4
176
     1
 62
     7
176
     1
 62
   257
176
     1
 90
        1
176
     1
 90
        1
176
     1
 40
1.0
176
     1
 90
        0
176
     1
 62
   257
176
     1
 40
1.0
176
     1
 90
        1
176
     1
 90
        6
176
     1
 90
        2
176
     1
 62
     7
176
     1
 90
        5
176
     1
 90
        0
176
     1
 90
        0
176
     1
290
     0
176
     1
 90
        1
176
     1
 40
0.0
176
     1
 90
        0
176
     1
290
     1
176
     1
290
     1
176
     1
290
     0
176
     1
290
     0
176
     1
290
     0
176
     1
290
     0
176
     1
290
     0
176
     1
290
     0
176
     1
290
     0
176
     1
 90
       50
176
     1
 40
0.0
176
     1
 40
1.0
176
     1
 90
        0
176
     1
 62
    18
420
        0
176
     1
 90
       50
176
     1
 90
        3
176
     1
 62
     5
420
      255
176
     1
290
     0
176
     1
 90
       50
176
     1
 90
       50
176
     1
 90
       50
176
     1
290
     0
176
     1
 90
       50
176
     1
 62
   256
176
     0
 40
1.0
176
     0
 90
        2
176
     1
  1
strokes_ogs.tif
176
     1
290
     0
176
     1
 40
1.0
176
     1
 40
1.0
176
     1
  0
VISUALSTYLE
  5
2E
102
{ACAD_REACTORS
330
29
102
}
330
29
100
AcDbVisualStyle
  2
Basic
 70
     7
177
     3
291
     1
 70
    58
 90
        1
176
     1
 90
        0
176
     1
 90
        1
176
     1
 90
        0
176
     1
 40
0.6
176
     1
 40
30.0
176
     1
 62
     7
420
 16777215
176
     1
 90
        0
176
     1
 90
        4
176
     1
 62
     7
176
     1
 62
   257
176
     1
 90
        1
176
     1
 90
        1
176
     1
 40
1.0
176
     1
 90
        8
176
     1
 62
     7
176
     1
 40
1.0
176
     1
 90
        1
176
     1
 90
        6
176
     1
 90
        2
176
     1
 62
     7
176
     1
 90
        5
176
     1
 90
        0
176
     1
 90
        0
176
     1
290
     0
176
     1
 90
        1
176
     1
 40
0.0
176
     1
 90
        0
176
     1
290
     0
176
     1
290
     1
176
     1
290
     1
176
     1
290
     0
176
     1
290
     0
176
     1
290
     0
176
     1
290
     0
176
     1
290
     0
176
     1
290
     0
176
     1
 90
       50
176
     1
 40
0.0
176
     1
 40
1.0
176
     1
 90
        0
176
     1
 62
    18
420
        0
176
     1
 90
       50
176
     1
 90
        3
176
     1
 62
     5
420
      255
176
     1
290
     0
176
     1
 90
       50
176
     1
 90
       50
176
     1
 90
       50
176
     1
290
     0
176
     1
 90
       50
176
     1
 62
   256
176
     0
 40
1.0
176
     0
 90
        2
176
     1
  1
strokes_ogs.tif
176
     1
290
     0
176
     1
 40
1.0
176
     1
 40
1.0
176
     1
  0
VISUALSTYLE
  5
35
102
{ACAD_REACTORS
330
29
102
}
330
29
100
AcDbVisualStyle
  2
Brighten
 70
    12
177
     3
291
     1
 70
    58
 90
        2
176
     1
 90
        2
176
     1
 90
        0
176
     1
 90
        0
176
     1
 40
0.6
176
     1
 40
30.0
176
     1
 62
     7
420
 16777215
176
     1
 90
        1
176
     1
 90
        4
176
     1
 62
     7
176
     1
 62
   257
176
     1
 90
        1
176
     1
 90
        1
176
     1
 40
1.0
176
     1
 90
        8
176
     1
 62
     7
176
     1
 40
1.0
176
     1
 90
        1
176
     1
 90
        6
176
     1
 90
        2
176
     1
 62
     7
176
     1
 90
        5
176
     1
 90
        0
176
     1
 90
        0
176
     1
290
     0
176
     1
 90
        1
176
     1
 40
50.0
176
     1
 90
        0
176
     1
290
     0
176
     1
290
     1
176
     1
290
     1
176
     1
290
     0
176
     1
290
     0
176
     1
290
     0
176
     1
290
     0
176
     1
290
     0
176
     1
290
     0
176
     1
 90
       50
176
     1
 40
0.0
176
     1
 40
1.0
176
     1
 90
        0
176
     1
 62
    18
420
        0
176
     1
 90
       50
176
     1
 90
        3
176
     1
 62
     5
420
      255
176
     1
290
     0
176
     1
 90
       50
176
     1
 90
       50
176
     1
 90
       50
176
     1
290
     0
176
     1
 90
       50
176
     1
 62
   256
176
     0
 40
1.0
176
     0
 90
        2
176
     1
  1
strokes_ogs.tif
176
     1
290
     0
176
     1
 40
1.0
176
     1
 40
1.0
176
     1
  0
VISUALSTYLE
  5
39
102
{ACAD_REACTORS
330
29
102
}
330
29
100
AcDbVisualStyle
  2
ColorChange
 70
    16
177
     3
291
     1
 70
    58
 90
        2
176
     1
 90
        2
176
     1
 90
        3
176
     1
 90
        0
176
     1
 40
0.6
176
     1
 40
30.0
176
     1
 62
     8
420
  8421504
176
     1
 90
        1
176
     1
 90
        4
176
     1
 62
     7
176
     1
 62
   257
176
     1
 90
        1
176
     1
 90
        1
176
     1
 40
1.0
176
     1
 90
        8
176
     1
 62
     8
420
  8421504
176
     1
 40
1.0
176
     1
 90
        1
176
     1
 90
        6
176
     1
 90
        2
176
     1
 62
     7
176
     1
 90
        5
176
     1
 90
        0
176
     1
 90
        0
176
     1
290
     0
176
     1
 90
        1
176
     1
 40
0.0
176
     1
 90
        0
176
     1
290
     0
176
     1
290
     1
176
     1
290
     1
176
     1
290
     0
176
     1
290
     0
176
     1
290
     0
176
     1
290
     0
176
     1
290
     0
176
     1
290
     0
176
     1
 90
       50
176
     1
 40
0.0
176
     1
 40
1.0
176
     1
 90
        0
176
     1
 62
    18
420
        0
176
     1
 90
       50
176
     1
 90
        3
176
     1
 62
     5
420
      255
176
     1
290
     0
176
     1
 90
       50
176
     1
 90
       50
176
     1
 90
       50
176
     1
290
     0
176
     1
 90
       50
176
     1
 62
   256
176
     0
 40
1.0
176
     0
 90
        2
176
     1
  1
strokes_ogs.tif
176
     1
290
     0
176
     1
 40
1.0
176
     1
 40
1.0
176
     1
  0
VISUALSTYLE
  5
32
102
{ACAD_REACTORS
330
29
102
}
330
29
100
AcDbVisualStyle
  2
Conceptual
 70
     9
177
     3
291
     0
 70
    58
 90
        3
176
     1
 90
        2
176
     1
 90
        0
176
     1
 90
        0
176
     1
 40
0.6
176
     1
 40
30.0
176
     1
 62
     7
420
 16777215
176
     1
 90
        2
176
     1
 90
        2
176
     1
 62
     7
176
     1
 62
   257
176
     1
 90
        1
176
     1
 90
        1
176
     1
 40
179.0
176
     1
 90
        8
176
     1
 62
     7
176
     1
 40
1.0
176
     1
 90
        1
176
     1
 90
        6
176
     1
 90
        2
176
     1
 62
     7
176
     1
 90
        3
176
     1
 90
        0
176
     1
 90
        0
176
     1
290
     0
176
     1
 90
        1
176
     1
 40
0.0
176
     1
 90
        0
176
     1
290
     0
176
     1
290
     1
176
     1
290
     1
176
     1
290
     0
176
     1
290
     0
176
     1
290
     0
176
     1
290
     0
176
     1
290
     0
176
     1
290
     0
176
     1
 90
       50
176
     1
 40
0.0
176
     1
 40
1.0
176
     1
 90
        0
176
     1
 62
    18
420
        0
176
     1
 90
       50
176
     1
 90
        3
176
     1
 62
     5
420
      255
176
     1
290
     0
176
     1
 90
       50
176
     1
 90
       50
176
     1
 90
       50
176
     1
290
     0
176
     1
 90
       50
176
     1
 62
   256
176
     0
 40
1.0
176
     0
 90
        2
176
     1
  1
strokes_ogs.tif
176
     1
290
     0
176
     1
 40
1.0
176
     1
 40
1.0
176
     1
  0
VISUALSTYLE
  5
34
102
{ACAD_REACTORS
330
29
102
}
330
29
100
AcDbVisualStyle
  2
Dim
 70
    11
177
     3
291
     1
 70
    58
 90
        2
176
     1
 90
        2
176
     1
 90
        0
176
     1
 90
        0
176
     1
 40
0.6
176
     1
 40
30.0
176
     1
 62
     7
420
 16777215
176
     1
 90
        1
176
     1
 90
        4
176
     1
 62
     7
176
     1
 62
   257
176
     1
 90
        1
176
     1
 90
        1
176
     1
 40
1.0
176
     1
 90
        8
176
     1
 62
     7
176
     1
 40
1.0
176
     1
 90
        1
176
     1
 90
        6
176
     1
 90
        2
176
     1
 62
     7
176
     1
 90
        5
176
     1
 90
        0
176
     1
 90
        0
176
     1
290
     0
176
     1
 90
        1
176
     1
 40
-50.0
176
     1
 90
        0
176
     1
290
     0
176
     1
290
     1
176
     1
290
     1
176
     1
290
     0
176
     1
290
     0
176
     1
290
     0
176
     1
290
     0
176
     1
290
     0
176
     1
290
     0
176
     1
 90
       50
176
     1
 40
0.0
176
     1
 40
1.0
176
     1
 90
        0
176
     1
 62
    18
420
        0
176
     1
 90
       50
176
     1
 90
        3
176
     1
 62
     5
420
      255
176
     1
290
     0
176
     1
 90
       50
176
     1
 90
       50
176
     1
 90
       50
176
     1
290
     0
176
     1
 90
       50
176
     1
 62
   256
176
     0
 40
1.0
176
     0
 90
        2
176
     1
  1
strokes_ogs.tif
176
     1
290
     0
176
     1
 40
1.0
176
     1
 40
1.0
176
     1
  0
VISUALSTYLE
  5
41
102
{ACAD_REACTORS
330
29
102
}
330
29
100
AcDbVisualStyle
  2
EdgeColorOff
 70
    22
177
     3
291
     1
 70
    58
 90
        2
176
     0
 90
        2
176
     0
 90
        0
176
     0
 90
        0
176
     0
 40
0.6
176
     0
 40
30.0
176
     0
 62
     7
420
 16777215
176
     0
 90
        1
176
     0
 90
        4
176
     0
 62
     7
176
     0
 62
   257
176
     0
 90
        1
176
     0
 90
        1
176
     0
 40
1.0
176
     0
 90
        8
176
     2
 62
     7
176
     0
 40
1.0
176
     0
 90
        1
176
     0
 90
        6
176
     0
 90
        2
176
     0
 62
     7
176
     0
 90
        5
176
     0
 90
        0
176
     0
 90
        0
176
     0
290
     0
176
     0
 90
        1
176
     0
 40
0.0
176
     0
 90
        0
176
     0
290
     0
176
     1
290
     1
176
     1
290
     1
176
     1
290
     0
176
     1
290
     0
176
     1
290
     0
176
     1
290
     0
176
     1
290
     0
176
     1
290
     0
176
     1
 90
       50
176
     0
 40
0.0
176
     0
 40
1.0
176
     0
 90
        0
176
     0
 62
    18
420
        0
176
     0
 90
       50
176
     0
 90
        3
176
     0
 62
     5
420
      255
176
     0
290
     0
176
     1
 90
       50
176
     0
 90
       50
176
     0
 90
       50
176
     0
290
     0
176
     1
 90
       50
176
     0
 62
   256
176
     0
 40
1.0
176
     0
 90
        2
176
     0
  1
strokes_ogs.tif
176
     0
290
     0
176
     1
 40
1.0
176
     0
 40
1.0
176
     0
  0
VISUALSTYLE
  5
38
102
{ACAD_REACTORS
330
29
102
}
330
29
100
AcDbVisualStyle
  2
Facepattern
 70
    15
177
     3
291
     1
 70
    58
 90
        2
176
     1
 90
        2
176
     1
 90
        0
176
     1
 90
        0
176
     1
 40
0.6
176
     1
 40
30.0
176
     1
 62
     7
420
 16777215
176
     1
 90
        1
176
     1
 90
        4
176
     1
 62
     7
176
     1
 62
   257
176
     1
 90
        1
176
     1
 90
        1
176
     1
 40
1.0
176
     1
 90
        8
176
     1
 62
     7
176
     1
 40
1.0
176
     1
 90
        1
176
     1
 90
        6
176
     1
 90
        2
176
     1
 62
     7
176
     1
 90
        5
176
     1
 90
        0
176
     1
 90
        0
176
     1
290
     0
176
     1
 90
        1
176
     1
 40
0.0
176
     1
 90
        0
176
     1
290
     0
176
     1
290
     1
176
     1
290
     1
176
     1
290
     0
176
     1
290
     0
176
     1
290
     0
176
     1
290
     0
176
     1
290
     0
176
     1
290
     0
176
     1
 90
       50
176
     1
 40
0.0
176
     1
 40
1.0
176
     1
 90
        0
176
     1
 62
    18
420
        0
176
     1
 90
       50
176
     1
 90
        3
176
     1
 62
     5
420
      255
176
     1
290
     0
176
     1
 90
       50
176
     1
 90
       50
176
     1
 90
       50
176
     1
290
     0
176
     1
 90
       50
176
     1
 62
   256
176
     0
 40
1.0
176
     0
 90
        2
176
     1
  1
strokes_ogs.tif
176
     1
290
     0
176
     1
 40
1.0
176
     1
 40
1.0
176
     1
  0
VISUALSTYLE
  5
2A
102
{ACAD_REACTORS
330
29
102
}
330
29
100
AcDbVisualStyle
  2
Flat
 70
     0
177
     3
291
     1
 70
    58
 90
        2
176
     1
 90
        1
176
     1
 90
        1
176
     1
 90
        2
176
     1
 40
0.6
176
     1
 40
30.0
176
     1
 62
     7
420
 16777215
176
     1
 90
        0
176
     1
 90
        0
176
     1
 62
     7
176
     1
 62
   257
176
     1
 90
        1
176
     1
 90
        1
176
     1
 40
1.0
176
     1
 90
        8
176
     1
 62
     7
176
     1
 40
1.0
176
     1
 90
        1
176
     1
 90
        6
176
     1
 90
        2
176
     1
 62
     7
176
     1
 90
        5
176
     1
 90
        0
176
     1
 90
        0
176
     1
290
     0
176
     1
 90
       13
176
     1
 40
0.0
176
     1
 90
        0
176
     1
290
     0
176
     1
290
     1
176
     1
290
     1
176
     1
290
     0
176
     1
290
     0
176
     1
290
     0
176
     1
290
     0
176
     1
290
     0
176
     1
290
     0
176
     1
 90
       50
176
     1
 40
0.0
176
     1
 40
1.0
176
     1
 90
        0
176
     1
 62
    18
420
        0
176
     1
 90
       50
176
     1
 90
        3
176
     1
 62
     5
420
      255
176
     1
290
     0
176
     1
 90
       50
176
     1
 90
       50
176
     1
 90
       50
176
     1
290
     0
176
     1
 90
       50
176
     1
 62
   256
176
     0
 40
1.0
176
     0
 90
        2
176
     1
  1
strokes_ogs.tif
176
     1
290
     0
176
     1
 40
1.0
176
     1
 40
1.0
176
     1
  0
VISUALSTYLE
  5
2B
102
{ACAD_REACTORS
330
29
102
}
330
29
100
AcDbVisualStyle
  2
FlatWithEdges
 70
     1
177
     3
291
     1
 70
    58
 90
        2
176
     1
 90
        1
176
     1
 90
        1
176
     1
 90
        2
176
     1
 40
0.6
176
     1
 40
30.0
176
     1
 62
     7
420
 16777215
176
     1
 90
        1
176
     1
 90
        0
176
     1
 62
     7
176
     1
 62
   257
176
     1
 90
        1
176
     1
 90
        1
176
     1
 40
1.0
176
     1
 90
        0
176
     1
 62
   257
176
     1
 40
1.0
176
     1
 90
        1
176
     1
 90
        6
176
     1
 90
        2
176
     1
 62
     7
176
     1
 90
        5
176
     1
 90
        0
176
     1
 90
        0
176
     1
290
     0
176
     1
 90
       13
176
     1
 40
0.0
176
     1
 90
        0
176
     1
290
     0
176
     1
290
     1
176
     1
290
     1
176
     1
290
     0
176
     1
290
     0
176
     1
290
     0
176
     1
290
     0
176
     1
290
     0
176
     1
290
     0
176
     1
 90
       50
176
     1
 40
0.0
176
     1
 40
1.0
176
     1
 90
        0
176
     1
 62
    18
420
        0
176
     1
 90
       50
176
     1
 90
        3
176
     1
 62
     5
420
      255
176
     1
290
     0
176
     1
 90
       50
176
     1
 90
       50
176
     1
 90
       50
176
     1
290
     0
176
     1
 90
       50
176
     1
 62
   256
176
     0
 40
1.0
176
     0
 90
        2
176
     1
  1
strokes_ogs.tif
176
     1
290
     0
176
     1
 40
1.0
176
     1
 40
1.0
176
     1
  0
VISUALSTYLE
  5
2C
102
{ACAD_REACTORS
330
29
102
}
330
29
100
AcDbVisualStyle
  2
Gouraud
 70
     2
177
     3
291
     1
 70
    58
 90
        2
176
     1
 90
        2
176
     1
 90
        1
176
     1
 90
        2
176
     1
 40
0.6
176
     1
 40
30.0
176
     1
 62
     7
420
 16777215
176
     1
 90
        0
176
     1
 90
        0
176
     1
 62
     7
176
     1
 62
   257
176
     1
 90
        1
176
     1
 90
        1
176
     1
 40
1.0
176
     1
 90
        0
176
     1
 62
     7
176
     1
 40
1.0
176
     1
 90
        1
176
     1
 90
        6
176
     1
 90
        2
176
     1
 62
     7
176
     1
 90
        5
176
     1
 90
        0
176
     1
 90
        0
176
     1
290
     0
176
     1
 90
       13
176
     1
 40
0.0
176
     1
 90
        0
176
     1
290
     0
176
     1
290
     1
176
     1
290
     1
176
     1
290
     0
176
     1
290
     0
176
     1
290
     0
176
     1
290
     0
176
     1
290
     0
176
     1
290
     0
176
     1
 90
       50
176
     1
 40
0.0
176
     1
 40
1.0
176
     1
 90
        0
176
     1
 62
    18
420
        0
176
     1
 90
       50
176
     1
 90
        3
176
     1
 62
     5
420
      255
176
     1
290
     0
176
     1
 90
       50
176
     1
 90
       50
176
     1
 90
       50
176
     1
290
     0
176
     1
 90
       50
176
     1
 62
   256
176
     0
 40
1.0
176
     0
 90
        2
176
     1
  1
strokes_ogs.tif
176
     1
290
     0
176
     1
 40
1.0
176
     1
 40
1.0
176
     1
  0
VISUALSTYLE
  5
2D
102
{ACAD_REACTORS
330
29
102
}
330
29
100
AcDbVisualStyle
  2
GouraudWithEdges
 70
     3
177
     3
291
     1
 70
    58
 90
        2
176
     1
 90
        2
176
     1
 90
        1
176
     1
 90
        2
176
     1
 40
0.6
176
     1
 40
30.0
176
     1
 62
     7
420
 16777215
176
     1
 90
        1
176
     1
 90
        0
176
     1
 62
     7
176
     1
 62
   257
176
     1
 90
        1
176
     1
 90
        1
176
     1
 40
1.0
176
     1
 90
        0
176
     1
 62
   257
176
     1
 40
1.0
176
     1
 90
        1
176
     1
 90
        6
176
     1
 90
        2
176
     1
 62
     7
176
     1
 90
        5
176
     1
 90
        0
176
     1
 90
        0
176
     1
290
     0
176
     1
 90
       13
176
     1
 40
0.0
176
     1
 90
        0
176
     1
290
     0
176
     1
290
     1
176
     1
290
     1
176
     1
290
     0
176
     1
290
     0
176
     1
290
     0
176
     1
290
     0
176
     1
290
     0
176
     1
290
     0
176
     1
 90
       50
176
     1
 40
0.0
176
     1
 40
1.0
176
     1
 90
        0
176
     1
 62
    18
420
        0
176
     1
 90
       50
176
     1
 90
        3
176
     1
 62
     5
420
      255
176
     1
290
     0
176
     1
 90
       50
176
     1
 90
       50
176
     1
 90
       50
176
     1
290
     0
176
     1
 90
       50
176
     1
 62
   256
176
     0
 40
1.0
176
     0
 90
        2
176
     1
  1
strokes_ogs.tif
176
     1
290
     0
176
     1
 40
1.0
176
     1
 40
1.0
176
     1
  0
VISUALSTYLE
  5
31
102
{ACAD_REACTORS
330
29
102
}
330
29
100
AcDbVisualStyle
  2
Hidden
 70
     6
177
     3
291
     0
 70
    58
 90
        1
176
     1
 90
        2
176
     1
 90
        2
176
     1
 90
        0
176
     1
 40
0.6
176
     1
 40
30.0
176
     1
 62
     7
420
 16777215
176
     1
 90
        2
176
     1
 90
        2
176
     1
 62
     7
176
     1
 62
   257
176
     1
 90
        2
176
     1
 90
        1
176
     1
 40
40.0
176
     1
 90
        0
176
     1
 62
   257
176
     1
 40
1.0
176
     1
 90
        1
176
     1
 90
        6
176
     1
 90
        2
176
     1
 62
     7
176
     1
 90
        3
176
     1
 90
        0
176
     1
 90
        0
176
     1
290
     0
176
     1
 90
        1
176
     1
 40
0.0
176
     1
 90
        0
176
     1
290
     0
176
     1
290
     1
176
     1
290
     1
176
     1
290
     0
176
     1
290
     0
176
     1
290
     0
176
     1
290
     0
176
     1
290
     0
176
     1
290
     0
176
     1
 90
       50
176
     1
 40
0.0
176
     1
 40
1.0
176
     1
 90
        0
176
     1
 62
    18
420
        0
176
     1
 90
       50
176
     1
 90
        3
176
     1
 62
     5
420
      255
176
     1
290
     0
176
     1
 90
       50
176
     1
 90
       50
176
     1
 90
       50
176
     1
290
     0
176
     1
 90
       50
176
     1
 62
   256
176
     0
 40
1.0
176
     0
 90
        2
176
     1
  1
strokes_ogs.tif
176
     1
290
     0
176
     1
 40
1.0
176
     1
 40
1.0
176
     1
  0
VISUALSTYLE
  5
3F
102
{ACAD_REACTORS
330
29
102
}
330
29
100
AcDbVisualStyle
  2
JitterOff
 70
    20
177
     3
291
     1
 70
    58
 90
        2
176
     0
 90
        2
176
     0
 90
        0
176
     0
 90
        0
176
     0
 40
0.6
176
     0
 40
30.0
176
     0
 62
     7
420
 16777215
176
     0
 90
        1
176
     0
 90
        4
176
     0
 62
     7
176
     0
 62
   257
176
     0
 90
        1
176
     0
 90
        1
176
     0
 40
1.0
176
     0
 90
       10
176
     2
 62
     7
176
     0
 40
1.0
176
     0
 90
        1
176
     0
 90
        6
176
     0
 90
        2
176
     0
 62
     7
176
     0
 90
        5
176
     0
 90
        0
176
     0
 90
        0
176
     0
290
     0
176
     0
 90
        1
176
     0
 40
0.0
176
     0
 90
        0
176
     0
290
     0
176
     1
290
     1
176
     1
290
     1
176
     1
290
     0
176
     1
290
     0
176
     1
290
     0
176
     1
290
     0
176
     1
290
     0
176
     1
290
     0
176
     1
 90
       50
176
     0
 40
0.0
176
     0
 40
1.0
176
     0
 90
        0
176
     0
 62
    18
420
        0
176
     0
 90
       50
176
     0
 90
        3
176
     0
 62
     5
420
      255
176
     0
290
     0
176
     1
 90
       50
176
     0
 90
       50
176
     0
 90
       50
176
     0
290
     0
176
     1
 90
       50
176
     0
 62
   256
176
     0
 40
1.0
176
     0
 90
        2
176
     0
  1
strokes_ogs.tif
176
     0
290
     0
176
     1
 40
1.0
176
     0
 40
1.0
176
     0
  0
VISUALSTYLE
  5
37
102
{ACAD_REACTORS
330
29
102
}
330
29
100
AcDbVisualStyle
  2
Linepattern
 70
    14
177
     3
291
     1
 70
    58
 90
        2
176
     1
 90
        2
176
     1
 90
        0
176
     1
 90
        0
176
     1
 40
0.6
176
     1
 40
30.0
176
     1
 62
     7
420
 16777215
176
     1
 90
        1
176
     1
 90
        4
176
     1
 62
     7
176
     1
 62
   257
176
     1
 90
        7
176
     1
 90
        7
176
     1
 40
1.0
176
     1
 90
        8
176
     1
 62
     7
176
     1
 40
1.0
176
     1
 90
        1
176
     1
 90
        6
176
     1
 90
        2
176
     1
 62
     7
176
     1
 90
        5
176
     1
 90
        0
176
     1
 90
        0
176
     1
290
     0
176
     1
 90
        1
176
     1
 40
0.0
176
     1
 90
        0
176
     1
290
     0
176
     1
290
     1
176
     1
290
     1
176
     1
290
     0
176
     1
290
     0
176
     1
290
     0
176
     1
290
     0
176
     1
290
     0
176
     1
290
     0
176
     1
 90
       50
176
     1
 40
0.0
176
     1
 40
1.0
176
     1
 90
        0
176
     1
 62
    18
420
        0
176
     1
 90
       50
176
     1
 90
        3
176
     1
 62
     5
420
      255
176
     1
290
     0
176
     1
 90
       50
176
     1
 90
       50
176
     1
 90
       50
176
     1
290
     0
176
     1
 90
       50
176
     1
 62
   256
176
     0
 40
1.0
176
     0
 90
        2
176
     1
  1
strokes_ogs.tif
176
     1
290
     0
176
     1
 40
1.0
176
     1
 40
1.0
176
     1
  0
VISUALSTYLE
  5
40
102
{ACAD_REACTORS
330
29
102
}
330
29
100
AcDbVisualStyle
  2
OverhangOff
 70
    21
177
     3
291
     1
 70
    58
 90
        2
176
     0
 90
        2
176
     0
 90
        0
176
     0
 90
        0
176
     0
 40
0.6
176
     0
 40
30.0
176
     0
 62
     7
420
 16777215
176
     0
 90
        1
176
     0
 90
        4
176
     0
 62
     7
176
     0
 62
   257
176
     0
 90
        1
176
     0
 90
        1
176
     0
 40
1.0
176
     0
 90
        9
176
     2
 62
     7
176
     0
 40
1.0
176
     0
 90
        1
176
     0
 90
        6
176
     0
 90
        2
176
     0
 62
     7
176
     0
 90
        5
176
     0
 90
        0
176
     0
 90
        0
176
     0
290
     0
176
     0
 90
        1
176
     0
 40
0.0
176
     0
 90
        0
176
     0
290
     0
176
     1
290
     1
176
     1
290
     1
176
     1
290
     0
176
     1
290
     0
176
     1
290
     0
176
     1
290
     0
176
     1
290
     0
176
     1
290
     0
176
     1
 90
       50
176
     0
 40
0.0
176
     0
 40
1.0
176
     0
 90
        0
176
     0
 62
    18
420
        0
176
     0
 90
       50
176
     0
 90
        3
176
     0
 62
     5
420
      255
176
     0
290
     0
176
     1
 90
       50
176
     0
 90
       50
176
     0
 90
       50
176
     0
290
     0
176
     1
 90
       50
176
     0
 62
   256
176
     0
 40
1.0
176
     0
 90
        2
176
     0
  1
strokes_ogs.tif
176
     0
290
     0
176
     1
 40
1.0
176
     0
 40
1.0
176
     0
  0
VISUALSTYLE
  5
33
102
{ACAD_REACTORS
330
29
102
}
330
29
100
AcDbVisualStyle
  2
Realistic
 70
     8
177
     3
291
     0
 70
    58
 90
        2
176
     1
 90
        3
176
     1
 90
        0
176
     1
 90
        2
176
     1
 40
0.6
176
     1
 40
30.0
176
     1
 62
     7
420
 16777215
176
     1
 90
        0
176
     1
 90
        0
176
     1
 62
     7
176
     1
 62
   257
176
     1
 90
        1
176
     1
 90
        1
176
     1
 40
1.0
176
     1
 90
        8
176
     1
 62
   257
176
     1
 40
1.0
176
     1
 90
        1
176
     1
 90
        6
176
     1
 90
        2
176
     1
 62
     7
176
     1
 90
        3
176
     1
 90
        0
176
     1
 90
        0
176
     1
290
     0
176
     1
 90
       13
176
     1
 40
0.0
176
     1
 90
        0
176
     1
290
     0
176
     1
290
     1
176
     1
290
     1
176
     1
290
     0
176
     1
290
     0
176
     1
290
     0
176
     1
290
     0
176
     1
290
     0
176
     1
290
     0
176
     1
 90
       50
176
     1
 40
0.0
176
     1
 40
1.0
176
     1
 90
        0
176
     1
 62
    18
420
        0
176
     1
 90
       50
176
     1
 90
        3
176
     1
 62
     5
420
      255
176
     1
290
     0
176
     1
 90
       50
176
     1
 90
       50
176
     1
 90
       50
176
     1
290
     0
176
     1
 90
       50
176
     1
 62
   256
176
     0
 40
1.0
176
     0
 90
        2
176
     1
  1
strokes_ogs.tif
176
     1
290
     0
176
     1
 40
1.0
176
     1
 40
1.0
176
     1
  0
VISUALSTYLE
  5
3E
102
{ACAD_REACTORS
330
29
102
}
330
29
100
AcDbVisualStyle
  2
Shaded
 70
    27
177
     3
291
     0
 70
    58
 90
        2
176
     1
 90
        2
176
     1
 90
        1
176
     1
 90
        2
176
     1
 40
0.6
176
     1
 40
30.0
176
     1
 62
     7
420
 16777215
176
     1
 90
        0
176
     1
 90
        4
176
     1
 62
     7
176
     1
 62
   257
176
     1
 90
        1
176
     1
 90
        1
176
     1
 40
1.0
176
     1
 90
        8
176
     1
 62
   257
176
     1
 40
1.0
176
     1
 90
        1
176
     1
 90
        6
176
     1
 90
        2
176
     1
 62
     8
420
  7895160
176
     1
 90
        3
176
     1
 90
        0
176
     1
 90
        0
176
     1
290
     0
176
     1
 90
        5
176
     1
 40
0.0
176
     1
 90
        0
176
     1
290
     0
176
     1
290
     1
176
     1
290
     1
176
     1
290
     0
176
     1
290
     0
176
     1
290
     0
176
     1
290
     0
176
     1
290
     0
176
     1
290
     0
176
     1
 90
       50
176
     1
 40
0.0
176
     1
 40
1.0
176
     1
 90
        0
176
     1
 62
    18
420
        0
176
     1
 90
       50
176
     1
 90
        3
176
     1
 62
     5
420
      255
176
     1
290
     0
176
     1
 90
       50
176
     1
 90
       50
176
     1
 90
       50
176
     1
290
     0
176
     1
 90
       50
176
     1
 62
   256
176
     0
 40
1.0
176
     0
 90
        2
176
     1
  1
strokes_ogs.tif
176
     1
290
     0
176
     1
 40
1.0
176
     1
 40
1.0
176
     1
  0
VISUALSTYLE
  5
3D
102
{ACAD_REACTORS
330
29
102
}
330
29
100
AcDbVisualStyle
  2
Shaded with edges
 70
    26
177
     3
291
     0
 70
    58
 90
        2
176
     1
 90
        2
176
     1
 90
        1
176
     1
 90
        2
176
     1
 40
0.6
176
     1
 40
30.0
176
     1
 62
     7
420
 16777215
176
     1
 90
        1
176
     1
 90
        2
176
     1
 62
     7
176
     1
 62
   257
176
     1
 90
        2
176
     1
 90
        1
176
     1
 40
1.0
176
     1
 90
        8
176
     1
 62
   257
176
     1
 40
1.0
176
     1
 90
        1
176
     1
 90
        6
176
     1
 90
        2
176
     1
 62
     7
176
     1
 90
        3
176
     1
 90
        0
176
     1
 90
        0
176
     1
290
     0
176
     1
 90
        5
176
     1
 40
0.0
176
     1
 90
        0
176
     1
290
     0
176
     1
290
     1
176
     1
290
     1
176
     1
290
     0
176
     1
290
     0
176
     1
290
     0
176
     1
290
     0
176
     1
290
     0
176
     1
290
     0
176
     1
 90
       50
176
     1
 40
0.0
176
     1
 40
1.0
176
     1
 90
        0
176
     1
 62
    18
420
        0
176
     1
 90
       50
176
     1
 90
        3
176
     1
 62
     5
420
      255
176
     1
290
     0
176
     1
 90
       50
176
     1
 90
       50
176
     1
 90
       50
176
     1
290
     0
176
     1
 90
       50
176
     1
 62
   256
176
     0
 40
1.0
176
     0
 90
        2
176
     1
  1
strokes_ogs.tif
176
     1
290
     0
176
     1
 40
1.0
176
     1
 40
1.0
176
     1
  0
VISUALSTYLE
  5
3A
102
{ACAD_REACTORS
330
29
102
}
330
29
100
AcDbVisualStyle
  2
Shades of Gray
 70
    23
177
     3
291
     0
 70
    58
 90
        2
176
     1
 90
        2
176
     1
 90
        3
176
     1
 90
        0
176
     1
 40
0.6
176
     1
 40
30.0
176
     1
 62
     7
420
 16777215
176
     1
 90
        2
176
     1
 90
        2
176
     1
 62
     7
176
     1
 62
     7
176
     1
 90
        1
176
     1
 90
        1
176
     1
 40
40.0
176
     1
 90
        8
176
     1
 62
     7
176
     1
 40
1.0
176
     1
 90
        1
176
     1
 90
        6
176
     1
 90
        2
176
     1
 62
     7
176
     1
 90
        3
176
     1
 90
        0
176
     1
 90
        0
176
     1
290
     0
176
     1
 90
        1
176
     1
 40
0.0
176
     1
 90
        0
176
     1
290
     0
176
     1
290
     1
176
     1
290
     1
176
     1
290
     0
176
     1
290
     0
176
     1
290
     0
176
     1
290
     0
176
     1
290
     0
176
     1
290
     0
176
     1
 90
       50
176
     1
 40
0.0
176
     1
 40
1.0
176
     1
 90
        0
176
     1
 62
    18
420
        0
176
     1
 90
       50
176
     1
 90
        3
176
     1
 62
     5
420
      255
176
     1
290
     0
176
     1
 90
       50
176
     1
 90
       50
176
     1
 90
       50
176
     1
290
     0
176
     1
 90
       50
176
     1
 62
   256
176
     0
 40
1.0
176
     0
 90
        2
176
     1
  1
strokes_ogs.tif
176
     1
290
     0
176
     1
 40
1.0
176
     1
 40
1.0
176
     1
  0
VISUALSTYLE
  5
3B
102
{ACAD_REACTORS
330
29
102
}
330
29
100
AcDbVisualStyle
  2
Sketchy
 70
    24
177
     3
291
     0
 70
    58
 90
        1
176
     1
 90
        2
176
     1
 90
        2
176
     1
 90
        0
176
     1
 40
0.6
176
     1
 40
30.0
176
     1
 62
     7
420
 16777215
176
     1
 90
        2
176
     1
 90
        2
176
     1
 62
     7
176
     1
 62
     7
176
     1
 90
        1
176
     1
 90
        1
176
     1
 40
40.0
176
     1
 90
       11
176
     1
 62
     7
176
     1
 40
1.0
176
     1
 90
        1
176
     1
 90
        6
176
     1
 90
        2
176
     1
 62
     7
176
     1
 90
        6
176
     1
 90
        0
176
     1
 90
        0
176
     1
290
     0
176
     1
 90
        1
176
     1
 40
0.0
176
     1
 90
        0
176
     1
290
     0
176
     1
290
     1
176
     1
290
     1
176
     1
290
     0
176
     1
290
     0
176
     1
290
     0
176
     1
290
     0
176
     1
290
     0
176
     1
290
     0
176
     1
 90
       50
176
     1
 40
0.0
176
     1
 40
1.0
176
     1
 90
        0
176
     1
 62
    18
420
        0
176
     1
 90
       50
176
     1
 90
        3
176
     1
 62
     5
420
      255
176
     1
290
     0
176
     1
 90
       50
176
     1
 90
       50
176
     1
 90
       50
176
     1
290
     0
176
     1
 90
       50
176
     1
 62
   256
176
     0
 40
1.0
176
     0
 90
        2
176
     1
  1
strokes_ogs.tif
176
     1
290
     0
176
     1
 40
1.0
176
     1
 40
1.0
176
     1
  0
VISUALSTYLE
  5
36
102
{ACAD_REACTORS
330
29
102
}
330
29
100
AcDbVisualStyle
  2
Thicken
 70
    13
177
     3
291
     1
 70
    58
 90
        2
176
     1
 90
        2
176
     1
 90
        0
176
     1
 90
        0
176
     1
 40
0.6
176
     1
 40
30.0
176
     1
 62
     7
420
 16777215
176
     1
 90
        1
176
     1
 90
        4
176
     1
 62
     7
176
     1
 62
   257
176
     1
 90
        1
176
     1
 90
        1
176
     1
 40
1.0
176
     1
 90
       12
176
     1
 62
     7
176
     1
 40
1.0
176
     1
 90
        1
176
     1
 90
        6
176
     1
 90
        2
176
     1
 62
     7
176
     1
 90
        5
176
     1
 90
        0
176
     1
 90
        0
176
     1
290
     0
176
     1
 90
        1
176
     1
 40
0.0
176
     1
 90
        0
176
     1
290
     0
176
     1
290
     1
176
     1
290
     1
176
     1
290
     0
176
     1
290
     0
176
     1
290
     0
176
     1
290
     0
176
     1
290
     0
176
     1
290
     0
176
     1
 90
       50
176
     1
 40
0.0
176
     1
 40
1.0
176
     1
 90
        0
176
     1
 62
    18
420
        0
176
     1
 90
       50
176
     1
 90
        3
176
     1
 62
     5
420
      255
176
     1
290
     0
176
     1
 90
       50
176
     1
 90
       50
176
     1
 90
       50
176
     1
290
     0
176
     1
 90
       50
176
     1
 62
   256
176
     0
 40
1.0
176
     0
 90
        2
176
     1
  1
strokes_ogs.tif
176
     1
290
     0
176
     1
 40
1.0
176
     1
 40
1.0
176
     1
  0
VISUALSTYLE
  5
30
102
{ACAD_REACTORS
330
29
102
}
330
29
100
AcDbVisualStyle
  2
Wireframe
 70
     5
177
     3
291
     0
 70
    58
 90
        0
176
     1
 90
        2
176
     1
 90
        0
176
     1
 90
        0
176
     1
 40
0.6
176
     1
 40
30.0
176
     1
 62
     7
420
 16777215
176
     1
 90
        1
176
     1
 90
        4
176
     1
 62
     7
176
     1
 62
   257
176
     1
 90
        1
176
     1
 90
        1
176
     1
 40
1.0
176
     1
 90
        0
176
     1
 62
   257
176
     1
 40
1.0
176
     1
 90
        1
176
     1
 90
        6
176
     1
 90
        2
176
     1
 62
     7
176
     1
 90
        3
176
     1
 90
        0
176
     1
 90
        0
176
     1
290
     0
176
     1
 90
        1
176
     1
 40
0.0
176
     1
 90
        0
176
     1
290
     0
176
     1
290
     1
176
     1
290
     1
176
     1
290
     0
176
     1
290
     0
176
     1
290
     0
176
     1
290
     0
176
     1
290
     0
176
     1
290
     0
176
     1
 90
       50
176
     1
 40
0.0
176
     1
 40
1.0
176
     1
 90
        0
176
     1
 62
    18
420
        0
176
     1
 90
       50
176
     1
 90
        3
176
     1
 62
     5
420
      255
176
     1
290
     0
176
     1
 90
       50
176
     1
 90
       50
176
     1
 90
       50
176
     1
290
     0
176
     1
 90
       50
176
     1
 62
   256
176
     0
 40
1.0
176
     0
 90
        2
176
     1
  1
strokes_ogs.tif
176
     1
290
     0
176
     1
 40
1.0
176
     1
 40
1.0
176
     1
  0
VISUALSTYLE
  5
3C
102
{ACAD_REACTORS
330
29
102
}
330
29
100
AcDbVisualStyle
  2
X-Ray
 70
    25
177
     3
291
     0
 70
    58
 90
        2
176
     1
 90
        2
176
     1
 90
        1
176
     1
 90
        1
176
     1
 40
0.5
176
     1
 40
30.0
176
     1
 62
     7
420
 16777215
176
     1
 90
        1
176
     1
 90
        0
176
     1
 62
     7
176
     1
 62
   257
176
     1
 90
        1
176
     1
 90
        1
176
     1
 40
1.0
176
     1
 90
        8
176
     1
 62
     7
176
     1
 40
1.0
176
     1
 90
        1
176
     1
 90
        6
176
     1
 90
        2
176
     1
 62
     7
176
     1
 90
        3
176
     1
 90
        0
176
     1
 90
        0
176
     1
290
     0
176
     1
 90
       13
176
     1
 40
0.0
176
     1
 90
        0
176
     1
290
     0
176
     1
290
     1
176
     1
290
     1
176
     1
290
     0
176
     1
290
     0
176
     1
290
     0
176
     1
290
     0
176
     1
290
     0
176
     1
290
     0
176
     1
 90
       50
176
     1
 40
0.0
176
     1
 40
1.0
176
     1
 90
        0
176
     1
 62
    18
420
        0
176
     1
 90
       50
176
     1
 90
        3
176
     1
 62
     5
420
      255
176
     1
290
     0
176
     1
 90
       50
176
     1
 90
       50
176
     1
 90
       50
176
     1
290
     0
176
     1
 90
       50
176
     1
 62
   256
176
     0
 40
1.0
176
     0
 90
        2
176
     1
  1
strokes_ogs.tif
176
     1
290
     0
176
     1
 40
1.0
176
     1
 40
1.0
176
     1
  0
DICTIONARYVAR
  5
2A5
102
{ACAD_REACTORS
330
29F
102
}
330
29F
100
DictionaryVariables
280
     0
  1
1:1
  0
DICTIONARYVAR
  5
2A1
102
{ACAD_REACTORS
330
29F
102
}
330
29F
100
DictionaryVariables
280
     0
  1
STANDARD
  0
DICTIONARYVAR
  5
2A0
102
{ACAD_REACTORS
330
29F
102
}
330
29F
100
DictionaryVariables
280
     0
  1
STANDARD
  0
DICTIONARYVAR
  5
2A2
102
{ACAD_REACTORS
330
29F
102
}
330
29F
100
DictionaryVariables
280
     0
  1
Imperial24
  0
DICTIONARYVAR
  5
2A3
102
{ACAD_REACTORS
330
29F
102
}
330
29F
100
DictionaryVariables
280
     0
  1
Imperial24
  0
DICTIONARYVAR
  5
2A7
102
{ACAD_REACTORS
330
29F
102
}
330
29F
100
DictionaryVariables
280
     0
  1
1
  0
DICTIONARYVAR
  5
2A8
102
{ACAD_REACTORS
330
29F
102
}
330
29F
100
DictionaryVariables
280
     0
  1
15
  0
DICTIONARYVAR
  5
2A6
102
{ACAD_REACTORS
330
29F
102
}
330
29F
100
DictionaryVariables
280
     0
  1
0
  0
DICTIONARYVAR
  5
2A4
102
{ACAD_REACTORS
330
29F
102
}
330
29F
100
DictionaryVariables
280
     0
  1
0
  0
DICTIONARY
  5
1A
330
19
100
AcDbDictionary
280
     1
281
     1
  3
BUMPTILE
360
1C
  3
DIFFUSETILE
360
1B
  3
OPACITYTILE
360
1F
  3
REFLECTIONTILE
360
1E
  3
REFRACTIONTILE
360
20
  3
SPECULARTILE
360
1D
  0
DICTIONARY
  5
12
330
11
100
AcDbDictionary
280
     1
281
     1
  3
BUMPTILE
360
14
  3
DIFFUSETILE
360
13
  3
OPACITYTILE
360
17
  3
REFLECTIONTILE
360
16
  3
REFRACTIONTILE
360
18
  3
SPECULARTILE
360
15
  0
DICTIONARY
  5
22
330
21
100
AcDbDictionary
280
     1
281
     1
  3
BUMPTILE
360
24
  3
DIFFUSETILE
360
23
  3
OPACITYTILE
360
27
  3
REFLECTIONTILE
360
26
  3
REFRACTIONTILE
360
28
  3
SPECULARTILE
360
25
  0
DICTIONARY
  5
336
330
64
100
AcDbDictionary
280
     1
281
     1
  3
ACAD_ROUNDTRIP_2008_TABLESTYLE_CELLSTYLEMAP
360
337
  0
XRECORD
  5
1C
102
{ACAD_REACTORS
330
1A
102
}
330
1A
100
AcDbXrecord
280
     1
270
     1
271
     1
  0
XRECORD
  5
1B
102
{ACAD_REACTORS
330
1A
102
}
330
1A
100
AcDbXrecord
280
     1
270
     1
271
     1
  0
XRECORD
  5
1F
102
{ACAD_REACTORS
330
1A
102
}
330
1A
100
AcDbXrecord
280
     1
270
     1
271
     1
  0
XRECORD
  5
1E
102
{ACAD_REACTORS
330
1A
102
}
330
1A
100
AcDbXrecord
280
     1
270
     1
271
     1
  0
XRECORD
  5
20
102
{ACAD_REACTORS
330
1A
102
}
330
1A
100
AcDbXrecord
280
     1
270
     1
271
     1
  0
XRECORD
  5
1D
102
{ACAD_REACTORS
330
1A
102
}
330
1A
100
AcDbXrecord
280
     1
270
     1
271
     1
  0
XRECORD
  5
14
102
{ACAD_REACTORS
330
12
102
}
330
12
100
AcDbXrecord
280
     1
270
     1
271
     1
  0
XRECORD
  5
13
102
{ACAD_REACTORS
330
12
102
}
330
12
100
AcDbXrecord
280
     1
270
     1
271
     1
  0
XRECORD
  5
17
102
{ACAD_REACTORS
330
12
102
}
330
12
100
AcDbXrecord
280
     1
270
     1
271
     1
  0
XRECORD
  5
16
102
{ACAD_REACTORS
330
12
102
}
330
12
100
AcDbXrecord
280
     1
270
     1
271
     1
  0
XRECORD
  5
18
102
{ACAD_REACTORS
330
12
102
}
330
12
100
AcDbXrecord
280
     1
270
     1
271
     1
  0
XRECORD
  5
15
102
{ACAD_REACTORS
330
12
102
}
330
12
100
AcDbXrecord
280
     1
270
     1
271
     1
  0
XRECORD
  5
24
102
{ACAD_REACTORS
330
22
102
}
330
22
100
AcDbXrecord
280
     1
270
     1
271
     1
  0
XRECORD
  5
23
102
{ACAD_REACTORS
330
22
102
}
330
22
100
AcDbXrecord
280
     1
270
     1
271
     1
  0
XRECORD
  5
27
102
{ACAD_REACTORS
330
22
102
}
330
22
100
AcDbXrecord
280
     1
270
     1
271
     1
  0
XRECORD
  5
26
102
{ACAD_REACTORS
330
22
102
}
330
22
100
AcDbXrecord
280
     1
270
     1
271
     1
  0
XRECORD
  5
28
102
{ACAD_REACTORS
330
22
102
}
330
22
100
AcDbXrecord
280
     1
270
     1
271
     1
  0
XRECORD
  5
25
102
{ACAD_REACTORS
330
22
102
}
330
22
100
AcDbXrecord
280
     1
270
     1
271
     1
  0
CELLSTYLEMAP
  5
337
102
{ACAD_REACTORS
330
336
102
}
330
336
100
AcDbCellStyleMap
 90
        3
300
CELLSTYLE
  1
TABLEFORMAT_BEGIN
 90
        5
170
     1
 91
        0
 92
    32768
 62
   257
 93
        1
300
CONTENTFORMAT
  1
CONTENTFORMAT_BEGIN
 90
        0
 91
        0
 92
      512
 93
        0
300

 40
0.0
140
1.0
 94
        5
 62
     0
340
55
144
0.25
309
CONTENTFORMAT_END
171
     0
 94
        0
309
TABLEFORMAT_END
  1
CELLSTYLE_BEGIN
 90
        1
 91
        1
300
_TITLE
309
CELLSTYLE_END
300
CELLSTYLE
  1
TABLEFORMAT_BEGIN
 90
        5
170
     1
 91
        0
 92
        0
 62
   257
 93
        1
300
CONTENTFORMAT
  1
CONTENTFORMAT_BEGIN
 90
        0
 91
        0
 92
      512
 93
        0
300

 40
0.0
140
1.0
 94
        5
 62
     0
340
55
144
0.18
309
CONTENTFORMAT_END
171
     0
 94
        0
309
TABLEFORMAT_END
  1
CELLSTYLE_BEGIN
 90
        2
 91
        1
300
_HEADER
309
CELLSTYLE_END
300
CELLSTYLE
  1
TABLEFORMAT_BEGIN
 90
        5
170
     1
 91
        0
 92
        0
 62
   257
 93
        1
300
CONTENTFORMAT
  1
CONTENTFORMAT_BEGIN
 90
        0
 91
        0
 92
      512
 93
        0
300

 40
0.0
140
1.0
 94
        2
 62
     0
340
55
144
0.18
309
CONTENTFORMAT_END
171
     0
 94
        0
309
TABLEFORMAT_END
  1
CELLSTYLE_BEGIN
 90
        3
 91
        2
300
_DATA
309
CELLSTYLE_END
  0
ENDSEC
  0
SECTION
  2
ACDSDATA
 70
     2
 71
     8
  0
ACDSSCHEMA
 90
        0
  1
AcDb_Thumbnail_Schema
  2
AcDbDs::ID
280
    10
 91
        8
  2
Thumbnail_Data
280
    15
 91
        0
101
ACDSRECORD
 95
        0
 90
        1
  2
AcDbDs::TreatedAsObjectData
280
     1
291
     1
101
ACDSRECORD
 95
        0
 90
        2
  2
AcDbDs::Legacy
280
     1
291
     1
101
ACDSRECORD
  1
AcDbDs::ID
 90
        3
  2
AcDs:Indexable
280
     1
291
     1
101
ACDSRECORD
  1
AcDbDs::ID
 90
        4
  2
AcDbDs::HandleAttribute
280
     7
282
     1
  0
ACDSSCHEMA
 90
        1
  1
AcDbDs::TreatedAsObjectDataSchema
  2
AcDbDs::TreatedAsObjectData
280
     1
 91
        0
  0
ACDSSCHEMA
 90
        2
  1
AcDbDs::LegacySchema
  2
AcDbDs::Legacy
280
     1
 91
        0
  0
ACDSSCHEMA
 90
        3
  1
AcDbDs::IndexedPropertySchema
  2
AcDs:Indexable
280
     1
 91
        0
  0
ACDSSCHEMA
 90
        4
  1
AcDbDs::HandleAttributeSchema
  2
AcDbDs::HandleAttribute
280
     7
 91
        1
284
     1
  0
ACDSRECORD
 90
        0
  2
AcDbDs::ID
280
    10
320
72
  2
Thumbnail_Data
280
    15
 94
     1680
310
89504E470D0A1A0A0000000D4948445200000100000000A808030000003894C06300000300504C5445212830FFFFFF2128300000000000000000000000000000000000000000000000000000330000660000990000CC0000FF0033000033330033660033990033CC0033FF0066000066330066660066990066CC0066FF0099
310
000099330099660099990099CC0099FF00CC0000CC3300CC6600CC9900CCCC00CCFF00FF0000FF3300FF6600FF9900FFCC00FFFF3300003300333300663300993300CC3300FF3333003333333333663333993333CC3333FF3366003366333366663366993366CC3366FF3399003399333399663399993399CC3399FF33CC00
310
33CC3333CC6633CC9933CCCC33CCFF33FF0033FF3333FF6633FF9933FFCC33FFFF6600006600336600666600996600CC6600FF6633006633336633666633996633CC6633FF6666006666336666666666996666CC6666FF6699006699336699666699996699CC6699FF66CC0066CC3366CC6666CC9966CCCC66CCFF66FF0066
310
FF3366FF6666FF9966FFCC66FFFF9900009900339900669900999900CC9900FF9933009933339933669933999933CC9933FF9966009966339966669966999966CC9966FF9999009999339999669999999999CC9999FF99CC0099CC3399CC6699CC9999CCCC99CCFF99FF0099FF3399FF6699FF9999FFCC99FFFFCC0000CC00
310
33CC0066CC0099CC00CCCC00FFCC3300CC3333CC3366CC3399CC33CCCC33FFCC6600CC6633CC6666CC6699CC66CCCC66FFCC9900CC9933CC9966CC9999CC99CCCC99FFCCCC00CCCC33CCCC66CCCC99CCCCCCCCCCFFCCFF00CCFF33CCFF66CCFF99CCFFCCCCFFFFFF0000FF0033FF0066FF0099FF00CCFF00FFFF3300FF3333
310
FF3366FF3399FF33CCFF33FFFF6600FF6633FF6666FF6699FF66CCFF66FFFF9900FF9933FF9966FF9999FF99CCFF99FFFFCC00FFCC33FFCC66FFCC99FFCCCCFFCCFFFFFF00FFFF33FFFF66FFFF99FFFFCCFFFFFF0000000D0D0D1A1A1A2828283535354343435050505D5D5D6B6B6B787878868686939393A1A1A1AEAEAEBB
310
BBBBC9C9C9D6D6D6E4E4E4F1F1F1FFFFFF0000000000000000000000000000000000000000000000000000000000002E4550F10000034B4944415478DAED9CDB769C300C45F5FFFFABF766B53360D912E6225388F77E681C065338C89A6319220200000000000000000000000000000000000000000033A33F4C7EF9532AA0
310
AFE7EAF5BFFF0E260580FDB5F9BCDB54E7A0E19E099D924260E9AEC5BFEBCF72C37653CA6BE9EEA9D73B6956047C8EB51E556B0174FDFFFDA6EDD2EB546DEE77723697FB5F17E05F7C2D3A6B2DFC6743D85C552CEFD6BAA7B47B6AAF93A8DF49CCA92EC7B9288073D4EEB5FC1D7C45739700BACAD6EBE41C7E9800622240EA
310
083011E8DEA2B70F0192E0DC02CCEE037E819947803143A0F844F70F843DF17BA429FEC8BCC30A17E927C8448712A49E6B8AB9C6F297E1DF024F11C09C64F15BA200BE15FE363F02740D71D83CD56FB163C5CD97FA5E7DC6CB202BFC31ACABE174BD6DBF79A19F11A0BEE59973812802C44440338DF1EFD9C64CC6EDB72302
310
D4DC6D95EC08785B0E983E09260BF0701F105641B1C258E1115658C239D7B030DF6F888D19186485259C758F4A74FB52E1F7820B09C67C0B3C5900097EA61AA1A630BCD3B49CB5C93B9D5120C0002B2C61EDD5B5C98BC33B6977B53D96BBF37708881D0203AAC29D08386877E56A3F13018E00F95678CE1C30B9006FF101F5
310
5ACA7456B8582F9BD30A37D97A94159670DA75CF80889642460D817691AA4E87775600E2E2C37DDF02130A50ADD4972675AF1B4E34C6C121461A216B854D65B6E786A5570A3E5E3F0E36047381941CF092081837192209BE4380510591B7F880512531AAC25485D55982AF1625EE5F2669E7A5FE63120902483CDDFE8F0B65
310
9B150004C81640ABF33093AF5B16CB25AA0347A7962A805AF5B5749FD98F4B1CAA03AFFB39F5EA4C011A990B01B21F9839B612109E1A390001F0013841041820403FE88340DC9A9B759EA80F63BBEEBB512ECE13A09BF69C54E42C2C6D7CE624348DEF653F733E410073A22A4D7DCDD9F1C9026C9B5FE7BD2AF3389F3672D8
310
CDEABC9F17785C913D0F9BA60BD031BFEE9B754B80075535F78D1F2DDE0A53CFE3AEDA6C9AE67401B6CDAFF36E655BB06A3E2BBFDC8308D08D08D834CD0FCA01FA3B72C0DC029CF101668FB0C4FC3DD4D37C40861554F3168B3D64FDA253BE11BCFC2724E6FE131A00009342F6040000000000000000000000000000000000
310
000000000080F7F207E283C5A42F44D2CA0000000049454E44AE426082
  0
ENDSEC
  0
EOF
