  0
SECTION
  2
HEADER
  9
$ACADVER
  1
AC1009
  9
$EXTMIN
 10
0.0
 20
0.0
 30
0.0
  9
$EXTMAX
 10
1000.0
 20
1000.0
 30
0.0
  9
$FILLMODE
 70
 0
  9
$SPLFRAME
 70
 1
  0
ENDSEC
  0
SECTION
  2
TABLES
  0
TABLE
  2
LAYER
 70
1
  0
LAYER
  2
0
 70
     0
 62
     7
  6
CONTINUOUS
  0
ENDTAB
  0
ENDSEC
  0
SECTION
  2
ENTITIES
  0
LINE
  8
0
 62
     0
 10
0.0950846
 20
114.558
 30
0.0
 11
333.47
 21
114.558
 31
0.0
  0
LINE
  8
0
 62
     0
 10
333.47
 20
114.558
 30
0.0
 11
333.47
 21
0.257693
 31
0.0
  0
LINE
  8
0
 62
     0
 10
333.47
 20
0.257693
 30
0.0
 11
0.0950846
 21
0.257693
 31
0.0
  0
LINE
  8
0
 62
     0
 10
0.0950846
 20
0.257693
 30
0.0
 11
0.0950846
 21
114.558
 31
0.0
  0
LINE
  8
0
 62
     0
 10
171.687
 20
16.7845
 30
0.0
 11
171.687
 21
12.0826
 31
0.0
  0
LINE
  8
0
 62
     0
 10
171.687
 20
12.0826
 30
0.0
 11
170.163
 21
12.0826
 31
0.0
  0
LINE
  8
0
 62
     0
 10
170.163
 20
12.0826
 30
0.0
 11
170.163
 21
15.3142
 31
0.0
  0
LINE
  8
0
 62
     0
 10
170.163
 20
15.3142
 30
0.0
 11
163.412
 21
15.3142
 31
0.0
  0
LINE
  8
0
 62
     0
 10
163.412
 20
15.3142
 30
0.0
 11
163.412
 21
12.0826
 31
0.0
  0
LINE
  8
0
 62
     0
 10
163.412
 20
12.0826
 30
0.0
 11
162.588
 21
12.0826
 31
0.0
  0
LINE
  8
0
 62
     0
 10
162.588
 20
12.0826
 30
0.0
 11
162.588
 21
9.28384
 31
0.0
  0
LINE
  8
0
 62
     0
 10
162.588
 20
9.28384
 30
0.0
 11
163.412
 21
9.28384
 31
0.0
  0
LINE
  8
0
 62
     0
 10
163.412
 20
9.28384
 30
0.0
 11
163.412
 21
3.01377
 31
0.0
  0
LINE
  8
0
 62
     0
 10
163.412
 20
3.01377
 30
0.0
 11
165.137
 21
3.01377
 31
0.0
  0
LINE
  8
0
 62
     0
 10
165.137
 20
3.01377
 30
0.0
 11
165.137
 21
1.81488
 31
0.0
  0
LINE
  8
0
 62
     0
 10
165.137
 20
1.81488
 30
0.0
 11
168.438
 21
1.81488
 31
0.0
  0
LINE
  8
0
 62
     0
 10
168.438
 20
1.81488
 30
0.0
 11
168.438
 21
3.01377
 31
0.0
  0
LINE
  8
0
 62
     0
 10
168.438
 20
3.01377
 30
0.0
 11
170.163
 21
3.01377
 31
0.0
  0
LINE
  8
0
 62
     0
 10
170.163
 20
3.01377
 30
0.0
 11
170.163
 21
7.48411
 31
0.0
  0
LINE
  8
0
 62
     0
 10
170.163
 20
7.48411
 30
0.0
 11
171.687
 21
7.48411
 31
0.0
  0
LINE
  8
0
 62
     0
 10
171.687
 20
7.48411
 30
0.0
 11
171.687
 21
2.78364
 31
0.0
  0
LINE
  8
0
 62
     0
 10
171.687
 20
2.78364
 30
0.0
 11
185.688
 21
2.78364
 31
0.0
  0
LINE
  8
0
 62
     0
 10
185.688
 20
2.78364
 30
0.0
 11
185.688
 21
7.48411
 31
0.0
  0
LINE
  8
0
 62
     0
 10
185.688
 20
7.48411
 30
0.0
 11
187.212
 21
7.48411
 31
0.0
  0
LINE
  8
0
 62
     0
 10
187.212
 20
7.48411
 30
0.0
 11
187.212
 21
3.01377
 31
0.0
  0
LINE
  8
0
 62
     0
 10
187.212
 20
3.01377
 30
0.0
 11
188.937
 21
3.01377
 31
0.0
  0
LINE
  8
0
 62
     0
 10
188.937
 20
3.01377
 30
0.0
 11
188.937
 21
1.81488
 31
0.0
  0
LINE
  8
0
 62
     0
 10
188.937
 20
1.81488
 30
0.0
 11
192.238
 21
1.81488
 31
0.0
  0
LINE
  8
0
 62
     0
 10
192.238
 20
1.81488
 30
0.0
 11
192.238
 21
3.01377
 31
0.0
  0
LINE
  8
0
 62
     0
 10
192.238
 20
3.01377
 30
0.0
 11
193.963
 21
3.01377
 31
0.0
  0
LINE
  8
0
 62
     0
 10
193.963
 20
3.01377
 30
0.0
 11
193.963
 21
9.28384
 31
0.0
  0
LINE
  8
0
 62
     0
 10
193.963
 20
9.28384
 30
0.0
 11
194.787
 21
9.28384
 31
0.0
  0
LINE
  8
0
 62
     0
 10
194.787
 20
9.28384
 30
0.0
 11
194.787
 21
12.0826
 31
0.0
  0
LINE
  8
0
 62
     0
 10
194.787
 20
12.0826
 30
0.0
 11
193.963
 21
12.0826
 31
0.0
  0
LINE
  8
0
 62
     0
 10
193.963
 20
12.0826
 30
0.0
 11
193.963
 21
15.3142
 31
0.0
  0
LINE
  8
0
 62
     0
 10
193.963
 20
15.3142
 30
0.0
 11
187.212
 21
15.3142
 31
0.0
  0
LINE
  8
0
 62
     0
 10
187.212
 20
15.3142
 30
0.0
 11
187.212
 21
12.0826
 31
0.0
  0
LINE
  8
0
 62
     0
 10
187.212
 20
12.0826
 30
0.0
 11
185.688
 21
12.0826
 31
0.0
  0
LINE
  8
0
 62
     0
 10
185.688
 20
12.0826
 30
0.0
 11
185.688
 21
16.7845
 31
0.0
  0
LINE
  8
0
 62
     0
 10
185.688
 20
16.7845
 30
0.0
 11
171.687
 21
16.7845
 31
0.0
  0
LINE
  8
0
 62
     0
 10
124.062
 20
16.7845
 30
0.0
 11
124.062
 21
12.0826
 31
0.0
  0
LINE
  8
0
 62
     0
 10
124.062
 20
12.0826
 30
0.0
 11
122.538
 21
12.0826
 31
0.0
  0
LINE
  8
0
 62
     0
 10
122.538
 20
12.0826
 30
0.0
 11
122.538
 21
15.3142
 31
0.0
  0
LINE
  8
0
 62
     0
 10
122.538
 20
15.3142
 30
0.0
 11
115.787
 21
15.3142
 31
0.0
  0
LINE
  8
0
 62
     0
 10
115.787
 20
15.3142
 30
0.0
 11
115.787
 21
12.0826
 31
0.0
  0
LINE
  8
0
 62
     0
 10
115.787
 20
12.0826
 30
0.0
 11
114.963
 21
12.0826
 31
0.0
  0
LINE
  8
0
 62
     0
 10
114.963
 20
12.0826
 30
0.0
 11
114.963
 21
9.28384
 31
0.0
  0
LINE
  8
0
 62
     0
 10
114.963
 20
9.28384
 30
0.0
 11
115.787
 21
9.28384
 31
0.0
  0
LINE
  8
0
 62
     0
 10
115.787
 20
9.28384
 30
0.0
 11
115.787
 21
3.01377
 31
0.0
  0
LINE
  8
0
 62
     0
 10
115.787
 20
3.01377
 30
0.0
 11
117.512
 21
3.01377
 31
0.0
  0
LINE
  8
0
 62
     0
 10
117.512
 20
3.01377
 30
0.0
 11
117.512
 21
1.81488
 31
0.0
  0
LINE
  8
0
 62
     0
 10
117.512
 20
1.81488
 30
0.0
 11
120.813
 21
1.81488
 31
0.0
  0
LINE
  8
0
 62
     0
 10
120.813
 20
1.81488
 30
0.0
 11
120.813
 21
3.01377
 31
0.0
  0
LINE
  8
0
 62
     0
 10
120.813
 20
3.01377
 30
0.0
 11
122.538
 21
3.01377
 31
0.0
  0
LINE
  8
0
 62
     0
 10
122.538
 20
3.01377
 30
0.0
 11
122.538
 21
7.48411
 31
0.0
  0
LINE
  8
0
 62
     0
 10
122.538
 20
7.48411
 30
0.0
 11
124.062
 21
7.48411
 31
0.0
  0
LINE
  8
0
 62
     0
 10
124.062
 20
7.48411
 30
0.0
 11
124.062
 21
2.78364
 31
0.0
  0
LINE
  8
0
 62
     0
 10
124.062
 20
2.78364
 30
0.0
 11
138.063
 21
2.78364
 31
0.0
  0
LINE
  8
0
 62
     0
 10
138.063
 20
2.78364
 30
0.0
 11
138.063
 21
7.48411
 31
0.0
  0
LINE
  8
0
 62
     0
 10
138.063
 20
7.48411
 30
0.0
 11
139.587
 21
7.48411
 31
0.0
  0
LINE
  8
0
 62
     0
 10
139.587
 20
7.48411
 30
0.0
 11
139.587
 21
3.01377
 31
0.0
  0
LINE
  8
0
 62
     0
 10
139.587
 20
3.01377
 30
0.0
 11
141.312
 21
3.01377
 31
0.0
  0
LINE
  8
0
 62
     0
 10
141.312
 20
3.01377
 30
0.0
 11
141.312
 21
1.81488
 31
0.0
  0
LINE
  8
0
 62
     0
 10
141.312
 20
1.81488
 30
0.0
 11
144.613
 21
1.81488
 31
0.0
  0
LINE
  8
0
 62
     0
 10
144.613
 20
1.81488
 30
0.0
 11
144.613
 21
3.01377
 31
0.0
  0
LINE
  8
0
 62
     0
 10
144.613
 20
3.01377
 30
0.0
 11
146.338
 21
3.01377
 31
0.0
  0
LINE
  8
0
 62
     0
 10
146.338
 20
3.01377
 30
0.0
 11
146.338
 21
9.28384
 31
0.0
  0
LINE
  8
0
 62
     0
 10
146.338
 20
9.28384
 30
0.0
 11
147.162
 21
9.28384
 31
0.0
  0
LINE
  8
0
 62
     0
 10
147.162
 20
9.28384
 30
0.0
 11
147.162
 21
12.0826
 31
0.0
  0
LINE
  8
0
 62
     0
 10
147.162
 20
12.0826
 30
0.0
 11
146.338
 21
12.0826
 31
0.0
  0
LINE
  8
0
 62
     0
 10
146.338
 20
12.0826
 30
0.0
 11
146.338
 21
15.3142
 31
0.0
  0
LINE
  8
0
 62
     0
 10
146.338
 20
15.3142
 30
0.0
 11
139.587
 21
15.3142
 31
0.0
  0
LINE
  8
0
 62
     0
 10
139.587
 20
15.3142
 30
0.0
 11
139.587
 21
12.0826
 31
0.0
  0
LINE
  8
0
 62
     0
 10
139.587
 20
12.0826
 30
0.0
 11
138.063
 21
12.0826
 31
0.0
  0
LINE
  8
0
 62
     0
 10
138.063
 20
12.0826
 30
0.0
 11
138.063
 21
16.7845
 31
0.0
  0
LINE
  8
0
 62
     0
 10
138.063
 20
16.7845
 30
0.0
 11
124.062
 21
16.7845
 31
0.0
  0
LINE
  8
0
 62
     0
 10
312.182
 20
16.7845
 30
0.0
 11
326.182
 21
16.7845
 31
0.0
  0
LINE
  8
0
 62
     0
 10
326.182
 20
16.7845
 30
0.0
 11
326.182
 21
2.78364
 31
0.0
  0
LINE
  8
0
 62
     0
 10
326.182
 20
2.78364
 30
0.0
 11
312.182
 21
2.78364
 31
0.0
  0
LINE
  8
0
 62
     0
 10
312.182
 20
2.78364
 30
0.0
 11
312.182
 21
16.7845
 31
0.0
  0
LINE
  8
0
 62
     0
 10
293.132
 20
16.7845
 30
0.0
 11
307.132
 21
16.7845
 31
0.0
  0
LINE
  8
0
 62
     0
 10
307.132
 20
16.7845
 30
0.0
 11
307.132
 21
2.78364
 31
0.0
  0
LINE
  8
0
 62
     0
 10
307.132
 20
2.78364
 30
0.0
 11
293.132
 21
2.78364
 31
0.0
  0
LINE
  8
0
 62
     0
 10
293.132
 20
2.78364
 30
0.0
 11
293.132
 21
16.7845
 31
0.0
  0
LINE
  8
0
 62
     0
 10
274.082
 20
16.7845
 30
0.0
 11
288.082
 21
16.7845
 31
0.0
  0
LINE
  8
0
 62
     0
 10
288.082
 20
16.7845
 30
0.0
 11
288.082
 21
2.78364
 31
0.0
  0
LINE
  8
0
 62
     0
 10
288.082
 20
2.78364
 30
0.0
 11
274.082
 21
2.78364
 31
0.0
  0
LINE
  8
0
 62
     0
 10
274.082
 20
2.78364
 30
0.0
 11
274.082
 21
16.7845
 31
0.0
  0
LINE
  8
0
 62
     0
 10
226.457
 20
16.7845
 30
0.0
 11
240.457
 21
16.7845
 31
0.0
  0
LINE
  8
0
 62
     0
 10
240.457
 20
16.7845
 30
0.0
 11
240.457
 21
2.78364
 31
0.0
  0
LINE
  8
0
 62
     0
 10
240.457
 20
2.78364
 30
0.0
 11
226.457
 21
2.78364
 31
0.0
  0
LINE
  8
0
 62
     0
 10
226.457
 20
2.78364
 30
0.0
 11
226.457
 21
16.7845
 31
0.0
  0
LINE
  8
0
 62
     0
 10
205.026
 20
16.7845
 30
0.0
 11
219.025
 21
16.7845
 31
0.0
  0
LINE
  8
0
 62
     0
 10
219.025
 20
16.7845
 30
0.0
 11
219.025
 21
2.78364
 31
0.0
  0
LINE
  8
0
 62
     0
 10
219.025
 20
2.78364
 30
0.0
 11
205.026
 21
2.78364
 31
0.0
  0
LINE
  8
0
 62
     0
 10
205.026
 20
2.78364
 30
0.0
 11
205.026
 21
16.7845
 31
0.0
  0
LINE
  8
0
 62
     0
 10
85.9621
 20
16.7845
 30
0.0
 11
99.9628
 21
16.7845
 31
0.0
  0
LINE
  8
0
 62
     0
 10
99.9628
 20
16.7845
 30
0.0
 11
99.9628
 21
2.78364
 31
0.0
  0
LINE
  8
0
 62
     0
 10
99.9628
 20
2.78364
 30
0.0
 11
85.9621
 21
2.78364
 31
0.0
  0
LINE
  8
0
 62
     0
 10
85.9621
 20
2.78364
 30
0.0
 11
85.9621
 21
16.7845
 31
0.0
  0
LINE
  8
0
 62
     0
 10
64.5322
 20
16.7845
 30
0.0
 11
78.5315
 21
16.7845
 31
0.0
  0
LINE
  8
0
 62
     0
 10
78.5315
 20
16.7845
 30
0.0
 11
78.5315
 21
2.78364
 31
0.0
  0
LINE
  8
0
 62
     0
 10
78.5315
 20
2.78364
 30
0.0
 11
64.5322
 21
2.78364
 31
0.0
  0
LINE
  8
0
 62
     0
 10
64.5322
 20
2.78364
 30
0.0
 11
64.5322
 21
16.7845
 31
0.0
  0
LINE
  8
0
 62
     0
 10
45.4822
 20
16.7845
 30
0.0
 11
59.4815
 21
16.7845
 31
0.0
  0
LINE
  8
0
 62
     0
 10
59.4815
 20
16.7845
 30
0.0
 11
59.4815
 21
2.78364
 31
0.0
  0
LINE
  8
0
 62
     0
 10
59.4815
 20
2.78364
 30
0.0
 11
45.4822
 21
2.78364
 31
0.0
  0
LINE
  8
0
 62
     0
 10
45.4822
 20
2.78364
 30
0.0
 11
45.4822
 21
16.7845
 31
0.0
  0
LINE
  8
0
 62
     0
 10
26.4322
 20
16.7845
 30
0.0
 11
40.4315
 21
16.7845
 31
0.0
  0
LINE
  8
0
 62
     0
 10
40.4315
 20
16.7845
 30
0.0
 11
40.4315
 21
2.78364
 31
0.0
  0
LINE
  8
0
 62
     0
 10
40.4315
 20
2.78364
 30
0.0
 11
26.4322
 21
2.78364
 31
0.0
  0
LINE
  8
0
 62
     0
 10
26.4322
 20
2.78364
 30
0.0
 11
26.4322
 21
16.7845
 31
0.0
  0
LINE
  8
0
 62
     0
 10
293.132
 20
35.833
 30
0.0
 11
307.132
 21
35.833
 31
0.0
  0
LINE
  8
0
 62
     0
 10
307.132
 20
35.833
 30
0.0
 11
307.132
 21
21.8336
 31
0.0
  0
LINE
  8
0
 62
     0
 10
307.132
 20
21.8336
 30
0.0
 11
293.132
 21
21.8336
 31
0.0
  0
LINE
  8
0
 62
     0
 10
293.132
 20
21.8336
 30
0.0
 11
293.132
 21
35.833
 31
0.0
  0
LINE
  8
0
 62
     0
 10
266.937
 20
35.833
 30
0.0
 11
280.938
 21
35.833
 31
0.0
  0
LINE
  8
0
 62
     0
 10
280.938
 20
35.833
 30
0.0
 11
280.938
 21
21.8336
 31
0.0
  0
LINE
  8
0
 62
     0
 10
280.938
 20
21.8336
 30
0.0
 11
266.937
 21
21.8336
 31
0.0
  0
LINE
  8
0
 62
     0
 10
266.937
 20
21.8336
 30
0.0
 11
266.937
 21
35.833
 31
0.0
  0
LINE
  8
0
 62
     0
 10
240.745
 20
35.833
 30
0.0
 11
254.744
 21
35.833
 31
0.0
  0
LINE
  8
0
 62
     0
 10
254.744
 20
35.833
 30
0.0
 11
254.744
 21
21.8336
 31
0.0
  0
LINE
  8
0
 62
     0
 10
254.744
 20
21.8336
 30
0.0
 11
240.745
 21
21.8336
 31
0.0
  0
LINE
  8
0
 62
     0
 10
240.745
 20
21.8336
 30
0.0
 11
240.745
 21
35.833
 31
0.0
  0
LINE
  8
0
 62
     0
 10
221.695
 20
35.833
 30
0.0
 11
235.694
 21
35.833
 31
0.0
  0
LINE
  8
0
 62
     0
 10
235.694
 20
35.833
 30
0.0
 11
235.694
 21
21.8336
 31
0.0
  0
LINE
  8
0
 62
     0
 10
235.694
 20
21.8336
 30
0.0
 11
221.695
 21
21.8336
 31
0.0
  0
LINE
  8
0
 62
     0
 10
221.695
 20
21.8336
 30
0.0
 11
221.695
 21
35.833
 31
0.0
  0
LINE
  8
0
 62
     0
 10
202.645
 20
35.833
 30
0.0
 11
216.644
 21
35.833
 31
0.0
  0
LINE
  8
0
 62
     0
 10
216.644
 20
35.833
 30
0.0
 11
216.644
 21
21.8336
 31
0.0
  0
LINE
  8
0
 62
     0
 10
216.644
 20
21.8336
 30
0.0
 11
202.645
 21
21.8336
 31
0.0
  0
LINE
  8
0
 62
     0
 10
202.645
 20
21.8336
 30
0.0
 11
202.645
 21
35.833
 31
0.0
  0
LINE
  8
0
 62
     0
 10
183.595
 20
35.833
 30
0.0
 11
197.594
 21
35.833
 31
0.0
  0
LINE
  8
0
 62
     0
 10
197.594
 20
35.833
 30
0.0
 11
197.594
 21
21.8336
 31
0.0
  0
LINE
  8
0
 62
     0
 10
197.594
 20
21.8336
 30
0.0
 11
183.595
 21
21.8336
 31
0.0
  0
LINE
  8
0
 62
     0
 10
183.595
 20
21.8336
 30
0.0
 11
183.595
 21
35.833
 31
0.0
  0
LINE
  8
0
 62
     0
 10
164.545
 20
35.833
 30
0.0
 11
178.544
 21
35.833
 31
0.0
  0
LINE
  8
0
 62
     0
 10
178.544
 20
35.833
 30
0.0
 11
178.544
 21
21.8336
 31
0.0
  0
LINE
  8
0
 62
     0
 10
178.544
 20
21.8336
 30
0.0
 11
164.545
 21
21.8336
 31
0.0
  0
LINE
  8
0
 62
     0
 10
164.545
 20
21.8336
 30
0.0
 11
164.545
 21
35.833
 31
0.0
  0
LINE
  8
0
 62
     0
 10
145.495
 20
35.833
 30
0.0
 11
159.494
 21
35.833
 31
0.0
  0
LINE
  8
0
 62
     0
 10
159.494
 20
35.833
 30
0.0
 11
159.494
 21
21.8336
 31
0.0
  0
LINE
  8
0
 62
     0
 10
159.494
 20
21.8336
 30
0.0
 11
145.495
 21
21.8336
 31
0.0
  0
LINE
  8
0
 62
     0
 10
145.495
 20
21.8336
 30
0.0
 11
145.495
 21
35.833
 31
0.0
  0
LINE
  8
0
 62
     0
 10
126.445
 20
35.833
 30
0.0
 11
140.444
 21
35.833
 31
0.0
  0
LINE
  8
0
 62
     0
 10
140.444
 20
35.833
 30
0.0
 11
140.444
 21
21.8336
 31
0.0
  0
LINE
  8
0
 62
     0
 10
140.444
 20
21.8336
 30
0.0
 11
126.445
 21
21.8336
 31
0.0
  0
LINE
  8
0
 62
     0
 10
126.445
 20
21.8336
 30
0.0
 11
126.445
 21
35.833
 31
0.0
  0
LINE
  8
0
 62
     0
 10
107.395
 20
35.833
 30
0.0
 11
121.394
 21
35.833
 31
0.0
  0
LINE
  8
0
 62
     0
 10
121.394
 20
35.833
 30
0.0
 11
121.394
 21
21.8336
 31
0.0
  0
LINE
  8
0
 62
     0
 10
121.394
 20
21.8336
 30
0.0
 11
107.395
 21
21.8336
 31
0.0
  0
LINE
  8
0
 62
     0
 10
107.395
 20
21.8336
 30
0.0
 11
107.395
 21
35.833
 31
0.0
  0
LINE
  8
0
 62
     0
 10
88.3447
 20
35.833
 30
0.0
 11
102.344
 21
35.833
 31
0.0
  0
LINE
  8
0
 62
     0
 10
102.344
 20
35.833
 30
0.0
 11
102.344
 21
21.8336
 31
0.0
  0
LINE
  8
0
 62
     0
 10
102.344
 20
21.8336
 30
0.0
 11
88.3447
 21
21.8336
 31
0.0
  0
LINE
  8
0
 62
     0
 10
88.3447
 20
21.8336
 30
0.0
 11
88.3447
 21
35.833
 31
0.0
  0
LINE
  8
0
 62
     0
 10
69.2947
 20
35.833
 30
0.0
 11
83.294
 21
35.833
 31
0.0
  0
LINE
  8
0
 62
     0
 10
83.294
 20
35.833
 30
0.0
 11
83.294
 21
21.8336
 31
0.0
  0
LINE
  8
0
 62
     0
 10
83.294
 20
21.8336
 30
0.0
 11
69.2947
 21
21.8336
 31
0.0
  0
LINE
  8
0
 62
     0
 10
69.2947
 20
21.8336
 30
0.0
 11
69.2947
 21
35.833
 31
0.0
  0
LINE
  8
0
 62
     0
 10
50.2447
 20
35.833
 30
0.0
 11
64.244
 21
35.833
 31
0.0
  0
LINE
  8
0
 62
     0
 10
64.244
 20
35.833
 30
0.0
 11
64.244
 21
21.8336
 31
0.0
  0
LINE
  8
0
 62
     0
 10
64.244
 20
21.8336
 30
0.0
 11
50.2447
 21
21.8336
 31
0.0
  0
LINE
  8
0
 62
     0
 10
50.2447
 20
21.8336
 30
0.0
 11
50.2447
 21
35.833
 31
0.0
  0
LINE
  8
0
 62
     0
 10
28.812
 20
35.833
 30
0.0
 11
42.8128
 21
35.833
 31
0.0
  0
LINE
  8
0
 62
     0
 10
42.8128
 20
35.833
 30
0.0
 11
42.8128
 21
21.8336
 31
0.0
  0
LINE
  8
0
 62
     0
 10
42.8128
 20
21.8336
 30
0.0
 11
28.812
 21
21.8336
 31
0.0
  0
LINE
  8
0
 62
     0
 10
28.812
 20
21.8336
 30
0.0
 11
28.812
 21
35.833
 31
0.0
  0
LINE
  8
0
 62
     0
 10
2.61965
 20
35.833
 30
0.0
 11
16.6192
 21
35.833
 31
0.0
  0
LINE
  8
0
 62
     0
 10
16.6192
 20
35.833
 30
0.0
 11
16.6192
 21
21.8336
 31
0.0
  0
LINE
  8
0
 62
     0
 10
16.6192
 20
21.8336
 30
0.0
 11
2.61965
 21
21.8336
 31
0.0
  0
LINE
  8
0
 62
     0
 10
2.61965
 20
21.8336
 30
0.0
 11
2.61965
 21
35.833
 31
0.0
  0
LINE
  8
0
 62
     0
 10
316.945
 20
54.8831
 30
0.0
 11
330.944
 21
54.8831
 31
0.0
  0
LINE
  8
0
 62
     0
 10
330.944
 20
54.8831
 30
0.0
 11
330.944
 21
40.8838
 31
0.0
  0
LINE
  8
0
 62
     0
 10
330.944
 20
40.8838
 30
0.0
 11
316.945
 21
40.8838
 31
0.0
  0
LINE
  8
0
 62
     0
 10
316.945
 20
40.8838
 30
0.0
 11
316.945
 21
54.8831
 31
0.0
  0
LINE
  8
0
 62
     0
 10
269.32
 20
54.8831
 30
0.0
 11
283.319
 21
54.8831
 31
0.0
  0
LINE
  8
0
 62
     0
 10
283.319
 20
54.8831
 30
0.0
 11
283.319
 21
40.8838
 31
0.0
  0
LINE
  8
0
 62
     0
 10
283.319
 20
40.8838
 30
0.0
 11
269.32
 21
40.8838
 31
0.0
  0
LINE
  8
0
 62
     0
 10
269.32
 20
40.8838
 30
0.0
 11
269.32
 21
54.8831
 31
0.0
  0
LINE
  8
0
 62
     0
 10
250.27
 20
54.8831
 30
0.0
 11
264.269
 21
54.8831
 31
0.0
  0
LINE
  8
0
 62
     0
 10
264.269
 20
54.8831
 30
0.0
 11
264.269
 21
40.8838
 31
0.0
  0
LINE
  8
0
 62
     0
 10
264.269
 20
40.8838
 30
0.0
 11
250.27
 21
40.8838
 31
0.0
  0
LINE
  8
0
 62
     0
 10
250.27
 20
40.8838
 30
0.0
 11
250.27
 21
54.8831
 31
0.0
  0
LINE
  8
0
 62
     0
 10
231.22
 20
54.8831
 30
0.0
 11
245.219
 21
54.8831
 31
0.0
  0
LINE
  8
0
 62
     0
 10
245.219
 20
54.8831
 30
0.0
 11
245.219
 21
40.8838
 31
0.0
  0
LINE
  8
0
 62
     0
 10
245.219
 20
40.8838
 30
0.0
 11
231.22
 21
40.8838
 31
0.0
  0
LINE
  8
0
 62
     0
 10
231.22
 20
40.8838
 30
0.0
 11
231.22
 21
54.8831
 31
0.0
  0
LINE
  8
0
 62
     0
 10
212.17
 20
54.8831
 30
0.0
 11
226.169
 21
54.8831
 31
0.0
  0
LINE
  8
0
 62
     0
 10
226.169
 20
54.8831
 30
0.0
 11
226.169
 21
40.8838
 31
0.0
  0
LINE
  8
0
 62
     0
 10
226.169
 20
40.8838
 30
0.0
 11
212.17
 21
40.8838
 31
0.0
  0
LINE
  8
0
 62
     0
 10
212.17
 20
40.8838
 30
0.0
 11
212.17
 21
54.8831
 31
0.0
  0
LINE
  8
0
 62
     0
 10
193.12
 20
54.8831
 30
0.0
 11
207.119
 21
54.8831
 31
0.0
  0
LINE
  8
0
 62
     0
 10
207.119
 20
54.8831
 30
0.0
 11
207.119
 21
40.8838
 31
0.0
  0
LINE
  8
0
 62
     0
 10
207.119
 20
40.8838
 30
0.0
 11
193.12
 21
40.8838
 31
0.0
  0
LINE
  8
0
 62
     0
 10
193.12
 20
40.8838
 30
0.0
 11
193.12
 21
54.8831
 31
0.0
  0
LINE
  8
0
 62
     0
 10
174.07
 20
54.8831
 30
0.0
 11
188.069
 21
54.8831
 31
0.0
  0
LINE
  8
0
 62
     0
 10
188.069
 20
54.8831
 30
0.0
 11
188.069
 21
40.8838
 31
0.0
  0
LINE
  8
0
 62
     0
 10
188.069
 20
40.8838
 30
0.0
 11
174.07
 21
40.8838
 31
0.0
  0
LINE
  8
0
 62
     0
 10
174.07
 20
40.8838
 30
0.0
 11
174.07
 21
54.8831
 31
0.0
  0
LINE
  8
0
 62
     0
 10
155.02
 20
54.8831
 30
0.0
 11
169.019
 21
54.8831
 31
0.0
  0
LINE
  8
0
 62
     0
 10
169.019
 20
54.8831
 30
0.0
 11
169.019
 21
40.8838
 31
0.0
  0
LINE
  8
0
 62
     0
 10
169.019
 20
40.8838
 30
0.0
 11
155.02
 21
40.8838
 31
0.0
  0
LINE
  8
0
 62
     0
 10
155.02
 20
40.8838
 30
0.0
 11
155.02
 21
54.8831
 31
0.0
  0
LINE
  8
0
 62
     0
 10
135.97
 20
54.8831
 30
0.0
 11
149.969
 21
54.8831
 31
0.0
  0
LINE
  8
0
 62
     0
 10
149.969
 20
54.8831
 30
0.0
 11
149.969
 21
40.8838
 31
0.0
  0
LINE
  8
0
 62
     0
 10
149.969
 20
40.8838
 30
0.0
 11
135.97
 21
40.8838
 31
0.0
  0
LINE
  8
0
 62
     0
 10
135.97
 20
40.8838
 30
0.0
 11
135.97
 21
54.8831
 31
0.0
  0
LINE
  8
0
 62
     0
 10
116.92
 20
54.8831
 30
0.0
 11
130.919
 21
54.8831
 31
0.0
  0
LINE
  8
0
 62
     0
 10
130.919
 20
54.8831
 30
0.0
 11
130.919
 21
40.8838
 31
0.0
  0
LINE
  8
0
 62
     0
 10
130.919
 20
40.8838
 30
0.0
 11
116.92
 21
40.8838
 31
0.0
  0
LINE
  8
0
 62
     0
 10
116.92
 20
40.8838
 30
0.0
 11
116.92
 21
54.8831
 31
0.0
  0
LINE
  8
0
 62
     0
 10
97.8697
 20
54.8831
 30
0.0
 11
111.869
 21
54.8831
 31
0.0
  0
LINE
  8
0
 62
     0
 10
111.869
 20
54.8831
 30
0.0
 11
111.869
 21
40.8838
 31
0.0
  0
LINE
  8
0
 62
     0
 10
111.869
 20
40.8838
 30
0.0
 11
97.8697
 21
40.8838
 31
0.0
  0
LINE
  8
0
 62
     0
 10
97.8697
 20
40.8838
 30
0.0
 11
97.8697
 21
54.8831
 31
0.0
  0
LINE
  8
0
 62
     0
 10
78.8197
 20
54.8831
 30
0.0
 11
92.819
 21
54.8831
 31
0.0
  0
LINE
  8
0
 62
     0
 10
92.819
 20
54.8831
 30
0.0
 11
92.819
 21
40.8838
 31
0.0
  0
LINE
  8
0
 62
     0
 10
92.819
 20
40.8838
 30
0.0
 11
78.8197
 21
40.8838
 31
0.0
  0
LINE
  8
0
 62
     0
 10
78.8197
 20
40.8838
 30
0.0
 11
78.8197
 21
54.8831
 31
0.0
  0
LINE
  8
0
 62
     0
 10
59.7697
 20
54.8831
 30
0.0
 11
73.769
 21
54.8831
 31
0.0
  0
LINE
  8
0
 62
     0
 10
73.769
 20
54.8831
 30
0.0
 11
73.769
 21
40.8838
 31
0.0
  0
LINE
  8
0
 62
     0
 10
73.769
 20
40.8838
 30
0.0
 11
59.7697
 21
40.8838
 31
0.0
  0
LINE
  8
0
 62
     0
 10
59.7697
 20
40.8838
 30
0.0
 11
59.7697
 21
54.8831
 31
0.0
  0
LINE
  8
0
 62
     0
 10
33.5759
 20
54.8831
 30
0.0
 11
47.5753
 21
54.8831
 31
0.0
  0
LINE
  8
0
 62
     0
 10
47.5753
 20
54.8831
 30
0.0
 11
47.5753
 21
40.8838
 31
0.0
  0
LINE
  8
0
 62
     0
 10
47.5753
 20
40.8838
 30
0.0
 11
33.5759
 21
40.8838
 31
0.0
  0
LINE
  8
0
 62
     0
 10
33.5759
 20
40.8838
 30
0.0
 11
33.5759
 21
54.8831
 31
0.0
  0
LINE
  8
0
 62
     0
 10
2.61965
 20
54.8831
 30
0.0
 11
16.6192
 21
54.8831
 31
0.0
  0
LINE
  8
0
 62
     0
 10
16.6192
 20
54.8831
 30
0.0
 11
16.6192
 21
40.8838
 31
0.0
  0
LINE
  8
0
 62
     0
 10
16.6192
 20
40.8838
 30
0.0
 11
2.61965
 21
40.8838
 31
0.0
  0
LINE
  8
0
 62
     0
 10
2.61965
 20
40.8838
 30
0.0
 11
2.61965
 21
54.8831
 31
0.0
  0
LINE
  8
0
 62
     0
 10
297.251
 20
73.5087
 30
0.0
 11
297.251
 21
72.6832
 31
0.0
  0
LINE
  8
0
 62
     0
 10
297.251
 20
72.6832
 30
0.0
 11
290.981
 21
72.6832
 31
0.0
  0
LINE
  8
0
 62
     0
 10
290.981
 20
72.6832
 30
0.0
 11
290.981
 21
70.9595
 31
0.0
  0
LINE
  8
0
 62
     0
 10
290.981
 20
70.9595
 30
0.0
 11
289.781
 21
70.9595
 31
0.0
  0
LINE
  8
0
 62
     0
 10
289.781
 20
70.9595
 30
0.0
 11
289.781
 21
67.6589
 31
0.0
  0
LINE
  8
0
 62
     0
 10
289.781
 20
67.6589
 30
0.0
 11
290.981
 21
67.6589
 31
0.0
  0
LINE
  8
0
 62
     0
 10
290.981
 20
67.6589
 30
0.0
 11
290.981
 21
65.9335
 31
0.0
  0
LINE
  8
0
 62
     0
 10
290.981
 20
65.9335
 30
0.0
 11
295.45
 21
65.9335
 31
0.0
  0
LINE
  8
0
 62
     0
 10
295.45
 20
65.9335
 30
0.0
 11
295.45
 21
64.4081
 31
0.0
  0
LINE
  8
0
 62
     0
 10
295.45
 20
64.4081
 30
0.0
 11
290.751
 21
64.4081
 31
0.0
  0
LINE
  8
0
 62
     0
 10
290.751
 20
64.4081
 30
0.0
 11
290.751
 21
50.4088
 31
0.0
  0
LINE
  8
0
 62
     0
 10
290.751
 20
50.4088
 30
0.0
 11
295.45
 21
50.4088
 31
0.0
  0
LINE
  8
0
 62
     0
 10
295.45
 20
50.4088
 30
0.0
 11
295.45
 21
48.883
 31
0.0
  0
LINE
  8
0
 62
     0
 10
295.45
 20
48.883
 30
0.0
 11
290.981
 21
48.883
 31
0.0
  0
LINE
  8
0
 62
     0
 10
290.981
 20
48.883
 30
0.0
 11
290.981
 21
47.1579
 31
0.0
  0
LINE
  8
0
 62
     0
 10
290.981
 20
47.1579
 30
0.0
 11
289.781
 21
47.1579
 31
0.0
  0
LINE
  8
0
 62
     0
 10
289.781
 20
47.1579
 30
0.0
 11
289.781
 21
43.8587
 31
0.0
  0
LINE
  8
0
 62
     0
 10
289.781
 20
43.8587
 30
0.0
 11
290.981
 21
43.8587
 31
0.0
  0
LINE
  8
0
 62
     0
 10
290.981
 20
43.8587
 30
0.0
 11
290.981
 21
42.1337
 31
0.0
  0
LINE
  8
0
 62
     0
 10
290.981
 20
42.1337
 30
0.0
 11
297.251
 21
42.1337
 31
0.0
  0
LINE
  8
0
 62
     0
 10
297.251
 20
42.1337
 30
0.0
 11
297.251
 21
41.3082
 31
0.0
  0
LINE
  8
0
 62
     0
 10
297.251
 20
41.3082
 30
0.0
 11
300.05
 21
41.3082
 31
0.0
  0
LINE
  8
0
 62
     0
 10
300.05
 20
41.3082
 30
0.0
 11
300.05
 21
42.1337
 31
0.0
  0
LINE
  8
0
 62
     0
 10
300.05
 20
42.1337
 30
0.0
 11
303.28
 21
42.1337
 31
0.0
  0
LINE
  8
0
 62
     0
 10
303.28
 20
42.1337
 30
0.0
 11
303.28
 21
48.883
 31
0.0
  0
LINE
  8
0
 62
     0
 10
303.28
 20
48.883
 30
0.0
 11
300.05
 21
48.883
 31
0.0
  0
LINE
  8
0
 62
     0
 10
300.05
 20
48.883
 30
0.0
 11
300.05
 21
50.4088
 31
0.0
  0
LINE
  8
0
 62
     0
 10
300.05
 20
50.4088
 30
0.0
 11
304.75
 21
50.4088
 31
0.0
  0
LINE
  8
0
 62
     0
 10
304.75
 20
50.4088
 30
0.0
 11
304.75
 21
64.4081
 31
0.0
  0
LINE
  8
0
 62
     0
 10
304.75
 20
64.4081
 30
0.0
 11
300.05
 21
64.4081
 31
0.0
  0
LINE
  8
0
 62
     0
 10
300.05
 20
64.4081
 30
0.0
 11
300.05
 21
65.9335
 31
0.0
  0
LINE
  8
0
 62
     0
 10
300.05
 20
65.9335
 30
0.0
 11
303.28
 21
65.9335
 31
0.0
  0
LINE
  8
0
 62
     0
 10
303.28
 20
65.9335
 30
0.0
 11
303.28
 21
72.6832
 31
0.0
  0
LINE
  8
0
 62
     0
 10
303.28
 20
72.6832
 30
0.0
 11
300.05
 21
72.6832
 31
0.0
  0
LINE
  8
0
 62
     0
 10
300.05
 20
72.6832
 30
0.0
 11
300.05
 21
73.5087
 31
0.0
  0
LINE
  8
0
 62
     0
 10
300.05
 20
73.5087
 30
0.0
 11
297.251
 21
73.5087
 31
0.0
  0
LINE
  8
0
 62
     0
 10
316.945
 20
73.9331
 30
0.0
 11
330.944
 21
73.9331
 31
0.0
  0
LINE
  8
0
 62
     0
 10
330.944
 20
73.9331
 30
0.0
 11
330.944
 21
59.9338
 31
0.0
  0
LINE
  8
0
 62
     0
 10
330.944
 20
59.9338
 30
0.0
 11
316.945
 21
59.9338
 31
0.0
  0
LINE
  8
0
 62
     0
 10
316.945
 20
59.9338
 30
0.0
 11
316.945
 21
73.9331
 31
0.0
  0
LINE
  8
0
 62
     0
 10
264.557
 20
73.9331
 30
0.0
 11
278.557
 21
73.9331
 31
0.0
  0
LINE
  8
0
 62
     0
 10
278.557
 20
73.9331
 30
0.0
 11
278.557
 21
59.9338
 31
0.0
  0
LINE
  8
0
 62
     0
 10
278.557
 20
59.9338
 30
0.0
 11
264.557
 21
59.9338
 31
0.0
  0
LINE
  8
0
 62
     0
 10
264.557
 20
59.9338
 30
0.0
 11
264.557
 21
73.9331
 31
0.0
  0
LINE
  8
0
 62
     0
 10
245.507
 20
73.9331
 30
0.0
 11
259.507
 21
73.9331
 31
0.0
  0
LINE
  8
0
 62
     0
 10
259.507
 20
73.9331
 30
0.0
 11
259.507
 21
59.9338
 31
0.0
  0
LINE
  8
0
 62
     0
 10
259.507
 20
59.9338
 30
0.0
 11
245.507
 21
59.9338
 31
0.0
  0
LINE
  8
0
 62
     0
 10
245.507
 20
59.9338
 30
0.0
 11
245.507
 21
73.9331
 31
0.0
  0
LINE
  8
0
 62
     0
 10
226.457
 20
73.9331
 30
0.0
 11
240.457
 21
73.9331
 31
0.0
  0
LINE
  8
0
 62
     0
 10
240.457
 20
73.9331
 30
0.0
 11
240.457
 21
59.9338
 31
0.0
  0
LINE
  8
0
 62
     0
 10
240.457
 20
59.9338
 30
0.0
 11
226.457
 21
59.9338
 31
0.0
  0
LINE
  8
0
 62
     0
 10
226.457
 20
59.9338
 30
0.0
 11
226.457
 21
73.9331
 31
0.0
  0
LINE
  8
0
 62
     0
 10
207.407
 20
73.9331
 30
0.0
 11
221.407
 21
73.9331
 31
0.0
  0
LINE
  8
0
 62
     0
 10
221.407
 20
73.9331
 30
0.0
 11
221.407
 21
59.9338
 31
0.0
  0
LINE
  8
0
 62
     0
 10
221.407
 20
59.9338
 30
0.0
 11
207.407
 21
59.9338
 31
0.0
  0
LINE
  8
0
 62
     0
 10
207.407
 20
59.9338
 30
0.0
 11
207.407
 21
73.9331
 31
0.0
  0
LINE
  8
0
 62
     0
 10
188.357
 20
73.9331
 30
0.0
 11
202.357
 21
73.9331
 31
0.0
  0
LINE
  8
0
 62
     0
 10
202.357
 20
73.9331
 30
0.0
 11
202.357
 21
59.9338
 31
0.0
  0
LINE
  8
0
 62
     0
 10
202.357
 20
59.9338
 30
0.0
 11
188.357
 21
59.9338
 31
0.0
  0
LINE
  8
0
 62
     0
 10
188.357
 20
59.9338
 30
0.0
 11
188.357
 21
73.9331
 31
0.0
  0
LINE
  8
0
 62
     0
 10
169.307
 20
73.9331
 30
0.0
 11
183.307
 21
73.9331
 31
0.0
  0
LINE
  8
0
 62
     0
 10
183.307
 20
73.9331
 30
0.0
 11
183.307
 21
59.9338
 31
0.0
  0
LINE
  8
0
 62
     0
 10
183.307
 20
59.9338
 30
0.0
 11
169.307
 21
59.9338
 31
0.0
  0
LINE
  8
0
 62
     0
 10
169.307
 20
59.9338
 30
0.0
 11
169.307
 21
73.9331
 31
0.0
  0
LINE
  8
0
 62
     0
 10
150.257
 20
73.9331
 30
0.0
 11
164.257
 21
73.9331
 31
0.0
  0
LINE
  8
0
 62
     0
 10
164.257
 20
73.9331
 30
0.0
 11
164.257
 21
59.9338
 31
0.0
  0
LINE
  8
0
 62
     0
 10
164.257
 20
59.9338
 30
0.0
 11
150.257
 21
59.9338
 31
0.0
  0
LINE
  8
0
 62
     0
 10
150.257
 20
59.9338
 30
0.0
 11
150.257
 21
73.9331
 31
0.0
  0
LINE
  8
0
 62
     0
 10
131.207
 20
73.9331
 30
0.0
 11
145.207
 21
73.9331
 31
0.0
  0
LINE
  8
0
 62
     0
 10
145.207
 20
73.9331
 30
0.0
 11
145.207
 21
59.9338
 31
0.0
  0
LINE
  8
0
 62
     0
 10
145.207
 20
59.9338
 30
0.0
 11
131.207
 21
59.9338
 31
0.0
  0
LINE
  8
0
 62
     0
 10
131.207
 20
59.9338
 30
0.0
 11
131.207
 21
73.9331
 31
0.0
  0
LINE
  8
0
 62
     0
 10
112.157
 20
73.9331
 30
0.0
 11
126.157
 21
73.9331
 31
0.0
  0
LINE
  8
0
 62
     0
 10
126.157
 20
73.9331
 30
0.0
 11
126.157
 21
59.9338
 31
0.0
  0
LINE
  8
0
 62
     0
 10
126.157
 20
59.9338
 30
0.0
 11
112.157
 21
59.9338
 31
0.0
  0
LINE
  8
0
 62
     0
 10
112.157
 20
59.9338
 30
0.0
 11
112.157
 21
73.9331
 31
0.0
  0
LINE
  8
0
 62
     0
 10
93.1072
 20
73.9331
 30
0.0
 11
107.107
 21
73.9331
 31
0.0
  0
LINE
  8
0
 62
     0
 10
107.107
 20
73.9331
 30
0.0
 11
107.107
 21
59.9338
 31
0.0
  0
LINE
  8
0
 62
     0
 10
107.107
 20
59.9338
 30
0.0
 11
93.1072
 21
59.9338
 31
0.0
  0
LINE
  8
0
 62
     0
 10
93.1072
 20
59.9338
 30
0.0
 11
93.1072
 21
73.9331
 31
0.0
  0
LINE
  8
0
 62
     0
 10
74.0572
 20
73.9331
 30
0.0
 11
88.0565
 21
73.9331
 31
0.0
  0
LINE
  8
0
 62
     0
 10
88.0565
 20
73.9331
 30
0.0
 11
88.0565
 21
59.9338
 31
0.0
  0
LINE
  8
0
 62
     0
 10
88.0565
 20
59.9338
 30
0.0
 11
74.0572
 21
59.9338
 31
0.0
  0
LINE
  8
0
 62
     0
 10
74.0572
 20
59.9338
 30
0.0
 11
74.0572
 21
73.9331
 31
0.0
  0
LINE
  8
0
 62
     0
 10
55.0072
 20
73.9331
 30
0.0
 11
69.0065
 21
73.9331
 31
0.0
  0
LINE
  8
0
 62
     0
 10
69.0065
 20
73.9331
 30
0.0
 11
69.0065
 21
59.9338
 31
0.0
  0
LINE
  8
0
 62
     0
 10
69.0065
 20
59.9338
 30
0.0
 11
55.0072
 21
59.9338
 31
0.0
  0
LINE
  8
0
 62
     0
 10
55.0072
 20
59.9338
 30
0.0
 11
55.0072
 21
73.9331
 31
0.0
  0
LINE
  8
0
 62
     0
 10
31.1947
 20
73.9331
 30
0.0
 11
45.194
 21
73.9331
 31
0.0
  0
LINE
  8
0
 62
     0
 10
45.194
 20
73.9331
 30
0.0
 11
45.194
 21
59.9338
 31
0.0
  0
LINE
  8
0
 62
     0
 10
45.194
 20
59.9338
 30
0.0
 11
31.1947
 21
59.9338
 31
0.0
  0
LINE
  8
0
 62
     0
 10
31.1947
 20
59.9338
 30
0.0
 11
31.1947
 21
73.9331
 31
0.0
  0
LINE
  8
0
 62
     0
 10
2.61965
 20
73.9331
 30
0.0
 11
16.6192
 21
73.9331
 31
0.0
  0
LINE
  8
0
 62
     0
 10
16.6192
 20
73.9331
 30
0.0
 11
16.6192
 21
59.9338
 31
0.0
  0
LINE
  8
0
 62
     0
 10
16.6192
 20
59.9338
 30
0.0
 11
2.61965
 21
59.9338
 31
0.0
  0
LINE
  8
0
 62
     0
 10
2.61965
 20
59.9338
 30
0.0
 11
2.61965
 21
73.9331
 31
0.0
  0
LINE
  8
0
 62
     0
 10
283.607
 20
92.9831
 30
0.0
 11
283.607
 21
88.2826
 31
0.0
  0
LINE
  8
0
 62
     0
 10
283.607
 20
88.2826
 30
0.0
 11
282.082
 21
88.2826
 31
0.0
  0
LINE
  8
0
 62
     0
 10
282.082
 20
88.2826
 30
0.0
 11
282.082
 21
91.5127
 31
0.0
  0
LINE
  8
0
 62
     0
 10
282.082
 20
91.5127
 30
0.0
 11
275.332
 21
91.5127
 31
0.0
  0
LINE
  8
0
 62
     0
 10
275.332
 20
91.5127
 30
0.0
 11
275.332
 21
88.2826
 31
0.0
  0
LINE
  8
0
 62
     0
 10
275.332
 20
88.2826
 30
0.0
 11
274.507
 21
88.2826
 31
0.0
  0
LINE
  8
0
 62
     0
 10
274.507
 20
88.2826
 30
0.0
 11
274.507
 21
85.4837
 31
0.0
  0
LINE
  8
0
 62
     0
 10
274.507
 20
85.4837
 30
0.0
 11
275.332
 21
85.4837
 31
0.0
  0
LINE
  8
0
 62
     0
 10
275.332
 20
85.4837
 30
0.0
 11
275.332
 21
79.2138
 31
0.0
  0
LINE
  8
0
 62
     0
 10
275.332
 20
79.2138
 30
0.0
 11
277.056
 21
79.2138
 31
0.0
  0
LINE
  8
0
 62
     0
 10
277.056
 20
79.2138
 30
0.0
 11
277.056
 21
78.0136
 31
0.0
  0
LINE
  8
0
 62
     0
 10
277.056
 20
78.0136
 30
0.0
 11
280.356
 21
78.0136
 31
0.0
  0
LINE
  8
0
 62
     0
 10
280.356
 20
78.0136
 30
0.0
 11
280.356
 21
79.2138
 31
0.0
  0
LINE
  8
0
 62
     0
 10
280.356
 20
79.2138
 30
0.0
 11
282.082
 21
79.2138
 31
0.0
  0
LINE
  8
0
 62
     0
 10
282.082
 20
79.2138
 30
0.0
 11
282.082
 21
83.6828
 31
0.0
  0
LINE
  8
0
 62
     0
 10
282.082
 20
83.6828
 30
0.0
 11
283.607
 21
83.6828
 31
0.0
  0
LINE
  8
0
 62
     0
 10
283.607
 20
83.6828
 30
0.0
 11
283.607
 21
78.9838
 31
0.0
  0
LINE
  8
0
 62
     0
 10
283.607
 20
78.9838
 30
0.0
 11
297.607
 21
78.9838
 31
0.0
  0
LINE
  8
0
 62
     0
 10
297.607
 20
78.9838
 30
0.0
 11
297.607
 21
83.6828
 31
0.0
  0
LINE
  8
0
 62
     0
 10
297.607
 20
83.6828
 30
0.0
 11
299.132
 21
83.6828
 31
0.0
  0
LINE
  8
0
 62
     0
 10
299.132
 20
83.6828
 30
0.0
 11
299.132
 21
79.2138
 31
0.0
  0
LINE
  8
0
 62
     0
 10
299.132
 20
79.2138
 30
0.0
 11
300.856
 21
79.2138
 31
0.0
  0
LINE
  8
0
 62
     0
 10
300.856
 20
79.2138
 30
0.0
 11
300.856
 21
78.0136
 31
0.0
  0
LINE
  8
0
 62
     0
 10
300.856
 20
78.0136
 30
0.0
 11
304.157
 21
78.0136
 31
0.0
  0
LINE
  8
0
 62
     0
 10
304.157
 20
78.0136
 30
0.0
 11
304.157
 21
79.2138
 31
0.0
  0
LINE
  8
0
 62
     0
 10
304.157
 20
79.2138
 30
0.0
 11
305.882
 21
79.2138
 31
0.0
  0
LINE
  8
0
 62
     0
 10
305.882
 20
79.2138
 30
0.0
 11
305.882
 21
85.4837
 31
0.0
  0
LINE
  8
0
 62
     0
 10
305.882
 20
85.4837
 30
0.0
 11
306.706
 21
85.4837
 31
0.0
  0
LINE
  8
0
 62
     0
 10
306.706
 20
85.4837
 30
0.0
 11
306.706
 21
88.2826
 31
0.0
  0
LINE
  8
0
 62
     0
 10
306.706
 20
88.2826
 30
0.0
 11
305.882
 21
88.2826
 31
0.0
  0
LINE
  8
0
 62
     0
 10
305.882
 20
88.2826
 30
0.0
 11
305.882
 21
91.5127
 31
0.0
  0
LINE
  8
0
 62
     0
 10
305.882
 20
91.5127
 30
0.0
 11
299.132
 21
91.5127
 31
0.0
  0
LINE
  8
0
 62
     0
 10
299.132
 20
91.5127
 30
0.0
 11
299.132
 21
88.2826
 31
0.0
  0
LINE
  8
0
 62
     0
 10
299.132
 20
88.2826
 30
0.0
 11
297.607
 21
88.2826
 31
0.0
  0
LINE
  8
0
 62
     0
 10
297.607
 20
88.2826
 30
0.0
 11
297.607
 21
92.9831
 31
0.0
  0
LINE
  8
0
 62
     0
 10
297.607
 20
92.9831
 30
0.0
 11
283.607
 21
92.9831
 31
0.0
  0
LINE
  8
0
 62
     0
 10
316.945
 20
92.9831
 30
0.0
 11
330.944
 21
92.9831
 31
0.0
  0
LINE
  8
0
 62
     0
 10
330.944
 20
92.9831
 30
0.0
 11
330.944
 21
78.9838
 31
0.0
  0
LINE
  8
0
 62
     0
 10
330.944
 20
78.9838
 30
0.0
 11
316.945
 21
78.9838
 31
0.0
  0
LINE
  8
0
 62
     0
 10
316.945
 20
78.9838
 30
0.0
 11
316.945
 21
92.9831
 31
0.0
  0
LINE
  8
0
 62
     0
 10
255.032
 20
92.9831
 30
0.0
 11
269.032
 21
92.9831
 31
0.0
  0
LINE
  8
0
 62
     0
 10
269.032
 20
92.9831
 30
0.0
 11
269.032
 21
78.9838
 31
0.0
  0
LINE
  8
0
 62
     0
 10
269.032
 20
78.9838
 30
0.0
 11
255.032
 21
78.9838
 31
0.0
  0
LINE
  8
0
 62
     0
 10
255.032
 20
78.9838
 30
0.0
 11
255.032
 21
92.9831
 31
0.0
  0
LINE
  8
0
 62
     0
 10
235.982
 20
92.9831
 30
0.0
 11
249.982
 21
92.9831
 31
0.0
  0
LINE
  8
0
 62
     0
 10
249.982
 20
92.9831
 30
0.0
 11
249.982
 21
78.9838
 31
0.0
  0
LINE
  8
0
 62
     0
 10
249.982
 20
78.9838
 30
0.0
 11
235.982
 21
78.9838
 31
0.0
  0
LINE
  8
0
 62
     0
 10
235.982
 20
78.9838
 30
0.0
 11
235.982
 21
92.9831
 31
0.0
  0
LINE
  8
0
 62
     0
 10
216.932
 20
92.9831
 30
0.0
 11
230.932
 21
92.9831
 31
0.0
  0
LINE
  8
0
 62
     0
 10
230.932
 20
92.9831
 30
0.0
 11
230.932
 21
78.9838
 31
0.0
  0
LINE
  8
0
 62
     0
 10
230.932
 20
78.9838
 30
0.0
 11
216.932
 21
78.9838
 31
0.0
  0
LINE
  8
0
 62
     0
 10
216.932
 20
78.9838
 30
0.0
 11
216.932
 21
92.9831
 31
0.0
  0
LINE
  8
0
 62
     0
 10
197.882
 20
92.9831
 30
0.0
 11
211.882
 21
92.9831
 31
0.0
  0
LINE
  8
0
 62
     0
 10
211.882
 20
92.9831
 30
0.0
 11
211.882
 21
78.9838
 31
0.0
  0
LINE
  8
0
 62
     0
 10
211.882
 20
78.9838
 30
0.0
 11
197.882
 21
78.9838
 31
0.0
  0
LINE
  8
0
 62
     0
 10
197.882
 20
78.9838
 30
0.0
 11
197.882
 21
92.9831
 31
0.0
  0
LINE
  8
0
 62
     0
 10
178.832
 20
92.9831
 30
0.0
 11
192.832
 21
92.9831
 31
0.0
  0
LINE
  8
0
 62
     0
 10
192.832
 20
92.9831
 30
0.0
 11
192.832
 21
78.9838
 31
0.0
  0
LINE
  8
0
 62
     0
 10
192.832
 20
78.9838
 30
0.0
 11
178.832
 21
78.9838
 31
0.0
  0
LINE
  8
0
 62
     0
 10
178.832
 20
78.9838
 30
0.0
 11
178.832
 21
92.9831
 31
0.0
  0
LINE
  8
0
 62
     0
 10
159.782
 20
92.9831
 30
0.0
 11
173.782
 21
92.9831
 31
0.0
  0
LINE
  8
0
 62
     0
 10
173.782
 20
92.9831
 30
0.0
 11
173.782
 21
78.9838
 31
0.0
  0
LINE
  8
0
 62
     0
 10
173.782
 20
78.9838
 30
0.0
 11
159.782
 21
78.9838
 31
0.0
  0
LINE
  8
0
 62
     0
 10
159.782
 20
78.9838
 30
0.0
 11
159.782
 21
92.9831
 31
0.0
  0
LINE
  8
0
 62
     0
 10
140.732
 20
92.9831
 30
0.0
 11
154.732
 21
92.9831
 31
0.0
  0
LINE
  8
0
 62
     0
 10
154.732
 20
92.9831
 30
0.0
 11
154.732
 21
78.9838
 31
0.0
  0
LINE
  8
0
 62
     0
 10
154.732
 20
78.9838
 30
0.0
 11
140.732
 21
78.9838
 31
0.0
  0
LINE
  8
0
 62
     0
 10
140.732
 20
78.9838
 30
0.0
 11
140.732
 21
92.9831
 31
0.0
  0
LINE
  8
0
 62
     0
 10
121.682
 20
92.9831
 30
0.0
 11
135.682
 21
92.9831
 31
0.0
  0
LINE
  8
0
 62
     0
 10
135.682
 20
92.9831
 30
0.0
 11
135.682
 21
78.9838
 31
0.0
  0
LINE
  8
0
 62
     0
 10
135.682
 20
78.9838
 30
0.0
 11
121.682
 21
78.9838
 31
0.0
  0
LINE
  8
0
 62
     0
 10
121.682
 20
78.9838
 30
0.0
 11
121.682
 21
92.9831
 31
0.0
  0
LINE
  8
0
 62
     0
 10
102.632
 20
92.9831
 30
0.0
 11
116.632
 21
92.9831
 31
0.0
  0
LINE
  8
0
 62
     0
 10
116.632
 20
92.9831
 30
0.0
 11
116.632
 21
78.9838
 31
0.0
  0
LINE
  8
0
 62
     0
 10
116.632
 20
78.9838
 30
0.0
 11
102.632
 21
78.9838
 31
0.0
  0
LINE
  8
0
 62
     0
 10
102.632
 20
78.9838
 30
0.0
 11
102.632
 21
92.9831
 31
0.0
  0
LINE
  8
0
 62
     0
 10
83.5822
 20
92.9831
 30
0.0
 11
97.5815
 21
92.9831
 31
0.0
  0
LINE
  8
0
 62
     0
 10
97.5815
 20
92.9831
 30
0.0
 11
97.5815
 21
78.9838
 31
0.0
  0
LINE
  8
0
 62
     0
 10
97.5815
 20
78.9838
 30
0.0
 11
83.5822
 21
78.9838
 31
0.0
  0
LINE
  8
0
 62
     0
 10
83.5822
 20
78.9838
 30
0.0
 11
83.5822
 21
92.9831
 31
0.0
  0
LINE
  8
0
 62
     0
 10
64.5322
 20
92.9831
 30
0.0
 11
78.5315
 21
92.9831
 31
0.0
  0
LINE
  8
0
 62
     0
 10
78.5315
 20
92.9831
 30
0.0
 11
78.5315
 21
78.9838
 31
0.0
  0
LINE
  8
0
 62
     0
 10
78.5315
 20
78.9838
 30
0.0
 11
64.5322
 21
78.9838
 31
0.0
  0
LINE
  8
0
 62
     0
 10
64.5322
 20
78.9838
 30
0.0
 11
64.5322
 21
92.9831
 31
0.0
  0
LINE
  8
0
 62
     0
 10
45.4822
 20
92.9831
 30
0.0
 11
59.4815
 21
92.9831
 31
0.0
  0
LINE
  8
0
 62
     0
 10
59.4815
 20
92.9831
 30
0.0
 11
59.4815
 21
78.9838
 31
0.0
  0
LINE
  8
0
 62
     0
 10
59.4815
 20
78.9838
 30
0.0
 11
45.4822
 21
78.9838
 31
0.0
  0
LINE
  8
0
 62
     0
 10
45.4822
 20
78.9838
 30
0.0
 11
45.4822
 21
92.9831
 31
0.0
  0
LINE
  8
0
 62
     0
 10
26.4322
 20
92.9831
 30
0.0
 11
40.4315
 21
92.9831
 31
0.0
  0
LINE
  8
0
 62
     0
 10
40.4315
 20
92.9831
 30
0.0
 11
40.4315
 21
78.9838
 31
0.0
  0
LINE
  8
0
 62
     0
 10
40.4315
 20
78.9838
 30
0.0
 11
26.4322
 21
78.9838
 31
0.0
  0
LINE
  8
0
 62
     0
 10
26.4322
 20
78.9838
 30
0.0
 11
26.4322
 21
92.9831
 31
0.0
  0
LINE
  8
0
 62
     0
 10
2.61965
 20
92.9831
 30
0.0
 11
16.6192
 21
92.9831
 31
0.0
  0
LINE
  8
0
 62
     0
 10
16.6192
 20
92.9831
 30
0.0
 11
16.6192
 21
78.9838
 31
0.0
  0
LINE
  8
0
 62
     0
 10
16.6192
 20
78.9838
 30
0.0
 11
2.61965
 21
78.9838
 31
0.0
  0
LINE
  8
0
 62
     0
 10
2.61965
 20
78.9838
 30
0.0
 11
2.61965
 21
92.9831
 31
0.0
  0
LINE
  8
0
 62
     0
 10
316.945
 20
112.033
 30
0.0
 11
330.944
 21
112.033
 31
0.0
  0
LINE
  8
0
 62
     0
 10
330.944
 20
112.033
 30
0.0
 11
330.944
 21
98.0338
 31
0.0
  0
LINE
  8
0
 62
     0
 10
330.944
 20
98.0338
 30
0.0
 11
316.945
 21
98.0338
 31
0.0
  0
LINE
  8
0
 62
     0
 10
316.945
 20
98.0338
 30
0.0
 11
316.945
 21
112.033
 31
0.0
  0
LINE
  8
0
 62
     0
 10
293.132
 20
112.033
 30
0.0
 11
307.132
 21
112.033
 31
0.0
  0
LINE
  8
0
 62
     0
 10
307.132
 20
112.033
 30
0.0
 11
307.132
 21
98.0338
 31
0.0
  0
LINE
  8
0
 62
     0
 10
307.132
 20
98.0338
 30
0.0
 11
293.132
 21
98.0338
 31
0.0
  0
LINE
  8
0
 62
     0
 10
293.132
 20
98.0338
 30
0.0
 11
293.132
 21
112.033
 31
0.0
  0
LINE
  8
0
 62
     0
 10
274.082
 20
112.033
 30
0.0
 11
288.082
 21
112.033
 31
0.0
  0
LINE
  8
0
 62
     0
 10
288.082
 20
112.033
 30
0.0
 11
288.082
 21
98.0338
 31
0.0
  0
LINE
  8
0
 62
     0
 10
288.082
 20
98.0338
 30
0.0
 11
274.082
 21
98.0338
 31
0.0
  0
LINE
  8
0
 62
     0
 10
274.082
 20
98.0338
 30
0.0
 11
274.082
 21
112.033
 31
0.0
  0
LINE
  8
0
 62
     0
 10
255.032
 20
112.033
 30
0.0
 11
269.032
 21
112.033
 31
0.0
  0
LINE
  8
0
 62
     0
 10
269.032
 20
112.033
 30
0.0
 11
269.032
 21
98.0338
 31
0.0
  0
LINE
  8
0
 62
     0
 10
269.032
 20
98.0338
 30
0.0
 11
255.032
 21
98.0338
 31
0.0
  0
LINE
  8
0
 62
     0
 10
255.032
 20
98.0338
 30
0.0
 11
255.032
 21
112.033
 31
0.0
  0
LINE
  8
0
 62
     0
 10
235.982
 20
112.033
 30
0.0
 11
249.982
 21
112.033
 31
0.0
  0
LINE
  8
0
 62
     0
 10
249.982
 20
112.033
 30
0.0
 11
249.982
 21
98.0338
 31
0.0
  0
LINE
  8
0
 62
     0
 10
249.982
 20
98.0338
 30
0.0
 11
235.982
 21
98.0338
 31
0.0
  0
LINE
  8
0
 62
     0
 10
235.982
 20
98.0338
 30
0.0
 11
235.982
 21
112.033
 31
0.0
  0
LINE
  8
0
 62
     0
 10
202.645
 20
112.033
 30
0.0
 11
216.644
 21
112.033
 31
0.0
  0
LINE
  8
0
 62
     0
 10
216.644
 20
112.033
 30
0.0
 11
216.644
 21
98.0338
 31
0.0
  0
LINE
  8
0
 62
     0
 10
216.644
 20
98.0338
 30
0.0
 11
202.645
 21
98.0338
 31
0.0
  0
LINE
  8
0
 62
     0
 10
202.645
 20
98.0338
 30
0.0
 11
202.645
 21
112.033
 31
0.0
  0
LINE
  8
0
 62
     0
 10
183.595
 20
112.033
 30
0.0
 11
197.594
 21
112.033
 31
0.0
  0
LINE
  8
0
 62
     0
 10
197.594
 20
112.033
 30
0.0
 11
197.594
 21
98.0338
 31
0.0
  0
LINE
  8
0
 62
     0
 10
197.594
 20
98.0338
 30
0.0
 11
183.595
 21
98.0338
 31
0.0
  0
LINE
  8
0
 62
     0
 10
183.595
 20
98.0338
 30
0.0
 11
183.595
 21
112.033
 31
0.0
  0
LINE
  8
0
 62
     0
 10
164.545
 20
112.033
 30
0.0
 11
178.544
 21
112.033
 31
0.0
  0
LINE
  8
0
 62
     0
 10
178.544
 20
112.033
 30
0.0
 11
178.544
 21
98.0338
 31
0.0
  0
LINE
  8
0
 62
     0
 10
178.544
 20
98.0338
 30
0.0
 11
164.545
 21
98.0338
 31
0.0
  0
LINE
  8
0
 62
     0
 10
164.545
 20
98.0338
 30
0.0
 11
164.545
 21
112.033
 31
0.0
  0
LINE
  8
0
 62
     0
 10
145.493
 20
112.033
 30
0.0
 11
159.494
 21
112.033
 31
0.0
  0
LINE
  8
0
 62
     0
 10
159.494
 20
112.033
 30
0.0
 11
159.494
 21
98.0338
 31
0.0
  0
LINE
  8
0
 62
     0
 10
159.494
 20
98.0338
 30
0.0
 11
145.493
 21
98.0338
 31
0.0
  0
LINE
  8
0
 62
     0
 10
145.493
 20
98.0338
 30
0.0
 11
145.493
 21
112.033
 31
0.0
  0
LINE
  8
0
 62
     0
 10
112.157
 20
112.033
 30
0.0
 11
126.157
 21
112.033
 31
0.0
  0
LINE
  8
0
 62
     0
 10
126.157
 20
112.033
 30
0.0
 11
126.157
 21
98.0338
 31
0.0
  0
LINE
  8
0
 62
     0
 10
126.157
 20
98.0338
 30
0.0
 11
112.157
 21
98.0338
 31
0.0
  0
LINE
  8
0
 62
     0
 10
112.157
 20
98.0338
 30
0.0
 11
112.157
 21
112.033
 31
0.0
  0
LINE
  8
0
 62
     0
 10
93.1072
 20
112.033
 30
0.0
 11
107.107
 21
112.033
 31
0.0
  0
LINE
  8
0
 62
     0
 10
107.107
 20
112.033
 30
0.0
 11
107.107
 21
98.0338
 31
0.0
  0
LINE
  8
0
 62
     0
 10
107.107
 20
98.0338
 30
0.0
 11
93.1072
 21
98.0338
 31
0.0
  0
LINE
  8
0
 62
     0
 10
93.1072
 20
98.0338
 30
0.0
 11
93.1072
 21
112.033
 31
0.0
  0
LINE
  8
0
 62
     0
 10
74.0572
 20
112.033
 30
0.0
 11
88.0565
 21
112.033
 31
0.0
  0
LINE
  8
0
 62
     0
 10
88.0565
 20
112.033
 30
0.0
 11
88.0565
 21
98.0338
 31
0.0
  0
LINE
  8
0
 62
     0
 10
88.0565
 20
98.0338
 30
0.0
 11
74.0572
 21
98.0338
 31
0.0
  0
LINE
  8
0
 62
     0
 10
74.0572
 20
98.0338
 30
0.0
 11
74.0572
 21
112.033
 31
0.0
  0
LINE
  8
0
 62
     0
 10
55.0072
 20
112.033
 30
0.0
 11
69.0065
 21
112.033
 31
0.0
  0
LINE
  8
0
 62
     0
 10
69.0065
 20
112.033
 30
0.0
 11
69.0065
 21
98.0338
 31
0.0
  0
LINE
  8
0
 62
     0
 10
69.0065
 20
98.0338
 30
0.0
 11
55.0072
 21
98.0338
 31
0.0
  0
LINE
  8
0
 62
     0
 10
55.0072
 20
98.0338
 30
0.0
 11
55.0072
 21
112.033
 31
0.0
  0
LINE
  8
0
 62
     0
 10
26.4322
 20
112.033
 30
0.0
 11
40.4315
 21
112.033
 31
0.0
  0
LINE
  8
0
 62
     0
 10
40.4315
 20
112.033
 30
0.0
 11
40.4315
 21
98.0338
 31
0.0
  0
LINE
  8
0
 62
     0
 10
40.4315
 20
98.0338
 30
0.0
 11
26.4322
 21
98.0338
 31
0.0
  0
LINE
  8
0
 62
     0
 10
26.4322
 20
98.0338
 30
0.0
 11
26.4322
 21
112.033
 31
0.0
  0
LINE
  8
0
 62
     0
 10
2.61965
 20
112.033
 30
0.0
 11
16.6192
 21
112.033
 31
0.0
  0
LINE
  8
0
 62
     0
 10
16.6192
 20
112.033
 30
0.0
 11
16.6192
 21
98.0338
 31
0.0
  0
LINE
  8
0
 62
     0
 10
16.6192
 20
98.0338
 30
0.0
 11
2.61965
 21
98.0338
 31
0.0
  0
LINE
  8
0
 62
     0
 10
2.61965
 20
98.0338
 30
0.0
 11
2.61965
 21
112.033
 31
0.0
  0
ENDSEC
  0
EOF
